<svg xmlns="http://www.w3.org/2000/svg" xmlns:xlink="http://www.w3.org/1999/xlink" width="1920" height="1080" viewBox="0 0 1920 1080">
  <defs>
    <clipPath id="clip-Web_1920_1">
      <rect width="1920" height="1080"/>
    </clipPath>
  </defs>
  <g id="Web_1920_1" data-name="Web 1920 – 1" clip-path="url(#clip-Web_1920_1)">
    <rect width="1920" height="1080" fill="#fff"/>
    <g id="Grupo_61" data-name="Grupo 61" transform="translate(0 -1095.405)">
      <g id="Grupo_1" data-name="Grupo 1">
        <g id="Grupo_53" data-name="Grupo 53">
          <path id="Caminho_62" data-name="Caminho 62" d="M1818.448,2038.076" fill="#e1ceb5"/>
          <g id="Grupo_48" data-name="Grupo 48">
            <path id="Caminho_63" data-name="Caminho 63" d="M1826.839,1971.69c-5.12,4.423-10.391,8.635-15.455,13.124-4.5,3.986-9.259,7.2-12.778,12.115a8.645,8.645,0,0,0-1.473,2.684c-1.4,5.2,12.6,5.1,15.535,5.168a72.079,72.079,0,0,0,16.055-1.488c5.546-1.133,11.077-2.323,16.611-3.5.307.523-.176.575-.268,1a4.978,4.978,0,0,0,.074,1.95c.059.374.7,4.481.7,4.481a11.92,11.92,0,0,0-6.662,3.451c-6.236,6.426-9.831,16.777-12.165,25.243-.756,2.746-1.127,6.414-2.457,8.92-1.062,2-1.622,1.739-3.944,2l-7.763.884c-.412-3.609.718-6.69,1.626-9.166a25.423,25.423,0,0,0,.86-2.606c.133-.56.218-1.128.31-1.7.147-.922.3-1.845.528-2.752a28,28,0,0,1,1.981-5.175,20.815,20.815,0,0,0,1.152-2.778,32.2,32.2,0,0,1,4.739-10.436c-.875.133-1.757.271-2.636.409-12.937,2.022-30.675,4.8-36.56-9.173-1.333-3.153-2.212-9.434,6.868-16.067l12.914-9.433c-7.149-.929-14.928-3.867-23.473-8.84a115.992,115.992,0,0,1-15.054-10.213l7.5-9.19a104.231,104.231,0,0,0,13.524,9.15c6.062,3.529,12.79,6.75,19.866,7.423a84.012,84.012,0,0,0,8.759.607c.94-.012,11.035-2.355,10.573-3.056a32.488,32.488,0,0,0,2.328,3.254c.8.941.673,1.523-.36,2.431Q1827.57,1971.058,1826.839,1971.69Z" fill="#e1ceb5"/>
          </g>
          <path id="Caminho_64" data-name="Caminho 64" d="M2008.756,1617.648c-3.234,5.277.984,11.267,2.577,13.521a194.869,194.869,0,0,0,13.193,16.013c3.786,4.28,7.7,8.707,10.93,12.972a345.939,345.939,0,0,1,33.15,52.227c-20.233-10.656-45.6-17.8-67-18.791-10.954-.505-26.515-.125-35.129,8.962l-1.983,2.091.419,2.85a9.833,9.833,0,0,0,2.321,5.389c2.09,2.3,6.183,4.025,17.42,8.034,2.368.845,4.606,1.643,5.672,2.1,39.319,16.828,66.428,36.241,90.643,64.911,5.712,6.764,11.083,13.994,16.277,20.985,8.638,11.628,17.445,23.39,27.179,34.122,1.415,1.558,2.873,3.162,4.519,4.7q-1,.3-2.005.618a61.078,61.078,0,0,1-7.146,1.667c-3.508.372-6.058-2.618-8.492-4.625-2.691-2.219-5.584-4.288-8.405-6.383-6.237-4.634-12.7-8.963-19.321-13.023a372.277,372.277,0,0,0-46.874-23.957q-8.22-3.556-16.555-6.839c-27.486-10.86-79.2-28.523-116.742-24.808-7.968.788-17,1.683-18.622,8.669-1.561,6.72,5.973,11.388,9.191,13.38,11.354,7.037,25.249,13.064,38.685,18.891,7.9,3.425,15.358,6.661,22.214,10.038,8.956,4.412,17.974,9.168,26.693,13.769,13.137,6.929,26.72,14.094,40.578,20.346a358.639,358.639,0,0,0,37.3,14.384l4.838,1.728a142.478,142.478,0,0,0-17.266,5.8l-2.036.681a127.433,127.433,0,0,0-24.571-16.76c-48.847-25.563-141.153-37.947-191.052-31.94-17.891,2.155-27.364,6.666-28.152,13.407-.883,7.587,8.426,11.018,11.932,12.308a214.033,214.033,0,0,0,21.072,6.134c4.884,1.242,9.495,2.415,13.952,3.788,13.628,4.194,27.646,9.177,41.2,13.995,12.1,4.3,24.42,8.681,36.825,12.64-8.825,0-18.3.31-28.808.933-28.614,1.7-51.081,4.839-68.682,9.609-.534.144-1.137.289-1.781.444-5.264,1.273-15.061,3.641-15.626,12.6l-.062.973.253.941c.668,2.5,1.781,6.614,22.654,13.28q-2.728.281-5.5.591l-2.63.3q-4.182.491-8.412,1.055l-1.746.238c-3.1.429-6.187.887-9.324,1.393l-.742.119q-2.1.344-4.163.707l-1.707.308c-1.211.22-2.415.441-3.614.674l-2.095.42q-1.382.279-2.749.567l-1.988.433q-1.581.346-3.136.717l-2.163.508c-1.268.3-2.632.628-4.035.993-.972.253-1.955.518-2.789.762-7.355,1.939-11.471,4.143-13.488,7.272a7.8,7.8,0,0,0-1.813,5.483c.243,3.713,3.128,6.066,4.076,6.838-2.044.511-4.079,1.037-6.041,1.544-2.953.764-5.744,1.485-8.187,1.974l-1.436.286c-9.821,1.958-20.749,4.333-27.106,7.922-3.547,1.3-7.288,5.238-7.384,9.615a9.635,9.635,0,0,0,.661,3.655,12.17,12.17,0,0,0,1.655,3.413,131.143,131.143,0,0,0-15.428,4.918c-3.7,1.512-12.093,4.945-17.311,9.664a10.676,10.676,0,0,0-5.038,7.626,13.276,13.276,0,0,0-.036,3.653c.009.072.017.145.026.214a89.1,89.1,0,0,0-17.459,9.421,30.437,30.437,0,0,0-5.763,5.057,13.693,13.693,0,0,0-2.106,2.836c-.1.163-.192.324-.3.486a10.183,10.183,0,0,0-1.294,7.081,11.68,11.68,0,0,0,.636,2.456q-1.15.725-2.351,1.509l-1.316.779c-5.061,2.993-14.612,14.015-17.035,19.658-1.479,3.443-3.3,11.187.446,15.875,5.375,6.731,15.483,6.648,20.34,6.607,7.043-.058,13.576-1.926,19.9-3.734l.916-.261c.347-.1.692-.2,1.039-.31a8.6,8.6,0,0,0,.871,1.173,10.294,10.294,0,0,0,4.981,3.017c.5.151,1.027.275,1.551.4l.482.114a10.487,10.487,0,0,0,2.152.274,17.614,17.614,0,0,0,3.341-.223l.489-.068a26.733,26.733,0,0,0,7.977-2.093,85.651,85.651,0,0,0,13.678-5.848,10.75,10.75,0,0,0,8.493,5.121,14.442,14.442,0,0,0,4.546-.187c4.185-.666,8.571-2.527,11.785-3.89a165.382,165.382,0,0,0,22.359-11.741q.867-.536,1.741-1.085a12.275,12.275,0,0,0,1.154,2.282,10.631,10.631,0,0,0,2.1,2.5,6.062,6.062,0,0,0,.552.425,10.616,10.616,0,0,0,1.067.764c2.553,1.575,7.316,2.986,19.151-2.928,1.28-.641,2.549-1.325,3.805-2.026.475-.264.944-.533,1.421-.808.724-.421,1.446-.853,2.149-1.285,1.392-.848,2.764-1.724,4.187-2.676l.187-.123c3.536-2.381,7.058-5.01,10.767-8.042l.41-.335c.789-.65,1.579-1.3,2.352-1.959q1.343-1.137,2.674-2.305l.6-.531a18.385,18.385,0,0,0,1.8,5.044,9.5,9.5,0,0,0,5.959,5.7,12.781,12.781,0,0,0,7.576.975c9.783-1.638,18.963-7.549,27.065-12.765l2.556-1.638q2.921-1.859,5.792-3.776l.211-.141c6.553-4.372,12.537-8.667,16.5-11.508l.224-.161c1.283-.921,2.59-1.878,3.957-2.9-8.16,12.058-17.481,26.45-23.764,41.981-5.782,14.3-6.008,22.391-.746,26.236,6.149,4.494,14.172-.869,21.212-6.71,23.919-19.844,49.095-43.13,67.349-62.29,5.327-5.592,10.528-11.383,15.334-17.432,3.062-3.854,5.385-8.268,8.695-11.931,3.3-3.647,6.077-6.995,9.072-10.96-6.142,17.06-10.994,34.4-15.742,51.369-3.064,10.957-6.234,22.285-9.7,33.372-2.968,9.492-6.772,19.354-10.8,29.795-5.923,15.359-12.046,31.239-15.3,45.91l-.131.589c-.942,4.161-2.7,11.9,2.673,16.349l.542.446.629.309c3.3,1.613,7.908,1.644,19.191-8.966,34.569-32.5,66.358-107.14,79.691-146.117,3.009-8.8,6.282-18.8,9.026-29.35-1.862,20.477-1.464,40.838-1.076,60.725.207,10.571.42,21.5.291,32.277-.122,10.05-.6,20.569-1.064,30.743-.805,17.7-1.639,36.012-.719,53.531.035.647.061,1.313.088,1.98.231,5.8.489,12.383,6.115,14.545,5.674,2.178,10.8-3.083,12.734-5.064,9.064-9.3,16.782-31.961,20.574-44.642,11.248-37.61,17.7-79.251,18.9-121.485,1.34,7.338,2.577,14.375,3.549,21.216,3.661,25.771,4.951,49.771,6.317,75.181.493,9.183,1,18.678,1.636,28.272.047.725.1,1.593.15,2.552.345,6.174.706,11.548,1.623,14.775a13.631,13.631,0,0,0,3.3,6l.615.625.768.423c4.547,2.5,8.878,1.056,12.874-4.286l.428-.567c22.528-28.824,20.107-109.789,19.757-118.926-.632-16.471-2.035-33.592-3.952-48.208-2.334-17.777-5.155-31.152-9.124-43.207a76.019,76.019,0,0,0-13.948-32.324l9.977-4.2c0,.022.008.044.011.067a52.874,52.874,0,0,0,1.361,6.894c.532,1.855,1.1,3.676,1.655,5.487l.565,1.836c.751,2.907,1.6,6.011,2.6,9.478.662,2.621,1.336,5.042,2.06,7.4a23.3,23.3,0,0,0,.985,2.5l.2.636c.13.428.261.857.4,1.29.282.851.573,1.7.863,2.544l.415,1.217,4.8-1.634.274-.006-5.048,1.723c4.63,13.563,9.88,27.014,14.957,40.023,7.655,19.617,15.572,39.9,21.369,60.651,3.971,14.215,6.557,28.7,9.06,42.7,1.69,9.468,3.441,19.257,5.612,28.982.166.736.321,1.54.483,2.368,1.085,5.569,2.438,12.5,8.4,14.212,3.709,1.067,7.516-.449,11.316-4.5,19.106-20.4,15.906-73.609,15.07-84.068a273.4,273.4,0,0,0-14.807-69.839,262.33,262.33,0,0,1,37.589,74.648c.311.97.865,3.04,1.508,5.436,5.652,21.063,7.925,26.347,12.167,28.269a8.044,8.044,0,0,0,7.016-.161c6.643-3.3,9.93-16.487,10.522-19.1,5.776-25.462.421-62.384-7.552-84.2-.619-1.69-1.276-3.355-1.955-5.011a144.152,144.152,0,0,0-13.79-25.8l-.907-1.344a35.649,35.649,0,0,0-4.705-6.468c-2.8-3.638-5.849-7.253-9.066-10.738l-.7-.768c-.584-.623-1.179-1.238-1.772-1.852l-.94-.981c-.483-.49-.973-.974-1.463-1.457l-1.311-1.3c-.867-.84-1.742-1.671-2.659-2.523l-.177-.167c-.941-.874-1.892-1.735-2.892-2.62-.3-.267-.6-.528-.906-.789l-.345-.292a155.758,155.758,0,0,0-21.41-16.433l-2.9-1.87a200,200,0,0,0-21.583-12.685,23.281,23.281,0,0,1-2.2-1.307l2.491-.852a43.855,43.855,0,0,1,6.212-1.627c1-.184,2.007-.334,3.013-.487,1.481-.224,3.011-.455,4.581-.784,1.283-.27,2.617-.625,4.066-1.083,33.3-6.076,63.272-8.836,91.29-8.392-.819,2.772-1.145,5.66-.31,8.016a7.377,7.377,0,0,0,6.121,4.95l.893.113.888-.156c6.746-1.19,12.564-4.412,18.19-7.526,4.06-2.248,7.9-4.372,11.725-5.522,6.973-2.1,35.2,1.363,44.468,2.5l2.257.276c7.745.936,15.666,2.09,23.628,3.441a8.586,8.586,0,0,0-.243,1.133c-.433,3.1.085,8.915,4.761,11.091,2.811,1.308,5.614.476,13.31-2.124,1.162-.394,2.753-.931,3.19-1.039,19.734-4.831,40.265,1.75,57.745,8.825,1.171.473,2.308,1.065,3.409,1.636,3.184,1.656,7.148,3.716,11.424,1.7,4.22-1.991,5.726-6.655,6.642-10.954a41.979,41.979,0,0,0-.241-16.723c.6-4.434-1.648-9.753-5.595-16.426q-.87-1.472-1.847-3.032l-.631-1.018a21.749,21.749,0,0,0-10.658-8.906c-.255-.157-.515-.309-.806-.459a15.171,15.171,0,0,0-4.807-1.3c-2.623-.612-5.278-1-7.85-1.383-2.006-.3-3.9-.573-5.7-.942l-.2-.041c-13.744-2.8-27.956-5.7-41.4-9.956l-1.782-.559c-5.1-1.59-9.913-3.091-13.291-6.027-5.074-4.414-9.773-10.33-13.781-15.527-2.639-3.424-5.048-7-7.6-10.793-5.162-7.665-10.5-15.591-17.813-22.034a111.043,111.043,0,0,0-11.589-8.582c-1.072-.725-2.147-1.449-3.211-2.183-4.034-3.468-8.637-7.522-12.608-11.6-1.6-2.371-3.372-5.812-3.335-9.409a16.832,16.832,0,0,1,.637-3.69,25.844,25.844,0,0,0,.963-6.616,38.1,38.1,0,0,0-6.293-20.63c-3.686-5.676-7.561-11.3-13.7-14.607a8.113,8.113,0,0,0-3.233-1.11,3.419,3.419,0,0,0-3.041,1.27c-.2.281-.437.649-.772.575a.759.759,0,0,1-.378-.288c-1.584-1.868-2.725-3.642-4.979-4.536a27.177,27.177,0,0,0-7.386-1.813,8.626,8.626,0,0,0-7.286,2.593,10.146,10.146,0,0,0-2.547,6.283,107.276,107.276,0,0,0-25.85-9.987c-.187-.044-19.432-4.174-26.1-1.871-4.086,1.409-5.7,3.9-6.34,5.748-1.468,4.261.934,7.97,2.682,10.686l.177.272c-7.583-.489-15.559-.212-22.565,1.836-2.383.7-9.635,2.814-10.522,9.108-.553,3.915,1.515,6.954,4.482,9.538a40.521,40.521,0,0,0-6.88,4.168c-1.595,1.21-6.694,5.595-5.322,11.206l.138.563.244.527c2.314,4.97,7.721,7.376,13.652,8.961-2.927,2.129-4.93,4.328-5.661,7.021-1.443,5.313,2.478,10.164,11.654,14.424,12.508,5.8,27.509,5.969,41.173,5.076a9.266,9.266,0,0,0-.4,5.633c1.86,6.774,10.438,8.426,17.309,8.617,15.7.437,33.728-6.636,46.328-17.9.776.633,1.757,1.472,3,2.582l.6.532c15.093,13.252,32.171,33.657,44.568,53.251l.175.273c.192.3.374.591.548.87-10.882.023-21.794.249-32.427.469-18.976.393-38.6.8-57.792.039-11.929-.474-24.527-1.224-35.832-3.493-.969-.194-3.269-.837-5.494-1.457-10.981-3.066-14.86-3.885-17.741-3.037a7.269,7.269,0,0,0-5.4,6.084c-.51,2.891.579,5.636,2.309,8.033-3.215.463-6.421.906-9.578,1.343-9.01,1.247-18.257,2.528-27.435,4.181.553-1.25,1.113-2.492,1.67-3.731,4.458-9.9,9.067-20.139,9.614-32.154.021-.458.033-.919.032-1.38.132-.725.255-1.446.378-2.16a251.258,251.258,0,0,0,3.225-35.311c.053-1.621.1-3.245.142-4.864q.065-2.581.113-5.123c.609-32.293-2.577-110.629-45.255-140.532-4.336-3.037-13.357-9.36-21.087-4.061l-3.071,2.1.561,3.68c1.1,7.254,3.443,14.051,5.7,20.625,1.236,3.586,2.4,6.974,3.382,10.431,7.263,25.634,10.284,56.805,8.5,87.77-.414,7.212-1.183,14.547-2.027,21.778-.1-.584-.177-.989-.22-1.179-10.938-49.353-52.089-131.09-115.929-140.3C2019.512,1613.3,2012.078,1612.229,2008.756,1617.648Zm290.724,150.233c-7.576,3.7-16.1,6.139-24.587,5.906a27.48,27.48,0,0,1-4.7-.519,30.682,30.682,0,0,1,4.11-4.267l15.289-12.263-21.883,1.939c-5.455.489-10.915.978-16.391,1.18-4.884.18-10.276.764-15.064-.058a109.5,109.5,0,0,1-12.78-3.048c-1.665-.5-3.518-1.2-4.173-2.808,2.768-3.083,6.43-4.092,9.821-6.336l3.553-2.352c.052-.034-.632-2.673-.6-3.108.176-2.642,1.831-3.258,3.776-4.419-2.674,1.134-5.628.785-8.424.414-5.289-.7-10.664-1.425-15.535-3.6-.417-.186-.874-.434-.994-.875a1.412,1.412,0,0,1,.124-.879c1.526-3.8,8.557-5.021,12.1-6.108,1.869-.574,9.047-.93,8.394-3.792-.459-2.014-9.446-5.369-11.16-6.328-4.362-2.441-4.116-5.675.822-6.582,4.833-.887,9.778.5,14.6.776a140.806,140.806,0,0,1,16.645,2.116l18.376,3.283c-6.621-6.71-15.218-12.151-19.806-20.591a2.487,2.487,0,0,1-.326-2.408c.544-.873,1.825-.769,2.832-.558,14.65,3.079,29.82,8.5,42.134,17.278l1.258.9c7.471,5.334,5.138-9.825,5.531-12.019.172-.96.592-2.087,1.551-2.262a3.436,3.436,0,0,1,1.992.706c0,.022-.019.041-.02.063a2.206,2.206,0,0,0,.571,1.374c3.162,4.476,5.786,11.29,7.262,16.616,1.093,3.947,2,11.676-.757,15.222-2.225,2.864-6.262,2.94-9.676,3.543-6.273,1.108-18.033,1.581-17.9,10.429.091,6.456,8.434,12.354,12.914,13.094,6.6,1.093,10.332,2.331,12.4,3.251l-.068.054A60.676,60.676,0,0,1,2299.48,1767.881Zm-275.041-143.136c54.85,7.912,95.03,81.442,106.038,131.106.078.378.253,1.437.51,2.948,1.061,6.243,1.235,12.721,3.363,18.743,2.34,6.617,8.453,9.4,11.326,15.43.236.5.555,1.084,1.1,1.1.77.024,1.017-1.017,1.019-1.787.017-9.758,2.309-18.387,4.936-27.615,2.759-9.69,2.841-21.226,3.418-31.285,1.312-22.815.826-57.242-8.935-91.685-1.07-3.772-2.343-7.476-3.576-11.058-1.293-3.753-2.542-7.385-3.542-11,.939.561,2.064,1.291,3.409,2.233,39.075,27.379,40.649,106.878,40.2,130.592q-.048,2.5-.111,5.053-.06,2.387-.139,4.771a240.031,240.031,0,0,1-3.061,33.689c-.122.718-.243,1.431-.38,2.16l-.207,1.109.031.71c.014.335,0,.671-.012,1.018-.445,9.765-4.4,18.542-8.58,27.834-.874,1.941-1.75,3.888-2.6,5.85-.1.227-.254.493-.413.786-1.053,1.946-2.5,4.611-1.965,7.664.359,2.062,1.869,4.945,3.711,6.111,4.112,2.6,12.625-.177,16.928-.9,7.493-1.255,15.02-2.3,22.545-3.339,5.709-.791,11.419-1.581,17.116-2.462,1.547-.239,5.7-.162,6.77-1.6,1.537-2.067-1.865-4.82-2.919-6.442a1.514,1.514,0,0,1-.29-.685,1.284,1.284,0,0,1,.2-.709,4.34,4.34,0,0,1,4.206-1.9,12.788,12.788,0,0,1,4.566,1.635c5.626,2.871,13.3,2.929,19.52,3.521,6.8.647,13.638,1.014,20.468,1.268,19.549.775,39.356.364,58.51-.032,13.585-.282,27.632-.573,41.388-.433l1.67.017,1.432-.855a6.24,6.24,0,0,0,2.882-3.95c1.705-7.144-7.908-17.432-11.653-22.669-7.494-10.48-16.37-19.886-25.5-28.941-8.089-8.022-16.483-15.84-25.9-22.3-3.768-2.585-6.156-4-10.561-4.43s-8.88-2.519-12.619-4.8c-.906-.552-1.891-1.319-1.889-2.38a2.954,2.954,0,0,1,1.415-2.139c5.5-4.183,11.927-.069,17.708-3.149,3.109-1.658,4.671-5.8,5-9.068.726-7.109.363-15.258-2.257-21.971a56.811,56.811,0,0,1-2.651-7.055,1.672,1.672,0,0,1-.021-1.023c.627-1.531,4.991,1.072,5.722,1.689a16.112,16.112,0,0,1,3.232,4.019,37.759,37.759,0,0,1,5.444,18.332,15.887,15.887,0,0,1-.627,3.708,26.871,26.871,0,0,0-.975,6.384c-.057,5.569,1.876,11.186,5.734,16.7l.589.714c4.464,4.631,9.578,9.128,13.99,12.917l.487.374c1.186.823,2.385,1.632,3.583,2.441a100.734,100.734,0,0,1,10.382,7.649c6.166,5.434,10.852,12.394,15.815,19.76,2.544,3.777,5.173,7.684,8.044,11.408,4.356,5.65,9.5,12.107,15.393,17.237,5.256,4.57,11.5,6.516,17.544,8.4l1.733.544c14.042,4.444,28.566,7.405,42.611,10.271l.2.04c2.122.433,4.268.75,6.344,1.055,2.519.372,4.9.723,7.1,1.25l.588.111c.778.1,1.224.195,1.45.248.145.089.29.178.438.261l.765.368a10.2,10.2,0,0,1,5.378,4.25l.7,1.12a54.672,54.672,0,0,1,5.4,11.608,30.563,30.563,0,0,1,.743,15.819c-.129.6-.252,1.106-.368,1.525-.218-.111-.43-.222-.627-.324-1.282-.666-2.735-1.421-4.425-2.106-10.672-4.328-21.651-8.13-33.036-10.055a87.041,87.041,0,0,0-18.012-1.243c-5.234.213-13.139.283-17.486,3.515-.87.647-1.488,1.852-2.732,1.627-2.167-.391-1.343-2.669-.674-3.93,1.157-2.182,2.318-5.478-.394-6.847-2.858-1.443-7.427-1.411-10.572-1.934q-11.221-1.867-22.515-3.241l-2.236-.273c-20.759-2.545-41.1-4.56-49.328-2.087-6.712,2.018-12.3,7.7-18.326,11.214-1.764,1.027-2.757.7-1.98-1.094.812-1.87,2.862-3.759,4.175-5.31,4.405-5.2-5.845-4.813-8.427-4.919-31.594-1.3-65.4,1.442-103.335,8.387l-.761.192a31.311,31.311,0,0,1-3.232.881c-1.294.272-2.6.467-3.913.665a14.8,14.8,0,0,1-4.08.508c-1.767-.231-2.577-1.319-4.333-.591a12.949,12.949,0,0,0-4.574,2.829c-.653.686-1.2,1.468-1.839,2.167a19.453,19.453,0,0,1-5.234,3.719q-3.057,1.657-6.221,3.106c-1.765.807-3.813,1.339-5.31,2.575l-6.949,5.737,15.173.823c1.3.07,4.238,1.992,5.991,3.14a40.551,40.551,0,0,0,4.492,2.679c6.916,3.325,13.714,7.716,20.29,11.961l2.926,1.887a144.364,144.364,0,0,1,19.909,15.288l1.335,1.158c.9.792,1.78,1.594,2.677,2.423l.165.158q1.236,1.153,2.455,2.33l1.243,1.237c.445.438.891.878,1.31,1.3l.9.937c.545.562,1.092,1.125,1.635,1.707l.629.692c3.04,3.291,5.905,6.69,8.518,10.1l.292.354a24.787,24.787,0,0,1,3.424,4.666l.165.308,1.161,1.7a132.422,132.422,0,0,1,12.663,23.684c.619,1.517,1.225,3.042,1.791,4.592,7.492,20.5,12.206,55.1,7.123,77.5a47.2,47.2,0,0,1-2.054,6.444c-1.757-5.223-3.7-12.46-4.624-15.907-.71-2.648-1.271-4.74-1.669-5.982a279.927,279.927,0,0,0-24.111-54.661q-5.52-9.551-11.821-18.623c-4.106-5.909-9.079-11.008-13.587-16.613-3.035-3.774-6.552-6.846-9.959-10.243q-4.891-4.876-9.544-9.985a4.8,4.8,0,0,0-2.553-1.79c-1.229-.2-7.875,3.312-8.772,1.8l4.828,8.7c16.458,29.669,26.7,64.653,29.616,101.169,1.653,20.7,1.144,58.8-10.792,73.729-.209-.94-.393-1.881-.53-2.586-.184-.938-.361-1.848-.549-2.681-2.116-9.476-3.843-19.138-5.511-28.482-2.552-14.277-5.191-29.04-9.314-43.8-5.955-21.32-13.98-41.886-21.743-61.773-5.03-12.892-10.233-26.222-14.779-39.543l-.452-1.313c-.277-.811-.555-1.621-.824-2.429-.11-.338-.214-.677-.316-1.016-.113-.366-.224-.732-.341-1.1l-.218-.57c-.092-.208-.183-.407-.266-.594l-.765-2.222c-.524-1.781-1.026-3.623-1.523-5.594l-.054-.2c-1-3.448-1.837-6.515-2.573-9.376l-.687-2.249c-.535-1.736-1.075-3.479-1.584-5.253a43.454,43.454,0,0,1-1.033-5.385c-.75-4.97.925-8.639,4.462-12.363.533-.561,1.136-1.365.722-2.018-.383-.606-1.284-.49-1.975-.3-8.149,2.24-15.613,3.782-23.423,7.071L2110.6,1896.8c-1.2.5-4.162,1.142-4.9,2.213-1.461,2.111,1.572,4.115,2.964,5.707a79.662,79.662,0,0,1,10.716,15.029c-.016-.012,6.612,19.773,6.612,19.773,3.855,11.509,6.591,24.392,8.872,41.769,1.871,14.268,3.243,31,3.861,47.119,1.155,30.136-.869,85.25-15.165,108.171-.228-2.542-.388-5.4-.5-7.333-.057-1-.107-1.91-.157-2.666-.627-9.524-1.136-18.983-1.628-28.131-1.379-25.676-2.684-49.928-6.417-76.212-1.261-8.875-2.932-17.935-4.7-27.528-2.806-15.228-5.708-30.974-6.836-45.882l-1.228-16.252c.106-3.447.335-6.9.559-10.312l.068-1.058c.206-3.318.491-7.866,1.908-10.237l.357-.6.209-.663a6.145,6.145,0,0,0-.739-5.443,6.529,6.529,0,0,0-5.242-2.786c-3.1-.22-14.733,4.343-15,4.474a8.262,8.262,0,0,0-4.074,3.7l-1.515,2.961,1.523,2.486c1.174,4.575,2.019,9.164,2.66,12.845,1.019,4.939,1.88,10.066,2.554,15.238l.046.286c.283,1.562.576,3.124.893,4.679a57.811,57.811,0,0,1,1.165,11.548c0,.232.014.573.033.984a18.891,18.891,0,0,1,.023,2.03l-.272.845.06,1.087c.316,5.942.507,12.236.571,18.7.48,47.655-5.946,95.178-18.582,137.43-4.147,13.861-10.418,30.508-16.207,38.018-.029-.693-.057-1.385-.091-2.061-.892-16.937-.072-34.949.722-52.369.467-10.27.951-20.89,1.074-31.139.131-10.962-.083-21.988-.292-32.651-.564-28.878-1.1-56.155,4.56-84.011a159.33,159.33,0,0,1,4.479-16.829l2.526-7.952-.271.007c.438-.977.892-1.954,1.341-2.921l.255-.642c.626-1.821,1.255-3.651,1.887-5.52a6.561,6.561,0,0,0-1.234-8.523l-2.444-2.406-23.432,6.513-4.681,1.109.342,4.834.016.393.25,1.2a13.742,13.742,0,0,1,.348,3.329l.242,9.447c.044,1.694.089,3.39.069,5.089a67.813,67.813,0,0,1-3.1,19.522c-.064.2-.138.4-.21.594l-.266.752-.192.712c-2.939,14.434-7.473,28.48-11.523,40.319-12.98,37.941-43.716,110.4-76.593,141.314-1.133,1.065-2.25,2.047-3.292,2.911l.1-.426c3.066-13.8,9.028-29.263,14.793-44.213,3.918-10.158,7.968-20.661,11.053-30.521,3.521-11.258,6.717-22.676,9.805-33.717,7.429-26.55,14.445-51.628,25.927-75.986l.282-.715a84.186,84.186,0,0,1,3.679-9.447q3.314-7.188,6.626-14.377,2.937-6.372,5.875-12.745a36.569,36.569,0,0,0,2.321-5.323c-.03.109,1.4-4.483.413-3.554-9.55,9.031-17.282,19.514-25.312,29.886-2.412,3.116-4.99,6.073-7.721,9.2-1.159,1.329-2.317,2.659-3.459,4-9.472,11.092-17.475,23.2-26.611,34.48l-.982,1.212c-5.828,7.193-12.009,14.223-18.41,20.942-17.953,18.846-42.751,41.778-66.336,61.345a56.66,56.66,0,0,1-5.09,3.829,62.523,62.523,0,0,1,3.2-9.779c6.095-15.068,14.782-28.323,25.5-44.065l54.365-70.485-36.663,28.423q-2.656,2.061-5.281,4.171c-3.472,2.785-6.906,5.619-10.339,8.458l-5.1,4.222c-4.415,3.64-8.072,6.587-11.508,9.273s-6.323,4.863-9.079,6.84l-.224.16c-3.9,2.8-9.783,7.019-16.152,11.27l-.25.167c-1.815,1.208-3.674,2.424-5.552,3.618l-2.61,1.674a133.694,133.694,0,0,1-12.728,7.558c-2.195,1.092-10.76,5.878-11.822,1.684a9.322,9.322,0,0,1,.413-4.258l1.107-5.125c.646-2.991,1.477-5.945,2.052-8.946.47-2.449,3.619-7.52,2.781-9.907-.826-2.357-3.641,1.2-4.828,2.287q-4.194,3.844-8.388,7.69c-1.506,1.38-3.041,2.744-4.585,4.116-1.563,1.389-3.136,2.787-4.7,4.215l-.47.423q-1.1,1-2.222,2l-1.013.9c-.835.731-1.674,1.455-2.527,2.179-.732.621-1.473,1.232-2.2,1.834l-.392.322c-3.418,2.793-6.649,5.208-9.934,7.417l-.174.115q-1.82,1.219-3.707,2.368c-.636.39-1.275.773-1.912,1.142-.41.239-.823.474-1.247.71-1.1.616-2.215,1.218-3.335,1.777-1.7.847-8.332,4.824-9.04,1.576a5.712,5.712,0,0,1,.088-2.238,38.214,38.214,0,0,1,2.926-9.213,7.133,7.133,0,0,0,.96-3.231,1.676,1.676,0,0,0-.822-1.493c-2.03-.924-9.044,5.428-10.9,6.694-3.5,2.392-6.743,4.506-9.911,6.462a153.727,153.727,0,0,1-20.758,10.912c-2.679,1.137-6.35,2.695-9.106,3.11l-.384.071a2.428,2.428,0,0,1-.709.049,4.5,4.5,0,0,1-.2-1.941l.807-11.431-9.8,5.94c-7.112,4.313-15.619,9.158-24,10.26l-.6.083a7.16,7.16,0,0,1-1.208.116l-.434-.09c-.05-.251-.111-.5-.189-.766a6.88,6.88,0,0,0-.689-1.511l-.276-.459-.559-.69a7.4,7.4,0,0,0-2.073-1.58,7.515,7.515,0,0,0-2.307-.729l-.995-.086a19.919,19.919,0,0,0-5.354,1.094l-.33.1c-.529.168-1.057.338-1.6.491l-.933.267c-5.812,1.661-11.3,3.231-16.733,3.276-2.14.019-8.391.07-10.6-1.772a11.8,11.8,0,0,1,.816-4.168c1.453-3.385,9.19-12.363,12.173-14.127l1.664-.991c2.874-1.883,5.453-3.448,7.883-4.782l7.337-4.029-2.724-2.441a10.214,10.214,0,0,0-4.689-2.536,2.054,2.054,0,0,1-1.374-1c-.441-1.106,4.317-4.318,5.215-4.955a85.116,85.116,0,0,1,20.357-10.142l8.516-3.029-6.169-6.607c-.048-.051-.1-.1-.113-.119a2.187,2.187,0,0,1-.22-.679l.835-.841c2.7-2.713,6.119-3.825,9.26-5.816a83.685,83.685,0,0,1,8.812-5.2,93.592,93.592,0,0,1,18.975-6.651c2.26-.527,5.529-.273,5.79-3.082.2-2.208-2.293-4.936-3.908-6.137l-.327-.242c-1.125-.771-2.038-1.738-3.19-2.513a1.494,1.494,0,0,1-.552-.53c-.276-.562.222-1.188.707-1.583,3.778-3.071,8.5-3.228,13.052-4.108,4.417-.853,8.774-2.143,13.164-3.133,8.824-1.991,17.843-3.664,26.925-3.505l9.761.17c4.08.071,9.45,1.89,13.287.142-.705-1.619-2.349-1.156-3.77-1.485a23.126,23.126,0,0,1-5.826-2.77c-2.755-1.55-19.484-7.036-17.394-12.2.97-2.4,6.911-2.825,9.055-3.337l2.138-.5c.98-.232,1.966-.459,2.967-.681l1.894-.411c.867-.185,1.744-.363,2.626-.541,14.911-3,30.535-4.047,45.694-6.3l1.741-.266c3.124-.4,6.211-.626,9.916-.887l1.267-.088c5.352-.372,10.886-.754,16.4-1.684,6.561-1.106,14.907-.964,20.833-4,6.646-3.4-8.3-5.116-10.809-5.635l-9.808-2.027c-4.94-1.021-9.756-1.231-14.493-2.853-5.681-1.945-11.891-2.63-17.662-4.41a123.51,123.51,0,0,1-13.046-4.739c1.182-.346,2.369-.633,3.125-.816s1.467-.356,2.1-.527c16.807-4.555,38.487-7.568,66.28-9.215a385.674,385.674,0,0,1,48.576-.272l.827,0c.839-.062,1.679-.1,2.521-.092a67.605,67.605,0,0,1,8.881.9l2.381.338c5.019.686,10.052,1.036,14.918,1.375,2.532.177,5.065.352,7.593.576,2.064.182,4.643.294,7.629.424,5.031.218,11.293.49,17.389,1.223l1.289.155,12.247-3.935,10.171-3.268c1.188-.381,3.989-.714,4.879-1.561,3.92-3.749-10.457-3.529-12.561-3.7l-10.52-.871q-3.624-.3-7.252-.582c-14.011-1.108-28.5-2.253-42.287-5.226-23.747-5.124-47.987-13.74-71.426-22.071-13.674-4.861-27.814-9.887-41.684-14.157-4.738-1.458-9.71-2.723-14.519-3.946a205.306,205.306,0,0,1-19.9-5.769l-.106-.04a87.156,87.156,0,0,1,13.646-2.767c52.457-6.314,141.941,8.593,184.132,30.674a115.3,115.3,0,0,1,24.666,17.331l2.577,2.373,8.87-2.966.49-.187a132.729,132.729,0,0,1,16.459-5.5l34.25-11.432-17.989-5.358c-.5-.148-.985-.316-1.478-.493l-19.5-6.96a348.016,348.016,0,0,1-36.229-13.966c-13.526-6.1-26.944-13.179-39.921-20.024-8.791-4.638-17.884-9.433-26.988-13.918-7.113-3.5-15.054-6.948-22.734-10.28-12.862-5.578-26.156-11.344-36.7-17.811q1.711-.225,3.9-.441c36.361-3.6,89.889,15.611,111.215,24.037q8.586,3.392,17.058,7.063a354.555,354.555,0,0,1,46.306,23.911c6.485,4.044,12.8,8.364,18.88,13a85.769,85.769,0,0,1,7.724,6.264c2.391,2.309,4.615,5.581,7.926,6.648,1.682.541,3.844-.378,5.6-.789l10.57-2.467.442-.121a130.874,130.874,0,0,1,13.816-3.611l12.566-2.523-10.057-7.946a45.369,45.369,0,0,0-4.833-3.225,29.4,29.4,0,0,1-4.188-2.853,55.206,55.206,0,0,1-4.157-4.251l.243.042-10.617-12.526c-5.7-6.72-11.088-13.979-16.3-21-5.3-7.138-10.786-14.518-16.737-21.564-25.145-29.774-54.455-50.8-95.039-68.165-1.4-.6-3.7-1.416-6.352-2.364-1.84-.657-4.669-1.667-7.25-2.658,6.914-2.232,16.017-1.813,19.665-1.646,15.225.7,30.385,4.35,44.626,9.681,12.678,4.746,23.879,12.163,36.51,16.9a54.794,54.794,0,0,1,11.262,6.411c-1.194-4.4-3.916-8.886-5.707-13.135-10.914-25.886-25.9-49.96-42.835-72.311-3.5-4.621-7.566-9.218-11.5-13.664-4.2-4.748-8.182-9.256-11.439-13.678Zm24.451,316.372c-.012-.623-.029-1.252-.046-1.887l-.239-9.377c0-.167-.009-.335-.015-.5l4.628-1.286a56.972,56.972,0,0,0-3.441,9.47Z" fill="#e1ceb5"/>
          <path id="Caminho_65" data-name="Caminho 65" d="M1723.588,1980.259a6.4,6.4,0,0,0,1.423,3.52c2.6,3.9,6.288,5.9,10.358,8.02a74.757,74.757,0,0,0,20.826,7.6c-9.295,8.89-22.786,12.252-35.615,14.318-7.435,1.2-15.352,2.909-22.788,1.788-2.68-.4-5.749-1.083-7.212-3.617a4.011,4.011,0,0,1-.6-3.385c.261-.657.859-1.171,1.072-1.819-1.7.11-2.763,2.195-3,3.663a7.854,7.854,0,0,0,1.2,5.439c1.924,2.863,5.6,3.743,8.818,4.156a82.114,82.114,0,0,0,20.513-.393,46.508,46.508,0,0,0-13.268,14.3,17.015,17.015,0,0,0-1.048,2.131c-.427.134-.856.265-1.284.394l-3.414,1.024c-1.763.528-3.617,1.113-5.459,1.537q-3.242.289-6.486.6a16.569,16.569,0,0,0-3.244.28c-.031.007-.056.028-.087.036-4.179.381-8.365.7-12.567.795-3.428.075-7.153-1.512-8.384-4.965a2.645,2.645,0,0,1-.137-.492,6.76,6.76,0,0,1-.048-2.194,5,5,0,0,1,.254-1.284,10.211,10.211,0,0,0-1.865,2.587,4.554,4.554,0,0,0-.41,3.014,6.045,6.045,0,0,0,1.458,3.1,6.141,6.141,0,0,0,1.277,1.1c.116.076,1.134.617,1.153.607a124.41,124.41,0,0,0-10.655,6.563,23.52,23.52,0,0,1,2.5-1.086c.576-.252,1.11-.5,1.688-.686.164-.054.332-.1.506-.147.871-.22,1.738-.45,2.6-.654.808-.191,1.612-.4,2.416-.605a50.85,50.85,0,0,1,9.9-1.912,56.609,56.609,0,0,1,15.683,1.358,5.347,5.347,0,0,0,1.975.16,10.5,10.5,0,0,0,3.05.136c.011.013.029.017.039.031.309.456-.24.887-.489,1.2a9.676,9.676,0,0,0-.827,1.33c-.5.9-1.006,1.792-1.51,2.686a6.406,6.406,0,0,0-.5.894c-2.72,4.779-5.57,9.445-8.7,14a34.044,34.044,0,0,1-6.42,7.472,26.08,26.08,0,0,1-3.386,2.26c-.591.339-1.19.662-1.792.98-.434.23-1.322.489-1.533.983a6.459,6.459,0,0,1,1.341-.345c.478-.141.952-.3,1.424-.456.944-.317,1.881-.655,2.84-.928.943-.269,1.875-.572,2.81-.869,1.082-.345,2.306-1.018,3.43-.436.8.414.655.94.806,1.67a4.8,4.8,0,0,0,.931,2.281,4.669,4.669,0,0,0,2.229,1.257c.571.17,1.179.29,1.764.435a4.807,4.807,0,0,0,.968.1,15.289,15.289,0,0,0,2.813-.244,21.426,21.426,0,0,0,6.405-1.666,6.853,6.853,0,0,1-2.14.265c-.629.054-1.206-.1-1.829-.05a12.531,12.531,0,0,1-2.138-.005,9,9,0,0,1-4.353-1.267c-1.2-.918-1.083-2.809-.773-4.114.831-3.509,2.759-6.644,4.658-9.709l3.921-6.333,1.585-2.558c.4-.646,2.808-3.745,3.822-5.637a34.483,34.483,0,0,1,5.253-4.446c.8-.547,1.626-1.048,2.468-1.524.416.1.836.2,1.253.276a43.656,43.656,0,0,0,16.139.534,41.874,41.874,0,0,0,7.592-2.2,54.238,54.238,0,0,0-11.535,13.835,15.867,15.867,0,0,0-2.154,5.2c-1.159,4.5-3.383,10.072-.474,14.4,1.531,2.277,4.778,2.624,7.2,1.93a6.51,6.51,0,0,1-5.023-5.842c-.371-3.244,1.437-5.436,2.507-8.235a28.261,28.261,0,0,1,5.034-8.563c9.512-10.807,21.958-18.592,35.248-23.91q5-2,10.167-3.575c1.155-.355,2.333-.726,3.507-1.1a36.462,36.462,0,0,0,6.838-2.03c-.373.4-.745.8-1.113,1.195a64.117,64.117,0,0,0-10.156,13.843,73.024,73.024,0,0,0-3.924,8.851,24.969,24.969,0,0,0-1.307,7.438c-.112,2.433-.579,4.844-.215,7.3a6.917,6.917,0,0,0,1,2.9,5.3,5.3,0,0,0,1.009,1.26c.25.209.99.427,1.14.651a9.6,9.6,0,0,1-1.572-5,16.147,16.147,0,0,1,.731-5.013,46.238,46.238,0,0,1,1.63-4.5c1.628-4.008,3.27-8.336,5.739-11.905a61.983,61.983,0,0,1,8.575-9.353l12.384-11.781c3.589-3.414,7.507-6.4,11.143-9.674-.21.057-.415.146-.627.186a6.069,6.069,0,0,1-1.959,1.07c-2.518.773-5.015-.37-6.806-2.114-.047-.045-.081-.1-.126-.147a59.873,59.873,0,0,0-5.744,4.712c-9.119,5.04-19.5,8.645-29.044,7.953-4.14-.3-8.611-.008-12.574-1.338-13.19-4.427,15.327-23.959,20.488-25.87a57.838,57.838,0,0,1,20.549-3.946c1.006.013,2.882.332,5.026.622,1.68-1.584,3.388-3.172,5.164-4.671a114.393,114.393,0,0,0-19.992,1.578,62.2,62.2,0,0,0-18.669,6.621,27.354,27.354,0,0,1-3.734.368,34.847,34.847,0,0,1-6.141-.559,66.185,66.185,0,0,1-11.647-3.375,50,50,0,0,1-7.108-3.153c-1.752-.987-3.207-2.312-4.971-3.289a9.438,9.438,0,0,1-3.649-3.531,10.11,10.11,0,0,1-.779-1.623,2.02,2.02,0,0,1,.371-2.439c.151-.114.31-.38.129-.434a.234.234,0,0,0-.135.014C1725.67,1976.534,1723.625,1978.573,1723.588,1980.259Zm19,33.514c-2.95,4.636-3.259,8.722,3.189,9.914,2.181.4,4.44.8,6.744,1.158-.045.026-.08.043-.126.07-2.44,1.433-4.863,2.9-7.3,4.338a70.178,70.178,0,0,1-11.089,5.729,31.35,31.35,0,0,1-10.5,2.013c-2.339.031-8.011.245-8.788-2.753-.642-2.472,3.866-5.649,5.47-7.044a73.261,73.261,0,0,1,9.374-6.764C1732.637,2018.515,1738.552,2016.247,1742.589,2013.773Z" fill="#e1ceb5"/>
          <g id="Grupo_49" data-name="Grupo 49">
            <path id="Caminho_66" data-name="Caminho 66" d="M2187.994,1855.692c1.963,3.32,3.027,7.5,2.121,13.072-1.4,8.6-7.25,11.249-11.953,13.378a19.787,19.787,0,0,0-5.964,3.545l-5.588-5.6a26.48,26.48,0,0,1,8.291-5.154c4.519-2.046,6.721-3.216,7.407-7.441,1.129-6.935-2.047-9.828-7.754-14.346-3.8-3.008-8.1-6.419-10.318-11.938-12.061-30.028-28.956-58.4-51.2-82.02-6.035-6.406-12.187-12.7-18.526-18.807-4.145-3.991-9.057-6.986-13.862-10.1-1.9-1.226-4.913-2.472-2.786-4.915,1.81-2.077,5.33-.975,7.36.014a22.943,22.943,0,0,1,2.174,1.348c2.174,1.388,4.292,2.864,6.372,4.389a178.014,178.014,0,0,1,19.354,16.594c20.636,20.261,37.043,44.64,49.636,70.6q4.761,9.814,8.818,19.948c1.441,3.57,4.571,6.055,7.891,8.684C2182.431,1849.3,2185.782,1851.953,2187.994,1855.692Z" fill="#e1ceb5"/>
          </g>
          <path id="Caminho_67" data-name="Caminho 67" d="M2197.018,1940.931s-27.405-34.589-48.156-52.489" fill="#e1ceb5"/>
          <g id="Grupo_50" data-name="Grupo 50">
            <path id="Caminho_68" data-name="Caminho 68" d="M2170.368,1877.028c2.031-.88,4.15-2.551,6.4-2.71.824,1.645.054,4.207-.031,5.985a10.26,10.26,0,0,1-2.29,6.155c-1.03,1.208-2.7,1.828-4.178,2.521-6.48,3.037-13.462,4.837-20.413,6.427-2.921.668-6.133,1.681-9.139,1.838-2.78.145-9.556-4.375-7.615-7.751,1.14-1.982,6.493-2.867,8.491-3.569,2.646-.929,5.324-1.99,8.053-2.656a150.062,150.062,0,0,0,14.518-4.161C2166.209,1878.384,2168.392,1877.884,2170.368,1877.028Z" fill="#e1ceb5"/>
          </g>
          <g id="Grupo_51" data-name="Grupo 51">
            <path id="Caminho_69" data-name="Caminho 69" d="M2027.293,1910.96a14.183,14.183,0,0,1,1.776,4.981c1.745,10.673-6.971,15.51-13.335,19.042-1.059.588-2.1,1.168-3.091,1.763-8.325,5.03-17.592,10.04-29.166,15.768-18.794,9.3-39.673,18.423-65.706,28.7-27.509,10.865-54.562,20.617-80.408,28.986l-2.435-7.524c25.687-8.317,52.583-18.013,79.937-28.817,25.824-10.2,46.512-19.235,65.1-28.437,11.371-5.628,20.453-10.537,28.585-15.449,1.067-.645,2.2-1.274,3.343-1.909,6.943-3.854,10.13-6.179,9.366-10.851-1.118-6.915-13.7-8.238-21.095-8.411-46.009-1.07-92.017,18.878-126.959,36.375l-3.4,1.7c-17.948,8.954-36.041,18.687-51.138,31.88-2.854,2.494-3.882.659-6.588-1.529,14.09-17.42,34.479-27.592,54.2-37.428l3.39-1.693c35.76-17.908,82.931-38.32,130.683-37.209C2014.508,1901.231,2023.536,1904.608,2027.293,1910.96Z" fill="#e1ceb5"/>
          </g>
          <g id="Grupo_52" data-name="Grupo 52">
            <path id="Caminho_70" data-name="Caminho 70" d="M2282.09,1734.961q.7.193,1.408.413a10.323,10.323,0,0,0,3.008.662c1.886,0,3.708-1.176,5.558-.808a4.659,4.659,0,0,1,3.23,3.141c1.074,3.021-.062,6.271,1.991,9.063a4.093,4.093,0,0,0-4.768-.726c-1.013.542,6.656,10.046,7.436,10.73a68.01,68.01,0,0,0-13.436,4.566,81.943,81.943,0,0,0-11.054,5.865c-1.734,1.133-1.979,1.474-3.043-.307-.686-1.148-1.332-2.323-2-3.483-.717-1.25-2.607-3.444-2.024-4.671.811-1.7,3.74-2.354,5.259-3.186,2.7-1.475,5.431-2.909,8.234-4.245,3.071-1.463,6.211-1.551,8.336-4.573a2.674,2.674,0,0,0-1.418-2.134,7.3,7.3,0,0,0-2.551-.762c-6.453-1.041-12.918-.3-19.423-.753-9.114-.633-17.483-.682-26.4,1.212a80.455,80.455,0,0,0-16.338,5.146c-2.22,1.008-6.154,4.778-7.257.67-.435-1.623-.774-5.147.018-6.679.983-1.9,4.734-2.715,6.627-3.39a129.168,129.168,0,0,1,29.55-6.735C2262.9,1732.919,2272.515,1732.31,2282.09,1734.961Z" fill="#e1ceb5"/>
          </g>
          <path id="Caminho_71" data-name="Caminho 71" d="M2249.907,1704.9s34.021,30.182,64.608,31.3" fill="#e1ceb5"/>
        </g>
      </g>
      <g id="Grupo_2" data-name="Grupo 2">
        <g id="Grupo_60" data-name="Grupo 60">
          <path id="Caminho_72" data-name="Caminho 72" d="M41.936,1354.844" fill="#e1ceb5"/>
          <g id="Grupo_55" data-name="Grupo 55">
            <path id="Caminho_73" data-name="Caminho 73" d="M33.545,1288.458c5.119,4.424,10.391,8.636,15.455,13.124,4.5,3.987,9.259,7.2,12.778,12.116a8.628,8.628,0,0,1,1.473,2.683c1.4,5.2-12.6,5.1-15.535,5.169a72.143,72.143,0,0,1-16.055-1.488c-5.546-1.133-11.078-2.324-16.611-3.5-.307.524.176.576.268,1a4.984,4.984,0,0,1-.074,1.951c-.059.373-.7,4.48-.705,4.48a11.937,11.937,0,0,1,6.662,3.451c6.235,6.427,9.831,16.777,12.164,25.244.757,2.746,1.128,6.414,2.458,8.92,1.062,2,1.622,1.739,3.944,2l7.763.884c.412-3.609-.718-6.69-1.627-9.167a25.321,25.321,0,0,1-.859-2.6c-.133-.56-.218-1.129-.31-1.7-.148-.923-.3-1.845-.528-2.753a28.067,28.067,0,0,0-1.982-5.175,21.015,21.015,0,0,1-1.152-2.778,32.164,32.164,0,0,0-4.738-10.435c.874.133,1.757.271,2.636.408,12.936,2.023,30.675,4.8,36.56-9.173,1.333-3.153,2.212-9.433-6.868-16.067l-12.914-9.433c7.149-.928,14.927-3.866,23.472-8.839a115.951,115.951,0,0,0,15.054-10.213l-7.5-9.191a104.257,104.257,0,0,1-13.524,9.151c-6.062,3.529-12.79,6.749-19.866,7.423a84.028,84.028,0,0,1-8.76.606c-.94-.012-11.034-2.354-10.572-3.055a32.341,32.341,0,0,1-2.328,3.253c-.8.942-.673,1.524.36,2.432Q32.813,1287.826,33.545,1288.458Z" fill="#e1ceb5"/>
          </g>
          <path id="Caminho_74" data-name="Caminho 74" d="M-164.048,930.78c-63.84,9.211-104.991,90.947-115.929,140.3-.043.19-.117.595-.22,1.179-.844-7.231-1.613-14.566-2.027-21.779-1.78-30.965,1.242-62.136,8.505-87.77.981-3.456,2.146-6.844,3.381-10.431,2.262-6.574,4.6-13.371,5.705-20.625l.561-3.679-3.071-2.105c-7.73-5.3-16.75,1.024-21.086,4.062-42.679,29.9-45.864,108.239-45.255,140.532q.047,2.538.112,5.123c.039,1.618.09,3.242.143,4.864A251.107,251.107,0,0,0-330,1115.763c.122.714.245,1.435.378,2.159,0,.462.01.923.031,1.381.547,12.015,5.156,22.253,9.615,32.153.557,1.239,1.117,2.481,1.669,3.731-9.177-1.653-18.425-2.933-27.434-4.18-3.157-.438-6.364-.881-9.578-1.343,1.73-2.4,2.819-5.142,2.308-8.034a7.264,7.264,0,0,0-5.394-6.083c-2.882-.849-6.76-.029-17.742,3.036-2.224.621-4.524,1.263-5.494,1.457-11.3,2.27-23.9,3.02-35.831,3.494-19.191.761-38.816.354-57.793-.039-10.632-.221-21.544-.447-32.426-.47q.261-.417.548-.869l.175-.273c12.4-19.594,29.475-40,44.568-53.251l.6-.533c1.243-1.109,2.225-1.949,3-2.581,12.6,11.267,30.628,18.341,46.329,17.9,6.871-.19,15.449-1.843,17.309-8.617a9.274,9.274,0,0,0-.4-5.633c13.664.894,28.665.724,41.173-5.076,9.175-4.259,13.1-9.11,11.654-14.423-.731-2.693-2.734-4.893-5.662-7.021,5.932-1.585,11.338-3.991,13.653-8.962l.244-.526.138-.563c1.371-5.611-3.727-10-5.322-11.207a40.6,40.6,0,0,0-6.88-4.168c2.966-2.584,5.035-5.622,4.482-9.538-.888-6.293-8.139-8.412-10.522-9.108-7.006-2.047-14.983-2.325-22.565-1.835l.177-.273c1.748-2.715,4.15-6.425,2.682-10.685-.637-1.844-2.255-4.339-6.34-5.749-6.669-2.3-25.914,1.827-26.1,1.872a107.279,107.279,0,0,0-25.849,9.986,10.151,10.151,0,0,0-2.547-6.282,8.631,8.631,0,0,0-7.286-2.594,27.226,27.226,0,0,0-7.387,1.813c-2.253.894-3.394,2.669-4.978,4.536a.755.755,0,0,1-.379.289c-.334.074-.575-.295-.772-.576a3.42,3.42,0,0,0-3.04-1.27,8.139,8.139,0,0,0-3.234,1.111c-6.138,3.3-10.013,8.93-13.7,14.606a38.12,38.12,0,0,0-6.294,20.631,25.788,25.788,0,0,0,.964,6.615,16.839,16.839,0,0,1,.637,3.691c.037,3.6-1.736,7.038-3.335,9.409-3.971,4.08-8.574,8.135-12.608,11.6-1.065.734-2.139,1.458-3.211,2.183a111.064,111.064,0,0,0-11.589,8.583c-7.312,6.442-12.651,14.369-17.813,22.034-2.553,3.789-4.962,7.369-7.6,10.792-4.007,5.2-8.706,11.113-13.78,15.528-3.379,2.936-8.194,4.437-13.291,6.026l-1.782.559c-13.447,4.256-27.658,7.154-41.4,9.956l-.2.041c-1.8.369-3.7.648-5.7.943-2.572.379-5.227.771-7.85,1.382a15.166,15.166,0,0,0-4.807,1.3c-.291.15-.552.3-.806.459a21.743,21.743,0,0,0-10.658,8.906l-.631,1.018q-.975,1.562-1.847,3.031c-3.947,6.673-6.2,11.993-5.595,16.427a41.974,41.974,0,0,0-.241,16.722c.916,4.3,2.422,8.964,6.642,10.955,4.276,2.016,8.24-.044,11.424-1.7,1.1-.571,2.238-1.163,3.409-1.637,17.48-7.074,38.011-13.655,57.745-8.824.437.108,2.028.645,3.19,1.039,7.7,2.6,10.5,3.432,13.309,2.123,4.677-2.175,5.2-7.993,4.761-11.091a8.437,8.437,0,0,0-.242-1.133c7.961-1.351,15.883-2.5,23.628-3.44l2.256-.276c9.274-1.138,37.5-4.6,44.469-2.5,3.828,1.151,7.664,3.274,11.725,5.522,5.626,3.115,11.444,6.336,18.19,7.527l.888.156.892-.114a7.375,7.375,0,0,0,6.122-4.949c.835-2.356.509-5.245-.31-8.016,28.018-.444,57.988,2.316,91.289,8.392,1.45.458,2.784.812,4.066,1.082,1.571.33,3.1.561,4.581.785,1.007.152,2.013.3,3.014.487a43.907,43.907,0,0,1,6.212,1.627l2.491.852a23.274,23.274,0,0,1-2.2,1.307,200.091,200.091,0,0,0-21.584,12.684l-2.9,1.87a155.748,155.748,0,0,0-21.409,16.434l-.346.292c-.3.26-.607.522-.906.788-1,.885-1.95,1.747-2.891,2.621l-.178.167c-.916.851-1.791,1.683-2.658,2.523l-1.311,1.3c-.49.483-.981.966-1.464,1.457l-.939.981c-.594.613-1.188,1.228-1.773,1.852l-.7.768c-3.217,3.484-6.271,7.1-9.066,10.737a35.657,35.657,0,0,0-4.7,6.469l-.907,1.344a144.115,144.115,0,0,0-13.791,25.8c-.678,1.655-1.335,3.32-1.954,5.01-7.973,21.813-13.328,58.735-7.553,84.2.593,2.61,3.879,15.8,10.523,19.1a8.044,8.044,0,0,0,7.016.16c4.241-1.921,6.515-7.206,12.166-28.268.644-2.4,1.2-4.466,1.509-5.436a262.332,262.332,0,0,1,37.589-74.649,273.359,273.359,0,0,0-14.807,69.839c-.836,10.46-4.036,63.672,15.07,84.068,3.8,4.056,7.607,5.572,11.316,4.505,5.966-1.713,7.319-8.643,8.4-14.213.162-.828.316-1.631.483-2.368,2.171-9.724,3.921-19.513,5.612-28.982,2.5-14,5.089-28.481,9.06-42.7,5.8-20.75,13.714-41.034,21.368-60.651,5.077-13.009,10.328-26.46,14.958-40.023l-5.049-1.723.275.006,4.8,1.633.415-1.217c.29-.847.582-1.693.863-2.544.144-.433.275-.861.4-1.289l.2-.636a23.723,23.723,0,0,0,.985-2.5c.724-2.358,1.4-4.779,2.06-7.4,1-3.467,1.852-6.571,2.6-9.479l.565-1.836c.56-1.811,1.123-3.631,1.655-5.487a52.815,52.815,0,0,0,1.361-6.894c0-.023.006-.044.01-.066l9.978,4.2a75.985,75.985,0,0,0-13.948,32.324c-3.969,12.055-6.791,25.43-9.124,43.206-1.918,14.617-3.32,31.738-3.952,48.208-.351,9.137-2.771,90.1,19.757,118.927l.428.566c4,5.343,8.327,6.785,12.874,4.287l.768-.423.614-.626a13.618,13.618,0,0,0,3.3-6c.916-3.226,1.278-8.6,1.623-14.775.054-.958.1-1.827.15-2.551.632-9.594,1.143-19.09,1.636-28.272,1.366-25.41,2.656-49.41,6.317-75.181.971-6.842,2.208-13.879,3.549-21.216,1.2,42.233,7.653,83.875,18.9,121.485,3.792,12.68,11.51,35.343,20.573,44.642,1.931,1.981,7.061,7.242,12.734,5.064,5.627-2.162,5.885-8.742,6.116-14.545.027-.668.052-1.333.087-1.98.921-17.519.087-35.827-.718-53.532-.464-10.173-.942-20.692-1.064-30.742-.129-10.776.084-21.706.291-32.278.387-19.887.786-40.248-1.076-60.725,2.744,10.555,6.016,20.553,9.025,29.35,13.334,38.977,45.123,113.613,79.692,146.118,11.283,10.609,15.89,10.579,19.191,8.966l.629-.309.542-.446c5.369-4.446,3.615-12.188,2.673-16.349l-.131-.589c-3.259-14.671-9.383-30.552-15.306-45.91-4.026-10.441-7.83-20.3-10.8-29.795-3.469-11.087-6.639-22.416-9.7-33.372-4.747-16.966-9.6-34.31-15.741-51.37,3,3.965,5.777,7.314,9.072,10.961,3.31,3.663,5.633,8.076,8.695,11.93,4.806,6.05,10.006,11.84,15.334,17.433,18.253,19.16,43.43,42.446,67.349,62.29,7.039,5.84,15.063,11.2,21.211,6.71,5.263-3.845,5.036-11.939-.745-26.236-6.283-15.531-15.6-29.923-23.765-41.981,1.368,1.025,2.674,1.983,3.958,2.9l.224.16c3.961,2.842,9.945,7.136,16.5,11.509l.21.14q2.872,1.915,5.793,3.777l2.555,1.638c8.1,5.216,17.283,11.127,27.066,12.765a12.792,12.792,0,0,0,7.575-.975,9.494,9.494,0,0,0,5.96-5.7,18.379,18.379,0,0,0,1.8-5.045l.6.532q1.333,1.169,2.674,2.305c.773.658,1.563,1.309,2.352,1.959l.41.335c3.709,3.032,7.231,5.661,10.766,8.042l.188.123c1.422.951,2.795,1.828,4.187,2.676.7.431,1.424.864,2.149,1.285.477.275.946.544,1.42.807,1.257.7,2.525,1.386,3.806,2.027,11.835,5.913,16.6,4.5,19.151,2.927a10.292,10.292,0,0,0,1.067-.764,6.022,6.022,0,0,0,.551-.424,10.6,10.6,0,0,0,2.1-2.5,12.217,12.217,0,0,0,1.155-2.282q.873.549,1.741,1.085A165.364,165.364,0,0,0,123.9,1396.3a53.176,53.176,0,0,0,11.784,3.89,14.418,14.418,0,0,0,4.547.187,10.753,10.753,0,0,0,8.493-5.12A85.679,85.679,0,0,0,162.4,1401.1a26.781,26.781,0,0,0,7.977,2.094l.49.068a17.523,17.523,0,0,0,3.341.222,10.4,10.4,0,0,0,2.151-.274l.483-.114c.524-.12,1.048-.244,1.551-.4a10.294,10.294,0,0,0,4.981-3.016,8.694,8.694,0,0,0,.871-1.174c.347.109.692.212,1.039.311l.916.261c6.32,1.808,12.853,3.676,19.9,3.734,4.857.041,14.965.124,20.34-6.608,3.748-4.687,1.925-12.432.446-15.875-2.423-5.642-11.975-16.664-17.035-19.658l-1.316-.778q-1.2-.788-2.351-1.509a11.81,11.81,0,0,0,.636-2.456,10.191,10.191,0,0,0-1.294-7.082c-.1-.161-.2-.323-.3-.485a13.709,13.709,0,0,0-2.107-2.837,30.448,30.448,0,0,0-5.762-5.056,89.044,89.044,0,0,0-17.459-9.421c.009-.069.016-.142.026-.215a13.273,13.273,0,0,0-.036-3.652,10.679,10.679,0,0,0-5.039-7.627c-5.217-4.719-13.613-8.152-17.311-9.664a131.307,131.307,0,0,0-15.427-4.917,12.181,12.181,0,0,0,1.655-3.413,9.659,9.659,0,0,0,.661-3.655c-.1-4.378-3.837-8.311-7.384-9.616-6.357-3.588-17.286-5.963-27.106-7.921l-1.437-.287c-2.442-.489-5.233-1.21-8.187-1.973-1.961-.507-4-1.033-6.041-1.544.949-.773,3.834-3.125,4.077-6.839a7.8,7.8,0,0,0-1.813-5.483c-2.017-3.128-6.133-5.333-13.489-7.271-.833-.244-1.816-.509-2.788-.762-1.4-.366-2.767-.691-4.035-.994l-2.163-.507q-1.557-.367-3.136-.718l-1.988-.432q-1.37-.289-2.749-.567l-2.1-.421c-1.2-.232-2.4-.453-3.615-.674l-1.707-.307q-2.064-.361-4.162-.707l-.742-.119c-3.137-.506-6.227-.964-9.324-1.393l-1.746-.239q-4.233-.567-8.412-1.054l-2.63-.3q-2.771-.309-5.5-.59c20.873-6.667,21.987-10.784,22.654-13.281l.254-.94L49.1,1232c-.565-8.962-10.363-11.33-15.626-12.6-.644-.155-1.247-.3-1.781-.444-17.6-4.77-40.068-7.914-68.682-9.609-10.5-.623-19.983-.933-28.808-.934,12.4-3.959,24.72-8.336,36.825-12.639,13.556-4.818,27.574-9.8,41.2-13.995,4.457-1.373,9.068-2.547,13.953-3.789a213.466,213.466,0,0,0,21.072-6.134c3.506-1.29,12.815-4.721,11.932-12.308-.789-6.741-10.261-11.251-28.153-13.407-49.9-6.007-142.2,6.377-191.052,31.94a127.486,127.486,0,0,0-24.57,16.761l-2.036-.681a142.539,142.539,0,0,0-17.266-5.8l4.838-1.728a358.648,358.648,0,0,0,37.295-14.383c13.858-6.253,27.441-13.417,40.577-20.346,8.72-4.6,17.738-9.357,26.694-13.769,6.856-3.378,14.315-6.613,22.214-10.038,13.436-5.828,27.33-11.854,38.685-18.891,3.217-1.993,10.752-6.661,9.19-13.381-1.622-6.986-10.653-7.88-18.621-8.669-37.54-3.714-89.256,13.948-116.742,24.809q-8.33,3.291-16.555,6.838a372.515,372.515,0,0,0-46.874,23.957c-6.624,4.06-13.085,8.39-19.321,13.024-2.821,2.095-5.714,4.163-8.405,6.382-2.434,2.007-4.985,5-8.492,4.626a61.3,61.3,0,0,1-7.146-1.667q-1.01-.318-2.006-.619c1.647-1.535,3.105-3.139,4.52-4.7,9.733-10.732,18.54-22.495,27.179-34.122,5.194-6.991,10.565-14.221,16.277-20.985,24.215-28.671,51.323-48.083,90.643-64.911,1.066-.456,3.3-1.254,5.672-2.1,11.237-4.009,15.33-5.732,17.419-8.033a9.827,9.827,0,0,0,2.322-5.389l.418-2.85-1.982-2.091c-8.614-9.087-24.175-9.467-35.129-8.962-21.4.989-46.767,8.135-67,18.79a345.906,345.906,0,0,1,33.15-52.227c3.231-4.264,7.144-8.692,10.929-12.971a194.836,194.836,0,0,0,13.193-16.014c1.593-2.253,5.812-8.244,2.578-13.52C-151.7,929-159.128,930.07-164.048,930.78ZM-450.3,1077.609l-.067-.054c2.063-.92,5.8-2.157,12.395-3.25,4.48-.741,12.822-6.638,12.914-13.094.131-8.848-11.629-9.321-17.9-10.43-3.414-.6-7.451-.679-9.676-3.542-2.756-3.546-1.851-11.275-.757-15.222,1.476-5.326,4.1-12.14,7.262-16.617a2.2,2.2,0,0,0,.571-1.373c0-.022-.017-.041-.02-.063a3.421,3.421,0,0,1,1.992-.706c.959.174,1.378,1.3,1.551,2.262.393,2.194-1.94,17.352,5.531,12.019l1.258-.9c12.314-8.775,27.483-14.2,42.134-17.278,1.006-.212,2.288-.315,2.831.558a2.484,2.484,0,0,1-.325,2.408c-4.588,8.44-13.186,13.88-19.806,20.591l18.376-3.283a140.787,140.787,0,0,1,16.645-2.117c4.824-.277,9.769-1.662,14.6-.775,4.938.906,5.183,4.141.822,6.582-1.714.959-10.7,4.313-11.16,6.328-.653,2.862,6.525,3.217,8.394,3.791,3.542,1.088,10.572,2.308,12.1,6.109a1.407,1.407,0,0,1,.125.879c-.12.441-.577.688-.994.875-4.871,2.177-10.246,2.9-15.535,3.6-2.8.37-5.75.72-8.424-.415,1.945,1.162,3.6,1.777,3.776,4.42.029.435-.656,3.073-.6,3.108l3.553,2.352c3.391,2.244,7.053,3.253,9.821,6.336-.655,1.609-2.509,2.311-4.173,2.808a109.937,109.937,0,0,1-12.781,3.048c-4.787.821-10.179.238-15.063.058-5.476-.2-10.936-.691-16.392-1.181l-21.882-1.939,15.289,12.264a30.546,30.546,0,0,1,4.109,4.266,27.363,27.363,0,0,1-4.7.52c-8.488.232-17.011-2.2-24.587-5.906A60.7,60.7,0,0,1-450.3,1077.609Zm287.006-136.2c-3.257,4.423-7.243,8.931-11.44,13.679-3.93,4.445-7.993,9.043-11.5,13.664-16.933,22.351-31.922,46.425-42.835,72.31-1.791,4.25-4.513,8.732-5.707,13.136a54.7,54.7,0,0,1,11.262-6.411c12.631-4.74,23.831-12.158,36.51-16.9,14.241-5.331,29.4-8.981,44.626-9.681,3.648-.168,12.751-.587,19.664,1.646-2.58.991-5.409,2-7.249,2.658-2.656.947-4.95,1.764-6.352,2.364-40.584,17.369-69.894,38.391-95.039,68.164-5.952,7.047-11.436,14.426-16.737,21.565-5.215,7.02-10.608,14.279-16.3,21l-10.617,12.527.243-.043a54.866,54.866,0,0,1-4.157,4.251,29.319,29.319,0,0,1-4.189,2.854,45.551,45.551,0,0,0-4.833,3.225L-298,1169.356l12.566,2.524a130.7,130.7,0,0,1,13.816,3.611l.442.121,10.569,2.467c1.762.411,3.924,1.33,5.606.788,3.311-1.066,5.535-4.338,7.926-6.648a85.573,85.573,0,0,1,7.724-6.263c6.079-4.633,12.4-8.953,18.88-13a354.409,354.409,0,0,1,46.306-23.911q8.466-3.682,17.058-7.064c21.326-8.426,74.853-27.634,111.215-24.036q2.187.216,3.9.44c-10.548,6.468-23.842,12.234-36.7,17.812-7.68,3.331-15.622,6.776-22.735,10.28-9.1,4.484-18.2,9.279-26.987,13.917-12.977,6.845-26.4,13.924-39.921,20.025a348,348,0,0,1-36.229,13.965l-19.5,6.961c-.493.176-.983.345-1.479.493l-17.988,5.358,34.25,11.432a132.762,132.762,0,0,1,16.459,5.5l.49.188,8.87,2.965,2.576-2.372a115.26,115.26,0,0,1,24.666-17.331c42.192-22.081,131.676-36.988,184.132-30.674a87.286,87.286,0,0,1,13.647,2.766l-.107.04a204.933,204.933,0,0,1-19.9,5.769c-4.809,1.224-9.781,2.488-14.52,3.946-13.869,4.27-28.009,9.3-41.683,14.157-23.439,8.332-47.679,16.948-71.426,22.072-13.787,2.973-28.276,4.118-42.287,5.225q-3.627.288-7.252.583l-10.52.871c-2.1.174-16.481-.046-12.561,3.7.89.848,3.691,1.18,4.879,1.562l10.171,3.268,12.247,3.935,1.289-.155c6.1-.734,12.358-1.005,17.389-1.224,2.986-.129,5.565-.241,7.628-.423,2.529-.224,5.062-.4,7.594-.576,4.866-.34,9.9-.69,14.918-1.375l2.381-.338a67.273,67.273,0,0,1,8.88-.9c.842-.009,1.683.03,2.521.091l.828,0a385.9,385.9,0,0,1,48.576.273c27.793,1.647,49.473,4.66,66.279,9.215.631.171,1.34.344,2.1.526s1.943.471,3.125.816a123.572,123.572,0,0,1-13.046,4.74c-5.771,1.78-11.981,2.464-17.662,4.409-4.738,1.622-9.553,1.833-14.493,2.854l-9.809,2.027c-2.511.519-17.455,2.233-10.808,5.634,5.926,3.033,14.271,2.891,20.833,4,5.516.929,11.05,1.312,16.4,1.684l1.267.088c3.7.26,6.791.491,9.916.887l1.74.265c15.16,2.254,30.784,3.3,45.7,6.3q1.323.266,2.625.54l1.9.412c1,.222,1.987.448,2.967.68l2.137.5c2.145.512,8.085.94,9.056,3.336,2.089,5.165-14.639,10.65-17.394,12.2a23.1,23.1,0,0,1-5.827,2.771c-1.421.328-3.065-.134-3.769,1.484,3.837,1.749,9.206-.07,13.286-.141l9.762-.17c9.082-.159,18.1,1.514,26.925,3.505,4.39.99,8.747,2.28,13.164,3.133,4.555.88,9.273,1.036,13.051,4.108.486.4.983,1.021.707,1.583a1.492,1.492,0,0,1-.551.53c-1.152.775-2.065,1.742-3.191,2.513l-.327.242c-1.614,1.2-4.112,3.928-3.907,6.137.26,2.808,3.529,2.555,5.789,3.082a93.642,93.642,0,0,1,18.976,6.65,83.591,83.591,0,0,1,8.812,5.2c3.141,1.991,6.562,3.1,9.259,5.816l.836.84a2.223,2.223,0,0,1-.22.68c-.017.016-.065.067-.113.118l-6.169,6.608,8.516,3.029a85.074,85.074,0,0,1,20.357,10.142c.9.637,5.656,3.849,5.215,4.954a2.053,2.053,0,0,1-1.375,1,10.233,10.233,0,0,0-4.689,2.537l-2.723,2.441,7.337,4.029c2.43,1.334,5.009,2.9,7.883,4.782l1.664.99c2.983,1.765,10.719,10.743,12.172,14.127a11.787,11.787,0,0,1,.817,4.169c-2.211,1.841-8.462,1.79-10.6,1.772-5.429-.045-10.92-1.615-16.732-3.276l-.933-.267c-.54-.153-1.067-.323-1.6-.491l-.33-.1a19.879,19.879,0,0,0-5.354-1.094l-.995.086a7.509,7.509,0,0,0-2.307.729,7.423,7.423,0,0,0-2.074,1.58l-.558.69-.276.458a6.959,6.959,0,0,0-.69,1.511c-.077.264-.139.516-.188.767l-.435.09a7.077,7.077,0,0,1-1.207-.117l-.6-.082c-8.379-1.1-16.886-5.948-24-10.26l-9.8-5.94.807,11.431a4.506,4.506,0,0,1-.2,1.94,2.4,2.4,0,0,1-.709-.048l-.385-.071c-2.755-.416-6.426-1.973-9.105-3.11a153.728,153.728,0,0,1-20.759-10.912c-3.167-1.957-6.408-4.07-9.91-6.462-1.854-1.266-8.868-7.619-10.9-6.694a1.674,1.674,0,0,0-.822,1.493,7.115,7.115,0,0,0,.96,3.23,38.267,38.267,0,0,1,2.926,9.213,5.737,5.737,0,0,1,.088,2.239c-.709,3.248-7.346-.729-9.04-1.576-1.12-.559-2.231-1.161-3.336-1.778-.423-.236-.836-.471-1.247-.709-.636-.369-1.275-.753-1.911-1.142q-1.892-1.152-3.707-2.369l-.174-.114c-3.285-2.21-6.516-4.625-9.934-7.418l-.393-.322c-.73-.6-1.472-1.212-2.2-1.834-.854-.723-1.693-1.447-2.527-2.179l-1.013-.9q-1.124-1-2.222-2l-.47-.422c-1.56-1.428-3.134-2.826-4.7-4.215-1.543-1.373-3.079-2.736-4.584-4.117q-4.193-3.846-8.389-7.69c-1.187-1.088-4-4.643-4.828-2.287-.837,2.388,2.312,7.459,2.782,9.908.575,3,1.4,5.954,2.052,8.945l1.107,5.126a9.32,9.32,0,0,1,.413,4.258c-1.062,4.193-9.627-.593-11.822-1.684A133.9,133.9,0,0,1,9.545,1354.4l-2.611-1.674c-1.878-1.193-3.736-2.409-5.552-3.618l-.249-.166c-6.369-4.251-12.256-8.474-16.152-11.27l-.224-.161c-2.756-1.976-5.641-4.149-9.08-6.839s-7.092-5.633-11.507-9.273l-5.106-4.222c-3.433-2.84-6.866-5.674-10.338-8.458q-2.622-2.106-5.281-4.172l-36.663-28.423,54.365,70.486c10.721,15.741,19.409,29,25.5,44.065a62.529,62.529,0,0,1,3.2,9.779,56.7,56.7,0,0,1-5.09-3.83c-23.585-19.567-48.383-42.5-66.336-61.344-6.4-6.719-12.582-13.749-18.41-20.942l-.982-1.212c-9.136-11.275-17.139-23.388-26.611-34.48-1.142-1.339-2.3-2.668-3.459-4-2.731-3.132-5.309-6.089-7.721-9.205-8.03-10.371-15.762-20.854-25.313-29.886-.982-.929.444,3.663.413,3.554a36.648,36.648,0,0,0,2.322,5.324q2.936,6.374,5.875,12.745,3.312,7.188,6.626,14.377a84.117,84.117,0,0,1,3.679,9.447l.282.715c11.482,24.358,18.5,49.436,25.926,75.986,3.089,11.041,6.284,22.459,9.806,33.716,3.084,9.86,7.135,20.364,11.053,30.522,5.765,14.95,11.727,30.41,14.793,44.213l.1.425c-1.042-.863-2.159-1.845-3.293-2.91-32.877-30.914-63.613-103.373-76.592-141.315-4.05-11.838-8.585-25.885-11.524-40.319l-.191-.712-.267-.751c-.071-.2-.145-.4-.209-.6a67.8,67.8,0,0,1-3.1-19.522c-.02-1.7.025-3.4.069-5.088l.242-9.447a13.7,13.7,0,0,1,.348-3.33l.25-1.2.015-.394.342-4.833-4.68-1.11-23.432-6.513-2.444,2.406a6.563,6.563,0,0,0-1.235,8.524c.633,1.869,1.262,3.7,1.888,5.52l.255.642c.449.967.9,1.944,1.341,2.921l-.272-.007,2.527,7.951a159.782,159.782,0,0,1,4.479,16.83c5.656,27.855,5.124,55.132,4.56,84.011-.209,10.662-.423,21.689-.292,32.651.123,10.248.607,20.869,1.074,31.139.794,17.419,1.614,35.432.722,52.369-.034.675-.062,1.368-.091,2.061-5.789-7.511-12.06-24.158-16.207-38.018-12.637-42.253-19.063-89.776-18.583-137.43.064-6.469.256-12.762.572-18.705l.06-1.086-.272-.845a18.64,18.64,0,0,1,.023-2.03c.019-.412.032-.753.032-.985a57.88,57.88,0,0,1,1.166-11.547c.317-1.556.61-3.117.893-4.68l.045-.286c.675-5.172,1.536-10.3,2.555-15.238.64-3.68,1.486-8.269,2.66-12.844l1.522-2.487-1.515-2.961a8.255,8.255,0,0,0-4.074-3.7c-.267-.131-11.9-4.694-15-4.475a6.531,6.531,0,0,0-5.242,2.787,6.144,6.144,0,0,0-.739,5.443l.209.663.357.6c1.417,2.371,1.7,6.918,1.908,10.237l.068,1.057c.224,3.41.453,6.866.559,10.312l-1.228,16.252c-1.128,14.909-4.03,30.655-6.837,45.882-1.768,9.594-3.439,18.654-4.7,27.528-3.734,26.285-5.038,50.537-6.418,76.212-.491,9.149-1,18.608-1.627,28.132-.05.756-.1,1.664-.157,2.666-.109,1.933-.269,4.79-.5,7.333-14.3-22.922-16.32-78.035-15.165-108.171.618-16.117,1.99-32.852,3.86-47.119,2.281-17.378,5.017-30.26,8.873-41.769,0,0,6.628-19.785,6.612-19.773a79.677,79.677,0,0,1,10.716-15.029c1.392-1.592,4.425-3.6,2.963-5.707-.741-1.071-3.709-1.711-4.9-2.214l-14.456-6.088c-7.81-3.289-15.274-4.831-23.423-7.071-.691-.19-1.592-.306-1.975.3-.414.654.189,1.457.722,2.018,3.537,3.725,5.212,7.393,4.462,12.363a43.17,43.17,0,0,1-1.034,5.385c-.508,1.774-1.048,3.518-1.584,5.254l-.686,2.249c-.737,2.86-1.577,5.928-2.574,9.376l-.053.2c-.5,1.972-1,3.814-1.523,5.595l-.765,2.221c-.084.187-.174.386-.266.594l-.218.57c-.117.365-.228.731-.341,1.1-.1.34-.206.678-.316,1.017-.269.807-.547,1.618-.824,2.428l-.452,1.314c-4.546,13.321-9.749,26.65-14.779,39.543-7.763,19.887-15.789,40.452-21.744,61.773-4.122,14.76-6.762,29.523-9.313,43.8-1.669,9.345-3.395,19.007-5.511,28.482-.188.834-.365,1.744-.55,2.681-.137.706-.321,1.647-.529,2.587-11.936-14.924-12.445-53.029-10.792-73.729,2.917-36.517,13.157-71.5,29.616-101.169l4.828-8.7c-.9,1.516-7.543-2-8.772-1.8a4.807,4.807,0,0,0-2.554,1.79q-4.65,5.106-9.543,9.985c-3.407,3.4-6.924,6.468-9.959,10.242-4.508,5.606-9.481,10.7-13.587,16.614q-6.3,9.06-11.822,18.623a279.977,279.977,0,0,0-24.11,54.661c-.4,1.242-.96,3.333-1.669,5.982-.926,3.447-2.867,10.684-4.624,15.907a47.336,47.336,0,0,1-2.055-6.444c-5.082-22.4-.369-57,7.123-77.5.567-1.549,1.173-3.074,1.792-4.592a132.4,132.4,0,0,1,12.663-23.684l1.161-1.7.164-.307a24.854,24.854,0,0,1,3.424-4.667l.292-.353c2.614-3.411,5.479-6.809,8.518-10.1l.63-.692c.543-.581,1.089-1.144,1.635-1.706l.9-.937c.418-.427.864-.866,1.31-1.305l1.243-1.236q1.217-1.18,2.455-2.33l.165-.158c.9-.829,1.782-1.632,2.676-2.424l1.336-1.157a144.408,144.408,0,0,1,19.908-15.288l2.927-1.888c6.575-4.244,13.374-8.635,20.289-11.96a40.51,40.51,0,0,0,4.493-2.68c1.753-1.148,4.688-3.069,5.991-3.14l15.173-.823-6.95-5.736c-1.5-1.236-3.544-1.768-5.309-2.576q-3.162-1.446-6.221-3.1a19.465,19.465,0,0,1-5.234-3.72c-.64-.7-1.186-1.48-1.839-2.167a12.978,12.978,0,0,0-4.574-2.829c-1.756-.727-2.566.361-4.333.592a14.885,14.885,0,0,1-4.08-.508c-1.309-.2-2.619-.393-3.914-.665a31.651,31.651,0,0,1-3.231-.881l-.762-.192c-37.939-6.945-71.74-9.688-103.334-8.387-2.582.106-12.832-.286-8.427,4.918,1.312,1.551,3.363,3.44,4.175,5.311.777,1.791-.216,2.121-1.98,1.093-6.023-3.508-11.615-9.195-18.327-11.213-8.225-2.473-28.568-.458-49.327,2.087l-2.236.272q-11.29,1.382-22.515,3.241c-3.145.524-7.715.492-10.573,1.935-2.711,1.368-1.55,4.665-.393,6.846.669,1.261,1.493,3.539-.674,3.931-1.244.225-1.862-.981-2.732-1.627-4.347-3.233-12.252-3.3-17.486-3.515a86.972,86.972,0,0,0-18.012,1.243c-11.385,1.925-22.364,5.726-33.036,10.054-1.69.686-3.144,1.441-4.425,2.107-.2.1-.409.213-.627.324-.116-.419-.24-.923-.368-1.525a30.554,30.554,0,0,1,.743-15.819,54.572,54.572,0,0,1,5.4-11.608l.7-1.12a10.2,10.2,0,0,1,5.379-4.25l.765-.368c.148-.083.293-.172.437-.262.227-.052.673-.143,1.451-.248l.588-.111c2.2-.526,4.584-.878,7.1-1.249,2.076-.306,4.222-.622,6.344-1.055l.2-.041c14.044-2.865,28.569-5.826,42.611-10.271l1.733-.543c6.04-1.884,12.288-3.83,17.544-8.4,5.9-5.13,11.037-11.587,15.393-17.237,2.871-3.725,5.5-7.631,8.044-11.408,4.963-7.367,9.649-14.326,15.815-19.761a100.886,100.886,0,0,1,10.382-7.649c1.2-.808,2.4-1.617,3.583-2.44l.486-.375c4.413-3.789,9.527-8.286,13.991-12.917l.588-.714c3.858-5.517,5.792-11.134,5.734-16.7a26.81,26.81,0,0,0-.974-6.384,15.893,15.893,0,0,1-.627-3.709,37.777,37.777,0,0,1,5.443-18.332,16.139,16.139,0,0,1,3.233-4.018c.731-.618,5.1-3.221,5.722-1.689a1.681,1.681,0,0,1-.021,1.023,56.778,56.778,0,0,1-2.652,7.054c-2.619,6.714-2.983,14.863-2.256,21.972.334,3.267,1.9,7.41,5.005,9.068,5.78,3.08,12.2-1.034,17.708,3.149a2.955,2.955,0,0,1,1.415,2.139c0,1.061-.983,1.828-1.889,2.38-3.74,2.279-8.216,4.371-12.62,4.8s-6.793,1.845-10.56,4.43c-9.416,6.46-17.81,14.277-25.9,22.3-9.13,9.055-18.006,18.461-25.5,28.94-3.745,5.238-13.358,15.526-11.653,22.67a6.238,6.238,0,0,0,2.882,3.949l1.432.855,1.67-.016c13.755-.14,27.8.151,41.388.432,19.154.4,38.961.808,58.509.032,6.83-.254,13.664-.62,20.469-1.268,6.219-.592,13.894-.649,19.52-3.52a12.748,12.748,0,0,1,4.566-1.635,4.339,4.339,0,0,1,4.206,1.9,1.29,1.29,0,0,1,.2.709,1.507,1.507,0,0,1-.29.685c-1.055,1.623-4.456,4.376-2.919,6.443,1.068,1.437,5.222,1.359,6.77,1.6,5.7.881,11.406,1.671,17.116,2.462,7.525,1.042,15.051,2.084,22.544,3.339,4.3.721,12.817,3.5,16.928.9,1.843-1.166,3.353-4.049,3.712-6.111.531-3.054-.912-5.718-1.966-7.664-.158-.294-.31-.56-.412-.786-.849-1.963-1.725-3.91-2.6-5.85-4.183-9.293-8.135-18.069-8.58-27.834-.017-.347-.027-.684-.013-1.019l.032-.709-.207-1.11c-.137-.729-.258-1.442-.381-2.159a240.1,240.1,0,0,1-3.06-33.689q-.078-2.383-.139-4.771-.066-2.553-.111-5.054c-.448-23.713,1.126-103.213,40.2-130.591,1.345-.943,2.47-1.672,3.409-2.233-1,3.619-2.249,7.25-3.542,11-1.233,3.583-2.507,7.287-3.576,11.059-9.762,34.443-10.247,68.87-8.936,91.684.578,10.06.66,21.6,3.418,31.285,2.628,9.229,4.919,17.858,4.937,27.616,0,.769.249,1.81,1.018,1.786.549-.017.868-.606,1.1-1.1,2.873-6.034,8.986-8.813,11.325-15.43,2.129-6.022,2.3-12.5,3.364-18.743.257-1.511.432-2.57.51-2.948,11.008-49.664,51.188-123.194,106.038-131.106Zm-26.1,312.894a57.155,57.155,0,0,0-3.441-9.469l4.628,1.286c-.006.168-.011.336-.015.5l-.239,9.378c-.017.635-.034,1.263-.046,1.886Z" fill="#e1ceb5"/>
          <path id="Caminho_75" data-name="Caminho 75" d="M133.183,1292.816a.229.229,0,0,0-.134-.014c-.181.053-.023.319.128.433a2.021,2.021,0,0,1,.372,2.44,10.276,10.276,0,0,1-.779,1.623,9.423,9.423,0,0,1-3.65,3.53c-1.764.977-3.218,2.3-4.97,3.29a50.333,50.333,0,0,1-7.108,3.153,66.193,66.193,0,0,1-11.647,3.374,34.754,34.754,0,0,1-6.141.559,27.2,27.2,0,0,1-3.734-.367,62.185,62.185,0,0,0-18.669-6.621,114.416,114.416,0,0,0-19.992-1.578c1.776,1.5,3.484,3.087,5.163,4.671,2.145-.29,4.021-.609,5.027-.622a57.856,57.856,0,0,1,20.548,3.945c5.162,1.912,33.679,21.444,20.489,25.87-3.963,1.33-8.434,1.038-12.574,1.338-9.543.693-19.925-2.912-29.045-7.952a59.657,59.657,0,0,0-5.744-4.712c-.044.047-.078.1-.125.147-1.791,1.744-4.288,2.887-6.806,2.114a6.084,6.084,0,0,1-1.959-1.07c-.212-.041-.417-.13-.627-.186,3.636,3.271,7.553,6.259,11.142,9.674l12.384,11.781a62.029,62.029,0,0,1,8.576,9.352c2.468,3.57,4.11,7.9,5.739,11.906a46.165,46.165,0,0,1,1.63,4.5,16.148,16.148,0,0,1,.731,5.012,9.61,9.61,0,0,1-1.572,5c.15-.224.89-.442,1.14-.651a5.319,5.319,0,0,0,1.009-1.26,6.928,6.928,0,0,0,1-2.9c.364-2.451-.1-4.862-.215-7.3a25,25,0,0,0-1.307-7.438,73.042,73.042,0,0,0-3.924-8.852,64.119,64.119,0,0,0-10.156-13.843c-.368-.393-.74-.793-1.113-1.2a36.413,36.413,0,0,0,6.838,2.031c1.174.377,2.352.748,3.507,1.1q5.153,1.581,10.167,3.576c13.29,5.318,25.736,13.1,35.247,23.909a28.244,28.244,0,0,1,5.034,8.563c1.071,2.8,2.879,4.991,2.508,8.236a6.513,6.513,0,0,1-5.023,5.842c2.423.694,5.669.347,7.2-1.93,2.91-4.328.686-9.9-.473-14.4a15.918,15.918,0,0,0-2.155-5.2,54.231,54.231,0,0,0-11.534-13.834,41.928,41.928,0,0,0,7.592,2.2,43.652,43.652,0,0,0,16.138-.535c.417-.08.838-.172,1.253-.275.843.476,1.67.977,2.469,1.524a34.322,34.322,0,0,1,5.252,4.446c1.014,1.892,3.423,4.991,3.823,5.636q.792,1.28,1.585,2.559l3.921,6.332c1.9,3.066,3.827,6.2,4.658,9.709.31,1.306.431,3.2-.773,4.115a9.029,9.029,0,0,1-4.354,1.267,12.517,12.517,0,0,1-2.138.005c-.623-.051-1.2.1-1.828.049a6.858,6.858,0,0,1-2.141-.264,21.457,21.457,0,0,0,6.406,1.666,15.442,15.442,0,0,0,2.813.244,4.826,4.826,0,0,0,.968-.1c.585-.144,1.193-.264,1.763-.434a4.682,4.682,0,0,0,2.23-1.257,4.8,4.8,0,0,0,.931-2.282c.151-.729,0-1.255.805-1.67,1.125-.581,2.349.092,3.431.437.934.3,1.867.6,2.81.868s1.9.611,2.84.929c.472.159.945.315,1.423.455a6.553,6.553,0,0,1,1.342.346c-.211-.494-1.1-.754-1.533-.983-.6-.318-1.2-.641-1.792-.98a25.96,25.96,0,0,1-3.386-2.26,34.068,34.068,0,0,1-6.42-7.472c-3.134-4.552-5.983-9.219-8.7-14a6.58,6.58,0,0,0-.5-.895c-.5-.894-1.013-1.783-1.51-2.686a9.709,9.709,0,0,0-.827-1.329c-.249-.318-.8-.748-.489-1.2.009-.014.028-.018.039-.031a10.532,10.532,0,0,0,3.05-.136,5.329,5.329,0,0,0,1.975-.161,56.638,56.638,0,0,1,15.683-1.358,50.931,50.931,0,0,1,9.9,1.913c.8.208,1.608.414,2.415.6.868.2,1.734.435,2.606.654.173.044.342.094.506.147.578.189,1.112.434,1.688.687a23.512,23.512,0,0,1,2.5,1.086,124.6,124.6,0,0,0-10.656-6.564c.019.011,1.038-.531,1.154-.606a6.143,6.143,0,0,0,1.277-1.1,6.044,6.044,0,0,0,1.458-3.1,4.552,4.552,0,0,0-.411-3.015,10.178,10.178,0,0,0-1.864-2.586,4.994,4.994,0,0,1,.254,1.284,6.765,6.765,0,0,1-.049,2.194,2.628,2.628,0,0,1-.136.491c-1.232,3.454-4.956,5.041-8.385,4.966-4.2-.092-8.387-.414-12.566-.8-.031-.008-.056-.03-.087-.036a16.585,16.585,0,0,0-3.244-.28q-3.244-.312-6.486-.6c-1.843-.425-3.7-1.009-5.459-1.538l-3.414-1.024q-.644-.192-1.284-.394a17.158,17.158,0,0,0-1.048-2.13,46.5,46.5,0,0,0-13.268-14.3,82.109,82.109,0,0,0,20.513.393c3.214-.414,6.894-1.294,8.818-4.157a7.852,7.852,0,0,0,1.2-5.438c-.233-1.468-1.3-3.553-3-3.663.214.647.812,1.161,1.072,1.818a4.006,4.006,0,0,1-.6,3.385c-1.464,2.535-4.532,3.214-7.212,3.618-7.436,1.121-15.353-.591-22.788-1.788-12.83-2.066-26.32-5.428-35.615-14.318a74.706,74.706,0,0,0,20.825-7.6c4.071-2.116,7.759-4.117,10.359-8.02a6.4,6.4,0,0,0,1.423-3.519C136.759,1295.342,134.714,1293.3,133.183,1292.816ZM130.82,1337.2a73.316,73.316,0,0,1,9.374,6.763c1.6,1.4,6.111,4.573,5.47,7.045-.778,3-6.45,2.783-8.788,2.753a31.348,31.348,0,0,1-10.5-2.014,70.122,70.122,0,0,1-11.09-5.728c-2.436-1.441-4.858-2.905-7.3-4.338-.045-.027-.08-.045-.125-.071,2.3-.356,4.563-.754,6.743-1.157,6.449-1.193,6.14-5.278,3.19-9.915C121.832,1333.015,127.747,1335.284,130.82,1337.2Z" fill="#e1ceb5"/>
          <g id="Grupo_56" data-name="Grupo 56">
            <path id="Caminho_76" data-name="Caminho 76" d="M-327.61,1172.46c-1.964,3.321-3.027,7.5-2.122,13.073,1.4,8.6,7.251,11.248,11.954,13.377a19.809,19.809,0,0,1,5.963,3.545l5.589-5.595a26.47,26.47,0,0,0-8.291-5.154c-4.519-2.046-6.721-3.216-7.407-7.441-1.13-6.935,2.047-9.829,7.754-14.347,3.8-3.007,8.1-6.419,10.318-11.937,12.061-30.028,28.956-58.4,51.2-82.02,6.034-6.406,12.187-12.7,18.526-18.807,4.144-3.991,9.057-6.987,13.862-10.1,1.9-1.227,4.913-2.473,2.785-4.915-1.809-2.078-5.329-.975-7.359.014a22.451,22.451,0,0,0-2.174,1.347c-2.174,1.389-4.292,2.865-6.372,4.39a178.02,178.02,0,0,0-19.355,16.594c-20.636,20.26-37.042,44.64-49.635,70.6q-4.761,9.813-8.819,19.948c-1.44,3.569-4.57,6.055-7.89,8.683C-322.047,1166.067-325.4,1168.722-327.61,1172.46Z" fill="#e1ceb5"/>
          </g>
          <path id="Caminho_77" data-name="Caminho 77" d="M-336.634,1257.7s27.4-34.59,48.156-52.49" fill="#e1ceb5"/>
          <g id="Grupo_57" data-name="Grupo 57">
            <path id="Caminho_78" data-name="Caminho 78" d="M-309.984,1193.8c-2.031-.88-4.15-2.551-6.4-2.71-.824,1.645-.054,4.207.031,5.984a10.262,10.262,0,0,0,2.29,6.156c1.029,1.207,2.7,1.828,4.178,2.521,6.48,3.036,13.462,4.836,20.412,6.427,2.922.668,6.134,1.68,9.14,1.837,2.78.146,9.556-4.375,7.615-7.75-1.141-1.982-6.493-2.868-8.491-3.569-2.646-.929-5.324-1.99-8.053-2.656a149.763,149.763,0,0,1-14.518-4.162C-305.826,1195.153-308.008,1194.653-309.984,1193.8Z" fill="#e1ceb5"/>
          </g>
          <g id="Grupo_58" data-name="Grupo 58">
            <path id="Caminho_79" data-name="Caminho 79" d="M-166.909,1227.728a14.2,14.2,0,0,0-1.776,4.982c-1.745,10.673,6.971,15.51,13.335,19.042,1.058.588,2.1,1.167,3.091,1.763,8.325,5.029,17.591,10.039,29.165,15.768,18.795,9.3,39.673,18.423,65.706,28.7,27.51,10.865,54.563,20.617,80.408,28.985l2.436-7.523c-25.687-8.318-52.583-18.013-79.938-28.817-25.824-10.2-46.512-19.236-65.1-28.437-11.371-5.628-20.454-10.537-28.585-15.449-1.067-.645-2.2-1.274-3.343-1.91-6.943-3.853-10.13-6.179-9.366-10.85,1.118-6.916,13.7-8.239,21.1-8.411,46.009-1.071,92.017,18.877,126.959,36.375l3.4,1.7c17.948,8.955,36.041,18.688,51.138,31.881,2.854,2.494,3.882.659,6.588-1.529-14.09-17.42-34.479-27.592-54.2-37.428l-3.39-1.694c-35.761-17.907-82.931-38.32-130.683-37.209C-154.124,1218-163.152,1221.377-166.909,1227.728Z" fill="#e1ceb5"/>
          </g>
          <g id="Grupo_59" data-name="Grupo 59">
            <path id="Caminho_80" data-name="Caminho 80" d="M-421.706,1051.729q-.705.2-1.408.414a10.365,10.365,0,0,1-3.009.662c-1.886,0-3.707-1.176-5.557-.808a4.657,4.657,0,0,0-3.23,3.141c-1.074,3.02.062,6.27-1.991,9.063a4.092,4.092,0,0,1,4.768-.727c1.013.543-6.657,10.047-7.436,10.731a67.96,67.96,0,0,1,13.436,4.566,81.809,81.809,0,0,1,11.054,5.865c1.734,1.133,1.979,1.474,3.043-.307.686-1.149,1.332-2.323,2-3.483.717-1.251,2.607-3.444,2.024-4.671-.812-1.7-3.74-2.355-5.259-3.186-2.7-1.475-5.431-2.909-8.235-4.245-3.07-1.463-6.211-1.551-8.335-4.574a2.674,2.674,0,0,1,1.418-2.134,7.294,7.294,0,0,1,2.551-.761c6.453-1.042,12.917-.3,19.423-.753,9.113-.634,17.483-.682,26.4,1.212a80.4,80.4,0,0,1,16.338,5.146c2.219,1.007,6.154,4.777,7.256.67.436-1.623.775-5.148-.017-6.679-.984-1.9-4.734-2.715-6.627-3.39a129.124,129.124,0,0,0-29.55-6.735C-402.519,1049.688-412.131,1049.079-421.706,1051.729Z" fill="#e1ceb5"/>
          </g>
          <path id="Caminho_81" data-name="Caminho 81" d="M-389.524,1021.667s-34.021,30.183-64.608,31.3" fill="#e1ceb5"/>
        </g>
      </g>
    </g>
  </g>
</svg>
