<?xml version="1.0" encoding="UTF-8"?>
<svg id="Camada_1" data-name="Camada 1" xmlns="http://www.w3.org/2000/svg" viewBox="0 0 2500 3599.19">
  <defs>
    <style>
      .cls-1 {
        fill: #f7ecd9;
      }
    </style>
  </defs>
  <g id="Grupo_5" data-name="Grupo 5">
    <g id="Grupo_4" data-name="Grupo 4">
      <path id="Caminho_3" data-name="Caminho 3" class="cls-1" d="M2173.34,1075.49c2.22,3.34,8.05,7.92,16.65,13.15,10.68,6.47,21.69,12.38,32.98,17.71,12.76,5.93,25.01,12.81,37.36,19.99,6.17,3.6,12.38,7.26,18.62,11.05l18.73,11.92c19.26,12.05,37.88,24.62,55.75,35.89,8.93,5.64,17.44,11.32,25.77,16.41,8.27,5.18,16.38,9.77,23.9,14.18,10.87,7.86,21.69,15.71,31.34,23.2,8.48,6.59,16.48,13.77,23.95,21.48,4.63,3.13,9.09,6.32,13.25,9.57,3.99,3.16,7.76,6.58,11.29,10.24,8.72,6.7,17.34,13.6,25.9,20.6,8.44,7.16,16.78,14.48,25.14,21.77,6.6,4.39,13.25,8.73,19.72,13.31,15.97,14.59,21.36,17.33,27.35,20.31,10.7,5.35,13.36,3.56,14.66.14h0c9.3,7.58,22.17,18.92,29.99,24.98,3.92,3.02,6.47,4.84,6.81,4.07.31-.74-1.6-4.06-7.08-10.84-12.01-11.59-23.79-23.45-36.05-34.77-12.34-13.7-25.49-26.65-39.36-38.79-7.23-6.33-14.56-12.45-21.72-18.11-7.21-5.61-14.38-10.58-21.02-14.94-32.67-21.53-68.41-48.48-107.88-76.74l-27.95-19.63-28.38-18.99-14.23-9.41-14.43-9.09c-9.64-6.01-19.2-12.13-28.92-17.95-30.51-18.02-44.22-23.88-29.34-10.66-5.06-.9-3.58,2.27-15.67-3.04-14.98-8.63-29.7-17.05-42.45-22.5-18.81-10.27-39.96-22.78-49.41-23.76-8.52-1.05,9.13,9.21,24.74,19.24Z"/>
      <path id="Caminho_4" data-name="Caminho 4" class="cls-1" d="M2841.21,1706.49c-37.99-49.46-77.69-101.4-116.54-148.83-35.34-43.1-72.19-81.57-110.15-117.8-37.99-36.23-77.09-70.26-117.93-104.05-3.92-3.25-7.88-5.39-11.93-7.9,8.17,7.53,9.84,10.54,10.54,12.65,7.1,6.27,14.18,12.52,21.24,18.75,7.11,6.19,13.99,12.62,21.02,18.84,13.97,12.47,27.93,24.93,41.87,37.38,3.71,2.19,7.24,4.68,10.55,7.44,3.78,3.14,7.77,6.88,11.93,10.9,8.27,8.08,17.26,17.23,25.65,25.97,9.23,9.71,19.89,20.24,28.99,29.91,8.89,9.86,16.24,18.83,19.08,25.11,11.74,12.48,22.84,25.56,34.21,38.39,3.2,2.69,5.97,4.15,9.7,8.25,39.72,43.16,77.65,89.38,112.11,141.29,10.49,14.32,20.77,28.82,31.06,43.3l15.9,23.62c15.51,21.17,11.9,12.86,3.9-2.19-6.69-10.36-13.26-21.21-20.27-31.49-7-10.3-14-20.33-20.93-29.51Z"/>
      <path id="Caminho_6" data-name="Caminho 6" class="cls-1" d="M1488.19,4668.3c47.55-4.12,93.34-8.95,139.41-16.29,46.06-7.3,92.62-16.22,141.17-29.66,10.32-2.4,20.48-5.38,30.73-8.05,10.23-2.75,20.5-5.41,30.63-8.52l30.52-9.02,30.31-9.76c14.48-4.47,28.71-9.69,43.05-14.62,11.63-2.99,22.86-7.33,33.48-12.92,19.68-7.85,38.98-16.62,58.4-25.12,9.23-3.05,19.85-7.99,31.36-13.82,6.44-2.89,12.87-5.78,19.2-8.89,7-1.62,16.85-5.46,32.46-13.81l35.52-18.68c60.48-31.02,118.87-64.55,176.2-104.1,55.42-38.42,108.97-77.81,160.36-124.63l16.33-14.3c4.01-3.12,8.03-6.26,12.08-9.42,4.04-3.25,8.01-6.69,12.07-10.15,8.07-6.97,16.35-14.19,24.6-21.86,8.16-7.77,16.42-15.86,24.79-24.25,8.41-8.35,16.52-17.4,24.93-26.52,9.5-9.69,18.61-19.77,27.8-29.77-.79.14-1.17-.18-1.12-.97-.38-1.96,2.86-6.71,7.87-12.81,2.5-3.05,5.38-6.5,8.45-10.13-3.07,3.63-5.94,7.08-8.45,10.13-5.01,6.1-8.25,10.84-7.87,12.81-.05.79.33,1.11,1.12.97,7.38-6.15,13.88-13.28,19.32-21.2l18.45-21.46c6.19-7.11,12.02-14.54,18.05-21.81,5.77-6.83,11.69-13.53,17.34-20.47,9.1-9.98,18.28-20.45,27.33-31.75,8.84-11.47,17.75-23.61,26.45-36.82l15.99-22.72,8.42-11.85,12.37-18.18c13.89-16.66,26.72-34.19,38.41-52.46,38.25-59.26,73.52-119.44,104.78-184.67l6.41-12.92c5.72-11.62,11.38-23.11,17.12-34.76,5.7-11.71,10.89-23.96,16.22-36.9l.71-.86s-.13-.32-.11-.37c5.08-8.23,9.66-18.78,14.3-30.11s9.25-23.5,13.47-35.37v-.02c3.67-9.31,7.34-18.67,11.04-28.09,3.44-9.53,6.9-19.09,10.36-28.68l5.16-14.4,4.84-14.51c3.23-9.67,6.44-19.31,9.65-28.92,12.14-38.61,23.87-76.48,34.44-111.56,6.49-17.81,11.93-41.67,16.24-64.76,8.01-46.53,15.53-92.28,21.75-137.93,1.58-11.41,2.85-22.83,4.32-34.23l2.15-17.09,1.76-17.12c1.14-11.41,2.45-22.81,3.44-34.23l2.72-34.31c2.25-5.42,3.2-17.93,3.94-31.91.8-13.97,1.43-29.4,2.47-40.71.75,8.34,1.52,12.47,1.59,18.26.29,20.46.45,46.11,3.97,28.69,1.62-8.87,2.67-17.84,3.13-26.84.59-11.96.43-23.94-.48-35.87-.58-7.52-1.33-13.31-2.15-19.87h0l-.97-41.18c-.4-13.72-1.24-27.43-1.85-41.13l-.51-14.46-.82-14.45-1.66-28.9c.83-11.4.17-26.36-1.47-45.02.23-13.12-1.95-29.72-3.52-45.82v-1.92c1.69-.75,2-8.5.34-24.39-3.17-31.89.61-18.34,4.31-2.3,1.22,5.33,2.41,11,3.52,16.93.99,5.95,1.94,12.16,2.85,18.54.86,6.41,1.73,12.96,2.62,19.59.41,3.32.83,6.67,1.25,10.03.33,3.36.66,6.74.99,10.12,1.24,12.72,3.01,25.5,4.64,28.49,2.13,3.9,2.25-8.37,1.98-20.95-.11-14.03-2.3-35.43-5.08-56.65-1.28-10.63-3.19-21.15-4.97-30.71-1.81-9.55-3.64-18.11-5.36-24.74-3.05-11.33-6.09-23.97-8.3-36.18-2.15-12.23-4.01-23.93-4.76-33.4-1.31-16.25-3.49-32.41-6.53-48.42-1.59-8.68-3.22-17.52-4.84-26.38-1.8-8.81-3.6-17.64-5.37-26.35,3.19,7.63,5.87,15.46,8.04,23.45,2.34,8.85,4.56,18.33,6.82,27.42,1.38,5.74,2.78,11.54,4.19,17.39,1.34,5.89,2.49,11.88,3.71,17.88,2.36,12.02,4.83,24.14,6.94,36.16,4.14,23.96,8.15,47.15,11.77,68.07,10.83,58.86,17.58,118.4,20.19,178.18.68,21.09,2.06,38.03,3.27,51.89,1.26,13.85,3.07,24.57,5.49,33.14-.35-38.17-.58-72.34-5.13-102.28-2.89-18.2-3.93-41.27-6.09-63.39-.84-9.19-1.55-18.4-2.48-27.59l-3.08-27.56c-1.89-18.38-4.64-36.65-7.27-54.87-2.07-15.25-4.85-29.79-6.64-43.18-.95-6.69-1.71-13.08-2.33-19.09-.71-5.99-1.2-11.59-1.4-16.75-.72-12.79-2.98-25.45-6.73-37.7-15.22-51.57-27.94-107.58-42.72-163.35-4.2-16.37-9.25-32.52-15.12-48.36-10.52-32.55-22.07-64.74-34.26-96.68-1.78-4.82-3.65-9.61-5.6-14.36-27.99-73.09-60.28-144.45-96.71-213.72-10.61-17.31-15.09-26.91-13.55-29.03-1.23-2.72-1.78-4.37-1.65-4.96-16.36-31.99-28.36-45.25-42.88-66.02-5.27-7.54-10.06-15.4-14.35-23.54-3.54-3.8-6.4-8.18-8.47-12.94-5.31-6.41-10.21-13.15-14.67-20.18-4.95-7.31-9.84-15.06-14.79-22.5-3.64-5.03-7.28-10.07-10.92-15.12-3.73-4.99-7.45-9.96-11.17-14.93-3.57-4.79-7.03-9.67-10.45-14.58,3.42,4.91,6.87,9.78,10.45,14.58,3.71,4.97,7.43,9.94,11.17,14.93l10.92,15.12-6.13-18.91-22.34-30.71c-1.36-1.23-2.65-2.36-3.88-3.4.64,3.81-3.66.16-11.11-7.56,3.27,4.82,6.56,9.62,9.87,14.42-3.32-4.79-6.61-9.59-9.87-14.42l-10.3-14.52-4.67-11.65c-8.43-11.26-17.23-22.21-25.84-33.32-5.07-6.28-10.31-12.41-15.58-18.51l-15.76-18.33-.57-.92c-12.05-13.79-24.44-27.27-36.9-40.65,12.47,13.38,24.86,26.87,36.92,40.66,1.61.11,4.63,1.37,3.88-.99-.37-1.18-1.69-3.28-4.59-6.87-2.94-3.56-7.57-8.54-14.45-15.6-29.44-30.53-58.65-61.83-89.42-92.51-2.38-1.81-3.33-2.14-2.85-.97l-21.04-20.62c-6.57-8.29-14.79-16.2-23.25-24.04-4.25-3.9-8.59-7.75-12.89-11.54l-12.95-10.9c-9.13-7.68-17.91-15.29-26.94-22.78-9.03-7.49-18.01-15.19-27.1-23.57-7.82-7.16-16-14.02-24.16-20.99-8.17-6.97-16.48-13.85-25.06-20.45l-25.76-19.95-26.44-19.23c-6.32-4.37-12.65-8.72-19.11-12.87-6.23-4.76-12.45-9.53-18.9-14.2-6.53-4.84-13.31-9.33-20.31-13.45-10.41-7.07-20.78-14.25-31.27-21.22-3.75-3.08-7.46-6.12-11.26-9.25-27.41-22.42-30.78-24.14-59.17-36.05-8.15-3.47-16.6-6.61-25.48-10.36-8.93-3.64-18.28-7.9-28.87-12.43l-30.56-16.15c-10.2-5.35-20.58-10.34-30.87-15.51h0l-15.26-8.29c-5.13-2.65-10.16-5.26-14.81-7.79-18.01-9.85-29.46-17.29-33.41-21.24-3.92-4.04-.18-4.94,12.2-1.61,12.26,3.57,24.37,8.8,34.49,16.43,1.89,1.43.85,1.71,1.75,2.78s3.78,2.88,13.33,7.73c6.52.87,11.69.9,20.72,3.19,5.79,1.51,11.49,3.37,17.06,5.55,7.01,2.81,15.62,6.62,26.46,11.82-54.92-30.1-111.43-57.19-169.28-81.17-8.61-3.54-18.72-7.62-27.07-10.62-8.41-2.84-15.07-4.57-16.66-3.72-4.01,2.13-22.65-1.46-10.59,6.96,3.98,2.82,15.32,6.79,24.17,10.17,10.15,3.98,17.39,7.24,19.58,9.57-6.95-.71-21.65-7.4-34.76-11.92-17.25-6.12-32.2-12.18-46.24-17.62-14.01-5.51-26.73-11.45-39.58-17.03-24.2-10.81-13.89-9.94-6.45-10.54,4.35-.35,8.08-1.51-11.68-9.04-9.52-3.73-19.65-7.29-29.86-10.53-9.98-3.3-20.13-6.03-30.41-8.19-14.36-2.68-28.2-5.12-41.77-7.46-13.61-2.02-27.02-4.01-40.36-5.99,26.77,10.71,72.3,19.1,98.68,30.67-18.67-4.88-32.85-7.81-44.61-10.61l-16.21-3.82c-5.05-1.13-9.81-2.19-14.58-3.26-9.56-2.16-19.16-4.44-31.21-7.36l-46.12-10.16c-48.84-10.03-99.51-19.97-147.44-23.23-45.39-5.07-90.63-9.08-135.72-12.04-11.29-.67-22.58-1.12-33.87-1.69l-16.93-.81-16.94-.41-33.89-.72-33.91.15c-6.55-.52-12.67-.57-18.11.55-15.45,1.32-30.02,3.19-47.27,3.58-62.05,1.65-123.25,10.7-184.48,19.21-6.57-.38-17.11,1.54-27.68,3.29-6.1-1.17-4.83-2.92,2.55-5.15,3.69-1.11,8.91-2.34,15.5-3.66,6.59-1.27,14.58-2.43,23.76-3.74,9.49-1.31,18.96-2.6,28.44-3.73,9.5-1.03,19-2.05,28.5-3.08l19.44-2.22,15.46-1.57c9.14-.97,16.07-1.86,21.64-2.83,11.14-2,16.9-3.95,24.2-7.46,3.13-1.5,5.91-2.98,8.86-4.47-2.9,0-5.39-.06-7.55-.14,2.16.08,4.65.13,7.55.14l22.37-1.48c1.35.36,2.67.8,3.97,1.31,6.14,3.17,9.18,4.74,18.05,5.15,4.44.21,10.33.13,18.8-.19,4.23-.17,9.11-.36,14.78-.58l19.49-.47c14.32-.34,28.85-.53,43.28-.27,10.05.08,24.36-.24,23.94-1.09-1.42-2.8,8.34-4.54,22.76-5.25,14.42-.73,33.51-1.31,50.67-1.37-16.86-1.72-32.09-2.87-47.51-4.11-16.17-1.32-32.39-1.8-48.61-1.43h0l-16.96-.26-16.98.15-33.97.38c-23.52-2.24-20.88-6.17-23.05-9.8-1.41-2.27-9.56-4.11-34.04-2.68-24.17,1.62-33.14,4.08-32.34,6.47,1.22,3.66,5.22,7.14-2.21,11.35-16.1,1.4-31.99,3.2-47.27,3.65-16.16.44-32.22,2.7-47.88,6.73-12.12,1.45-24.13,3.63-36.19,5.43l-19.86,2.52-19.8,2.97c-18.11,2.28-35.37,4.46-51.03,6.44-15.32,1.83-28.64,2.82-38.72,3.16l-1.55.21-5.22-1.16c-4.57-1.03-6.01-3.17-30.31,2.03-27.82,6.58-22.02,8.27-29.99,11.93-4.39,2.02-7.79,3.87-11.63,5.79l38.47-9.73-38.47,9.73c-15.82,4.27-31.54,8.95-47.29,13.43-15.69,4.72-31.3,9.76-46.94,14.65-43.67,14.25-86.68,31.41-129.65,46.22h0l-7.56-4.26c14.09-8.97,3.46-10.33,44.31-27.61-1.44-1.7-12.4.9-22.85,3.42-8.05,1.9-9.5.89-2.07-3.22,5.68-3.05,11.55-5.75,17.57-8.07,6.73-2.56,13.97-5.04,20.75-7.17,9.28-2.92,16.73-5.03,22.67-6.5,4.53-1.1,9.14-1.89,13.78-2.34,6.65-.52,8.67.82,8.9,2.85,19.65-4.61,14.37.51,29.02-2.14l47.02-15.52c14.23-4.59,25.38-8.86,28.79-12.57,9.56-10.3-44.23-.77-55.66-3.73-.81-.24-12.04,2.68-18.75,4.64-57.26,17.1-113.31,38.04-167.75,62.7-18.69,8.53-21.48,11.72-26.61,16l4.31,7.25c-14.46,7.86-11.05,8.37-10.15,9.91,1.89,2.24,2.64,4.95-10.97,13.75h0l-13.89,6.33-13.76,6.64-27.5,13.32c10.2-8.65-2.87-5.15-18.4.39-15.55,5.44-33.83,12.34-34.23,9.37-2.17.83-4.29,1.79-6.34,2.89l-10.93,5.5c-8.99,4.67-16.91,9-23.39,12.88-5.11,3.08-10.04,6.44-14.77,10.06-6.65,5.31-6.45,7.5,3.03,4.86,15.22-4.23,15.48-.67,2.49,10.84,4.89-1.22,11.87-4.32,20.2-8.56,8.43-4.07,18.22-9.27,28.61-14.94l13.81-7.5,13.97-7.19,27.96-14.33,28.28-13.67,14.15-6.8,14.3-6.48,13.1-5.62,13.44-2.62c-15.24,8.46-29.83,16.55-41.68,24.02-11.8,7.59-21,14.22-25.75,19.17-10.67,5.58-18.49,10.13-24.52,13.4-6.03,3.29-10.21,5.42-13.34,6.74-6.26,2.63-8.29,1.97-12.38.64h0c7.06-6.27,37.01-20.38,44.45-27.28-16.69,7.52-32.54,15.24-48.68,22.88-15.95,8.02-32.02,16.32-48.64,25.88-45.23,26.09-89.37,53.87-132.63,82.85-43.23,29.04-85.57,59.38-126.56,91.46-7.52,6.25-10.71,8.32-10.01,6.4-2.05.83-4.02,1.86-5.88,3.07-.15.12-.28.23-.43.35.15-.12.28-.22.43-.35,3.29-5.3-5.05-.39-12.4,3.65l-12.9,11.34c-7.29,5.05-14.39,10.34-21.51,15.62,1.29-6.49-.21-10.55-7.18-9.87-34.17,29.1-66,59.85-97.54,91.61,31.54-31.75,63.38-62.51,97.54-91.61,10.35-9.95,21.22-19.33,32.57-28.12l-1.39.74,12.54-10.77c8.09-6.68,16.39-13.07,24.59-19.6,8.24-6.49,16.4-13.07,24.84-19.3,1.34-1.69,2.85-3.26,4.49-4.67,3.31-2.15,6.81-4.53,10.56-7.17,13.16-10.56,26.71-20.52,40.17-30.63l.35-3.8-3.58-1.16c1.27-2.76,4.99-6.78,11.16-11.67,8.24-6.15,16.85-11.78,25.79-16.85,18.32-10.76,23.81-14.39,25.22-16.5,1.45-2.04-.98-2.23,2.13-5.07-58.23,39.02-113.21,75.76-166.8,117.36l-24.74,20.11c-8.42,6.84-17,13.58-24.82,20.54-15.77,13.77-29.81,26.86-37.58,38.32h0c-10.02,9.48-20.27,18.68-30.05,28.4-11.07,10.16-20.65,19.42-28.64,27.95-6.88,7.44-13.33,15.27-19.32,23.44-12.27,12.97-24.56,26.25-37.29,39.2-.84.38-1.63.84-2.36,1.4-13.01,10.32-41.08,40.15-34.4,26.5,2.75-5.57,10.22-14.93,19.04-25.22,8.86-10.24,19.36-21.11,27.59-30.25,24.26-26.43,47.15-49.67,63.2-69.36,3.34-4.11,7.05-8.52,11.16-12.85,4.12-4.31,8.53-8.66,13.08-12.88,9.14-8.38,18.59-16.49,27.74-22.22,6.97-4.51,13.62-9.5,19.91-14.92,6.38-5.48,12.7-11.49,19.65-17.98,10.44-9.85,20.42-18.61,30.36-26.3,10-7.62,19.78-14.4,29.5-20.73,34.07-26.26,68.72-51.79,104.43-75.72,17.69-12.22,35.86-23.7,53.94-35.3,9.02-5.85,18.3-11.25,27.44-16.89,9.2-5.53,18.29-11.26,27.65-16.52,18.66-10.7,35.07-20.47,42.23-27,17.45-9.53,33.76-19.06,48.86-27.79,9.93-4.46,20.15-9.51,30.43-14.43,10.31-4.86,20.53-9.89,30.23-14.82,9.2-4.79,18.62-9.13,28.02-13.57,9.42-4.39,18.81-8.86,28.32-13.08l28.73-12.33,14.41-6.08,14.55-5.75,29.15-11.42,29.42-10.7c19.56-7.31,39.46-13.59,59.18-20.34,17.73-5.75,36-10.98,53.99-16.4,18.11-4.98,35.88-10.44,52.87-15.88l29.38-7.33c12.53-2.07,27.68-5.54,42.29-8.72,62.32-13.08,123.03-24.94,184.97-33.25l14.34.32c51.85-6.3,103.5-11.18,153.55-14.44,15.64-1.32,31.51-1.78,47.58-2.27,8.03-.18,16.11-.52,24.25-.46l24.57.25c9.9.18,18.47.39,24.76,1.11s10.33,1.65,11.18,2.88h0c31.17,1.19,62.3,3.33,93.39,5.98l39.58,1.48c203.43,24.37,402.69,75.82,592.5,152.97-59.7-26.63-118.66-50.9-179.84-71.52-8.81-2.92-17.67-6.07-26.68-8.87-9.03-2.76-18.08-5.52-27.15-8.29-18.09-5.62-36.48-10.03-54.35-14.22-12.35-3.57-24.84-6.6-37.27-9.84-6.23-1.58-12.45-3.11-18.7-4.58-6.27-1.34-12.55-2.58-18.84-3.74-14.5-3.63-28.92-6.93-43.4-9.04-10.54-2.5-21.15-4.52-31.77-6.12-14.77-2.81-29.6-5.36-44.4-8.01-14.81-2.63-29.7-4.66-44.56-6.99-13.92-3.32-28-5.88-43.45-8.35-17.19-2.7-34.53-4.3-51.93-4.78-7.49-.64-14.96-1.5-22.47-1.93-7.76-1.03-15.57-1.56-23.39-1.57-20.72-1.84-41.51-2.59-62.33-3.53-10.41-.56-20.83-.55-31.24-.75-10.41-.13-20.85-.34-31.27-.34-41.69.37-83.38,1.5-124.91,4.4-42.53,2.44-86.01,6.45-127.09,13.28-9.65,1.04-16.06,2.41-20.04,3.92-70.37,8.8-140.67,22.89-209.93,40.43-31.85,11.11-72.19,21.74-109.02,33.79-5.9,2.04-11.73,4.29-17.59,6.44l-13.34,4.63h0l-16.81,5.13-16.71,5.49c-12.81,4.72-25.69,9.23-38.35,14.32l-37.97,15.24c-12.56,5.33-25.13,10.66-37.7,16-12.63,5.22-25.04,10.99-37.67,16.32-53.33,26.2-106.83,54.11-160.36,84.54l-23.37,13.32-17.54,10.28c-9.91,5.75-16.36,9.25-19.86,10.67-6.99,2.84-2.17-2.64,10.73-14.96,4.54-4.34-.41-2.83-4.12-2.08-19.09,11.36-37.64,23.51-56.31,35.48-18.23,16.13-24.4,20.48-44.97,30.34-49.98,33.55-97.99,69.94-143.79,108.99-8.4,6.94-16.46,14.1-24.26,21.14-7.8,7.04-15.38,13.92-22.49,20.66-13.98,13.76-26.45,26.57-35.89,38.14,7.01-5.59,17.39-15.25,26.63-23.69,4.63-4.2,9.01-8.06,12.59-10.87,1.52-1.19,3.12-2.27,4.79-3.26-1.66.98-3.26,2.07-4.79,3.26-3.58,2.81-7.96,6.67-12.59,10.87-9.24,8.44-19.62,18.1-26.63,23.68l-25.56,25.16c-8.57,8.34-16.73,17.1-25.1,25.64-13.32,12.37-27.2,28.02-39.25,38.64,1-2.18,2.21-4.58,2.98-6.52,2.12-5.4.2-5.64-5.42-.99-3.89,3.34-7.6,6.88-11.13,10.6-4.56,4.77-9.86,10.84-16,18.03-6.26,7.36-12.47,15.03-17.01,21.12-6.46,9.01-13.09,17.75-19.88,26.23-3.38,4.24-6.81,8.4-10.22,12.53-3.35,4.18-6.73,8.29-10.12,12.33-6.78,8.08-13.61,15.9-20.43,23.42-6.68,7.64-13.31,15-19.89,22.1-4.91,5.33-10.07,10.93-15.15,16.9-5.05,5.99-10.2,12.21-15.38,18.56-5.16,6.36-10.45,12.77-15.56,19.31-5.07,6.57-10.13,13.13-15.12,19.61-4.97,6.5-10.25,13.3-15.35,20.55s-10.29,14.79-15.48,22.48c-10.53,15.28-20.37,31.66-29.9,47.47-9.51,15.83-17.85,31.67-25.4,45.91-7.43,14.31-13.35,27.47-17.91,38.05-2.64,4.55-5.33,9.06-7.88,13.63-2.49,4.6-4.97,9.18-7.42,13.72-4.85,9.12-9.47,18.16-13.67,27.07l-.04,1.19.04-1.18c-22.64,42.22-45.09,85.31-60.87,128.38-6.16,14.03-11.82,28.29-17.72,42.43-21.34,47.89-39.09,98.19-55.66,148.49-4.5,8.87-7.5,18.42-8.88,28.26-3.31,10.71-6.71,21.39-9.69,32.21-8.89,24.52-13.01,35.67-14.8,38.03-1.85,2.35-1.7-4.16-1.79-14.83-.07-5.85,1.26-15.54,2.68-25.31.68-4.85,1.37-9.68,2.01-14.24.67-4.43,1.17-8.41,1.33-11.49-3.85,8.76-7.33,18.58-10.54,28.43s-6.15,19.72-8.54,28.69c-4,15.6-8.57,33.47-12.79,49.96-3.8,16.59-6.85,31.86-7.6,42.12-1.47,20.55,8.58-10.56,14.34-23.3,7.15-16.09,11.19-24.31,11.31-20.41.02,3.88-3.16,20.09-9.66,53.12-2.19,12.03-4.44,24.42-6.67,36.65-1.55,5.84-3.11,11.84-4.5,17.99-1.33,6.16-2.61,12.45-3.86,18.82-2.42,12.75-5.08,25.73-7.09,38.73-.41,4.32-.86,8.62-1.31,12.93.45-4.31.9-8.61,1.31-12.93-4.79,11.94-5.08-3.87-7.29-7.35-4.74,26.11-7.1,39.18-9.01,47.88-1.76,8.73-3.22,13.08-6.12,21.79.73-7.48,1.48-15.19,2.22-22.84.88-7.62,1.76-15.18,2.59-22.44,1.46-11.98,2.29-24.03,2.51-36.1-4.61,17.44-8.11,35.4-11.38,53.91-2.91,18.56-5.22,37.72-7.03,57.62-5.9,52.18-10.17,104.43-12.81,156.74-2.49,52.31-3.01,104.64-1.91,156.93.42-.45.86.43,1.32,2.63l1.77,38.11c.48,12.71,1.66,25.38,2.48,38.07,2.19,8.05,4,18.28,6.19,30.68,2.18,12.39,4.31,26.97,6.41,43.74,2.17,15.37,4.61,43.66,7,40.81,2.27-2.63-1.92-28.5-3.27-45.12-.22-2.55-.45-5.19-.68-7.76-2.21-27.9-2.88-44.69-1.89-50.81.88-6.12,2.89-1.54,6.33,13.21,1.71,6.83,3.6,18.77,5.21,23.67,4.16,12.69,7.28,11.19,9.78,4.21,1.34-3.76.99-13.16.15-24.18-.89-11.01-1.73-23.66-2.18-33.83-.3-7.77-.47-15.01-.56-21.89s.16-13.43.3-19.79c.42-12.65.83-24.84,1.26-37.56h0c2.1,2.6,2.69-10.63,3.13-25.82l-1-17.44h0c-.02-9.47.5-18.96.73-28.43,4.27-3.81,7.95,20.25,12.31,13.91,1.42-1.96,2.59,3.3,3.3,17.08,2.68,56.62,6.94,42.48,10.98,36.53,1.62,4.21,2.93-1.49,4.28-5.96h0c1.7,2.23,3.45-6.68,4.98,13.04l4.82.9c-.89-19.45-.93-36.07-.4-49,.62-12.93,2.27-22.18,4.45-26.91.24-32.39,1.04-60.44-2.18-74.62.59-16.32,1.85-32.14,3.44-47.1,2.81-1.66,4.85-20.95,6.85-42.21l2.84-13.29c3.73-8.39,7.12-10.56,12.05-39.91,2.92-17.45,4.62-12.24,5.95-9.52l-3.69,34.25-1.78,17.13-1.42,17.16c-.9,11.44-1.97,22.88-2.71,34.33l-1.98,34.38c-1.24,8.82-2,17.71-2.28,26.61-.2,7.82.23,14.23,1.74,18.2.21,2.6.54,3.78.95,3.56,0,6.87.83,13.72,2.44,20.4,1.6,6.91,2.49,13.97,2.68,21.07-.03,6.14-.06,12.27-.09,18.4-.03,6.13.15,12.24.19,18.33.14,12.19.11,24.3,0,36.28-1.1,1.7-2.21,4.04-3.34,2.86-1.17-1.17-2.32-5.87-3.24-18.26-.79-10.22-1.37-25.19-2.99-18.31-1.28,5.44-1.1,19.79-1.09,31.87.23,11.06.67,22.09,1.16,33.12l.8,16.53,1.2,16.51c.8,11.02,1.61,22.04,2.41,33.07.89,11.03,1.89,22.08,2.63,33.18,1.09,18.09,3.27,35.04,5.61,50.9,2.21,15.88,5.26,30.6,8.46,44.25-2.7-17.86-4.83-35.79-6.89-53.73,2.06,17.94,4.19,35.87,6.89,53.73,1.53,10.32,2.74,20.68,4.55,30.95,7.34,70.18,22.68,146.81,40.6,219.38,1.39,5.81,2.77,11.56,4.13,17.23l4.25,16.79c2.82,11.1,5.4,22.12,8.37,33.11,6.06,21.95,12.19,44.28,20.75,68.13,6.19,18.69,13.11,37.1,19.92,55.57,2.53,5.29,4.83,10.42,6.93,15.44-2.1-5.02-4.39-10.15-6.93-15.44,16.28,50.48,34.54,100.42,54.76,149.81,4.39,10.36,11.9,26.98,9.5,24.86-3.39-2.99-3.53-1.02-1.37,4.69,3.75,9.19,7.99,18.16,12.71,26.89,8.37,16.12,13.83,29.64,19.31,41.9,23.25,54.48,53.76,105.57,90.68,151.88,7.29,9.14,13.9,17.75,19.87,26.61,3,4.42,5.86,8.9,8.63,13.5,2.81,4.57,5.61,9.2,8.31,14.06,5.13,9.11,11.97,20.2,19.83,31.79,7.94,11.52,16.66,23.73,25.04,35.46,9.72,13.04,23.05,29.97,30.87,36.67,8.92,7.27,5.76-.59-3.94-14.06-13.83-19-21.34-30.99-25.65-39.98-4.4-8.92-5.96-14.56-8-20.79-2.95-8.51-15.52-27.73-27.74-46.7-4.74-9.97-14.7-26.18-24.69-42.09-1.07.17-1.55.85-1.13,2.49-.42-1.65.05-2.32,1.13-2.49-.57-2.71-1.18-5.38-1.68-8.12,0-.01-.01-.03-.02-.04,0,.01.02.02.02.04,10.44,10.65,8.55,3.7,3.88-7.92-4.11-10.24-4.82-15.44-3.21-17.52,2.24-2.89.24-10.24-6.74-23.47-3.39-6.68-7.93-14.9-13.81-24.78-2.93-4.94-6.2-10.32-9.79-16.12-3.51-5.86-7.32-12.21-11.41-19.06-3.94-6.54-7.75-12.88-11.44-19.02-3.65-6.18-6.93-12.31-10.14-18.25-6.28-11.95-12.1-23.19-16.27-34.47-2.9-7.15-6.18-14.13-9.81-20.94-4.04-7.74-8.47-15.89-12.19-23.39-6.94-13.86-13.39-26.86-18.85-39.72-5.48-12.85-10.56-25.28-15.41-37.67.37-.33.26-1.69-.34-4.06,2.35,1.2,3.36-.46.03-11.44-4.76-10.29-9.7-20.54-14.39-30.93,4.69,10.38,9.62,20.64,14.39,30.93l6.25,8.7c4.68,5.5,10.73,16.03,17.03,28.8,3.12,6.44,6.45,13.31,9.85,20.32,3.47,6.99,7,14.12,10.44,21.05l9.33,18.17,9.72,17.95c4.51,1.66-9.89-29.11-7.26-31.16-2.75-10.55-4.11-15.81-1.64-12.78,2.54,2.98,8.52,14.46,21.77,36.66,54.91,102.5,117.4,201.16,188.78,292.74,71.28,91.44,150.44,177.46,237.78,252.12,4.14,4.03,8.3,8.03,12.64,11.78,4.37,3.73,8.8,7.34,13.31,10.84,10.71,9.42,21.43,19.02,32.39,27.72,10.91,8.76,21.58,17.23,32.42,24.02,13.88,8.86,27.83,19.03,42.69,29.46,7.38,5.27,14.86,10.8,22.52,16.45,7.72,5.55,15.62,11.24,23.72,17.05,53.93,38.78,110.84,74.6,170.01,105.04,44.84,22.59,45.41,22.4,29.86,8.37-17.08-15.29-50.02-37.54-79.91-60.08-11.7-8.75-20.91-16.28-31.2-24.88-10.31-8.56-22.13-17.48-38.61-29.73-94.31-68.87-163.29-136.98-229.05-209.71-43.45-48.46-77.69-93.68-118.04-147.73-18.22-24.39-37.51-50.78-52.98-75.02-7.54-11.56-8.43-14.91-6.85-14.51,1.61.38,5.88,4.33,9.41,6.83,10.95,14.73,22.65,28.89,35.04,42.43l17.71,19.57c6.06,6.44,12.13,13.01,18.26,19.92,3.79,4.42,7.58,8.83,11.36,13.23l11.71,12.81c7.89,8.42,15.62,16.89,23.92,24.63,12.56,14,24.99,26.6,37.77,37.29,5.8,5.92,11.59,11.82,17.35,17.7l17.84,16.98c11.83,11.3,24.21,21.79,36.62,31.86,95.12,83.45,198.35,157.18,308.15,220.09,0,0,.02.01.03.02,57.66,37.72,120.78,66.48,184.97,91.1,79.98,33.3,162.31,60.34,245.81,82.64,6.34,2.34,12.86,4.18,19.49,5.48l13.27,3.28,13.34,2.98c1.63-.09,3.74-.03,6.08.09-2.34-.12-4.46-.17-6.08-.09,47.87,9.96,96.1,18.21,144.91,25.8,15.07,2.59,33.39,5.23,44.12,4.8,13.4-.56-.27-4.32-9.14-6.99-27.03-7.94-66.65-17.12-107.54-27.46-27.1-11.06-53.95-22.44-99.57-37.01-71.56-22.93-126.55-47.87-186.73-76.95-60.5-29.43-112.9-60.59-165.92-95-7.21-4.55-14.13-9.36-21.25-14.19-7.12-4.82-14.43-9.66-22.24-14.68-15.38-10.46-32.97-21.07-54.62-34.08-19.24-17.86-56.78-45.19-90.74-71.75l-19.72-15.61c-6.39-5.35-12.77-10.69-19.14-16.02-12.82-10.54-25.17-21.7-37.93-32.77-6.43-5.48-12.67-11.3-19.11-17.05l-19.59-17.49c-13.02-12.13-26.91-24.13-41.01-37.26-1.46-1.33-2.72-2.75-4.08-4.13-.01-1.97-3.22-6.14-8.12-11.44-4.92-5.26-11.24-11.97-17.86-18.57-13.97-13.77-26.65-27.85-39.15-41.48-6.19-6.88-12.09-13.91-18.04-20.78-5.92-6.9-11.82-13.74-17.42-20.81-6.93-8.66-14.56-17.56-22.39-26.95-7.76-9.45-16.08-19.06-24.73-28.83-9.19-12.99-20.79-27.52-25.91-37.46-3.1-5.65-6.61-11.07-10.5-16.21-4.45-6.07-9.75-12.66-15.12-19.65-18.45-29.08-46.34-66.61-63.96-97.95-6.45-12.17-14.22-24.88-21.79-38.21-7.5-13.38-15.71-26.8-22.88-40.46-4.13-7.65-7.29-14.01-6.64-15.43.84-1.85,5.52,4.81,11.48,14.31l19.98,32.26c6.42,10.62,13.37,20.91,20.83,30.83,9.23,14.75,19.17,29.02,28.88,43.46,33.98,50.65,72.03,98.48,112.48,143.98,68.07,79.05,143.86,151.31,225.07,216.32,49.72,39.64,99.16,76.75,154.3,110.76,57.86,35.42,117.7,67.51,179.22,96.11,61.54,28.28,124.76,52.75,189.3,73.28,57.41,17.92,110.94,34.75,169.17,46.5l26.49,5.19,26.61,4.54c17.71,3.22,35.58,5.38,53.38,8.01,35.7,4.44,71.5,8.28,107.43,10.33,6.28.41,12.63.81,18.93,1.22,6.31.35,12.59.46,18.73.6,12.29.15,24.03.34,34.44-.94,13.62.03,27.24.44,40.87.19,13.62-.3,27.25-.31,40.86-.83,12.42-.54,26.49-.83,33.6-2.82,8.32-2.32.53-3.86-10.16-4.72l-24.93-2.17c-8.24-.73-16.49-1.87-24.91-2.73l-25.95-2.65c-8.95-1-18.25-1.91-28.09-2.67-8.65-.58-16.47-1.7-24.01-2.8-7.5-1.11-14.86-2.2-22.37-3.32-7.56-1.03-15.38-2.44-24.07-3.45-8.68-1.16-18.24-1.77-29.17-2.84l-19.98-2.12c-35.41-8.2-84.26-15.82-126.56-26.7-4.37-3.34-14.41-7.33-37.06-11.78-9.57-2.42-18.76-5.5-28.02-8.24-9.24-2.83-18.53-5.52-27.98-8.66-9.48-3.05-19.25-5.99-29.54-9.02-10.24-3.23-21.02-6.42-32.64-9.57-6.13-1.82-12.15-4-18.22-5.98-5.51-3.06-14.29-6.43-23.44-9.89-9.09-3.68-18.6-7.41-25.67-10.8-5.84-4.42-27.88-11.45-36.92-16.11-20.37-10.7-46.09-22.87-71.46-35.68-6.39-3.09-12.66-6.44-18.85-9.74-6.16-3.3-12.25-6.57-18.23-9.77-11.83-6.49-22.75-13.23-32.39-19.31-17.83-11.7-39.91-24.54-61.46-38.05-10.89-6.52-21.42-13.65-31.48-20.31-10.1-6.6-19.34-13.49-27.49-19.88-4.92-3.9-10.2-7.73-15.68-11.77-5.45-4.1-11.19-8.25-17.23-12.45-12.18-8.24-25.12-17.41-39.39-26.65-9.65-6.31-23.49-16.3-27.7-20.29-22.69-22.45-56.38-45.46-86.51-70.43-2.08-2.06-4.5-4.23-7.27-6.52l-29.25-24.65-.51.11c-1.07-.03-2.07.08-4.55-1.54,2.48,1.62,3.48,1.51,4.55,1.54l.5-.11,29.25,24.65c-7.78-8.46-18.42-17.45-29.21-26.35-14.06-12.99-28.34-25.71-41.97-39.16-.84-1.53-1.92-2.91-3.2-4.09-.91-3.21-4.19-7.69-14.37-17.78-10.2-10.16-20.52-20.29-30.36-30.84-4.98-5.22-10-10.38-15.05-15.48-5.05-5.1-9.94-10.32-15.03-15.29l-11.74-13.12c-3.89-4.4-7.63-8.93-11.45-13.38-5.05-5.94-10.09-11.87-15.08-17.85,307.73,320.47,743.26,509.88,1216.05,484.95,785.24-41.4,1406.13-659.94,1490.19-1432.66-.19,3.7-.38,7.39-.64,11.05-1.03,17.5-2.03,34.52-3.03,51.68-1.35,17.08-2.47,34.36-5.37,52.18-.75,6.55-1.48,13.13-2.38,19.36-.9,5.8-2.19,11.53-3.87,17.16-2.55,12.17-5.05,24.34-8.05,36.39-1.66,9.1-3.39,17.31-5.48,22.12-8.15,33.96-14.14,72.65-26.04,103.24-2.34,8.96-5.13,17.79-7.8,26.66-2.73,10.36-5.35,20.75-8.44,31l6-.16c3.2-9.1,5.8-18.86,8.63-28.21,2.8-9.36,5.85-18.3,8.79-26.13,5.2-13.32,9.58-26.94,13.13-40.79,1.95-7.4,3.85-15,5.75-22.72,1.79-7.74,3.38-15.63,5.09-23.51,10.33-48.77,17.4-98.5,24.31-147.51,1.15-12.15,2.49-24.26,3.22-36.45.78-12.18,1.99-24.31,2.39-36.52h0l1.52-24.34c-.45-24.38-.45-37.1.63-45.88-1.09,8.78-1.08,21.51-.63,45.89.51.01,1.02.04,1.53.08.73-13.35.87-26.95,2.87-36.59.26-8,.13-16.02.09-24.02.52-9.54,1.05-19.19.97-28.82-.14-9.63-.51-19.24-1.16-28.67-.57-10.09-1.47-19.65-.63-27.04,1.16-11.75,1.11-23.59-.12-35.33-.52-5.9-1.17-11.82-1.81-17.73-.06-.54-.13-1.07-.19-1.6-.37-17.48-1.01-35.02-1.92-52.61-7.67-147.77-35.13-293.83-81.67-434.29.27.56.52,1.14.8,1.7l4.7-.04c-1.52-6.2-4.95-16.72-5.68-21.26-.09-.51-.14-1.03-.13-1.55,0,.52.04,1.04.13,1.55.73,4.54,4.16,15.06,5.68,21.26,3.01,7.92,5.9,14.86,8.79,21.44-2.9-6.58-5.78-13.52-8.8-21.44l-4.7.04c4.73,13.53,9.23,27.4,14.35,41.16,4.83,13.88,9.69,27.85,14.57,41.9,4.51,14.15,9.4,28.21,13.56,42.41,2.03,7.11,4.05,14.21,6.07,21.28l2.91,10.6,2.52,10.64c2.53,11.03,5.81,21.87,9.81,32.44l7.17,29.4c2.38,9.8,4.34,19.71,6.55,29.55l4.4-2.47-1.67-12.27c.56,4.09,1.11,8.19,1.67,12.29l-4.4,2.45c1.73,7.99,3.47,15.98,4.89,24.04.49,10.38,3.69,24.11,5.37,36.61.78,12.27,3.02,26.36,4.58,40.63,1.46,14.28,3.29,28.56,3.29,41.1.1,7.35.82,14.67,2.16,21.9.64,3.6,1.42,7.09,2.28,10.36.81,3.27,1.64,6.33,2.56,9.05,7.22,21.53,7.71,23.82,8.2,68.69,1.53.62,2.93,2.48,4.09,7.03-1.15-4.54-2.55-6.4-4.08-7.02l-2.26,5.75c-3.46-.64-7.05-2.31-10.45-1.58-2.46.59-5.04,50.94-4.68,70,.54,13.34,1.98,13.34,3.3,12.68,1.46-.73,2.02-9.7,2.77-17.44,2.49-25.34,5.95-18.4,9.3-4.75,1.57,6.7,3.13,18.88,4.31,28.6.07,3.18.23,6.05.48,8.59l-1.38,12.49c1.63,27.23-1.07,57.73-1.83,85.76-.23-1.59-.55-2.07-.95-1.42.05,3.98.01,7.53-.11,10.65-.19,3.11-.49,5.81-.84,8.12-.71,4.61-1.7,7.66-2.93,9.36l-.17,1.84c-.72,10.47-2.16,25.46-3.53,25.81-6.61,1.91-9.38,31.84-13.61,66.15-.23,10.6-1.78,23.37-2.22,33.66-.48,10.28-.39,17.98,1.81,18.27-.5,3-.82,6.03-.97,9.08l-1.62,14.65c-.73,3.38-1.25,6.79-1.57,10.23-4.22,20-8.17,40.06-13.09,59.9l-.03.1h0c-1.38.1-3.68,6.49-6.02,13.25-.36,3.37-.82,6.73-1.31,10.08-3.96,12.61-6.29,24.54-8.96,36.39-2.81,11.81-5.52,23.69-9.83,36.2-.75,3.26-1.49,6.48-2.22,9.66-3.19,9.83-6.17,19.73-9.49,29.52l-10.11,29.3c.57-.73.91-.77,1.02-.11l2.21,1.16c2.92-10.08,7.5-22.28,11.19-33.32,1.28-4.18,2.43-8.19,3.34-11.86-.91,3.67-2.06,7.69-3.34,11.86-3.69,11.05-8.27,23.24-11.19,33.32-1.16,6.76-2.12,13.96-4.82,21.35,2.7-7.39,3.65-14.59,4.82-21.35l-2.21-1.16c-4.04,10.66-8.29,19.02-12.33,27.72l-6.21,13.53c-2.2,4.73-4.44,9.84-6.73,15.62l-5.08,1.06c-2.85,7.09-5.44,14.26-8.5,21.2-13.45,33.26-28.21,65.99-43.71,98.37-1.38,3.11-2.72,6.15-4.03,9.1.14,4.4-3.93,14.47-11.32,28.61-6.63,12.18-13.31,24.45-19.98,36.68-7,12.04-13.76,24.16-21.32,35.48l.2.54,1.73-2.36c-7.34,10.19-13.42,21.22-19.6,32.22-5.91,10.07-10.83,16.76-14.87,20.5-3.8,5.84-7.79,11.55-11.82,17.23-3.72,4.19-7.16,7.34-11.19,12.74-5.61,7.7-11.78,14.84-17.81,22.1-6.07,7.32-12.13,14.63-18.18,21.93-6.1,7.42-12.02,15.17-17.74,23.51-6.16,8.56-11.75,17.51-16.74,26.81-2.24,4.54-14.11,18.02-21.59,27.3-5.61,7.03-11.7,13.73-17.42,20.52-5.8,6.73-11.13,13.65-16.29,20.2-8.22,8.28-16.2,16.98-24.35,25.63-8.25,8.55-16.4,17.34-24.62,26.09-6.08,4.59-11.83,9.62-17.19,15.04-2.82,2.82-5.64,5.76-8.43,8.83l-8.57,9.23-19.43,18.4-19.86,17.91c-6.55,6.05-13.33,11.83-20.1,17.62-6.79,5.76-13.43,11.71-20.33,17.33-21.34,15.83-44.08,36.9-65.19,50.41-41.47,26.87-85.41,56.92-131.14,84.7-86.54,52.65-177.74,97.42-273.2,130.5-55.05,18.98-111.25,34.43-168.26,46.26-12.39,2.49-24.82,4.82-37.11,7.57-12.34,2.53-24.64,5.07-36.74,8.31-7.23,1.95-14.26,3.65-11.51,4.5,1.45.39,7.27.22,12.15-.54,7.1-1,15.19-2.42,22.86-3.9,79.62-15.96,153.28-31.03,230.76-60.24,3.57-1.27,7.43-2.55,10.9-3.72,15.84-5.26,32.09-10.8,48.22-17.32,16.28-6.14,32.4-13.29,48.62-20.25,32.18-14.51,64.17-29.55,94.36-44.4,12.93-6.56,25.52-13.77,38.23-20.76,8.62-3.71,16.81-8.37,24.4-13.9l15.81-9.57,15.59-9.96c17.24-7.94,34.32-20.48,51.38-33.33,9.58-5.94,19.43-12.35,29.42-19,9.82-6.89,19.76-14.07,29.75-21.26,25.48-16.95,52.23-38.49,77.56-60.37h0c5.89-4.98,11.96-9.76,17.72-14.89h0c6.59-3.95,12.32-9.18,16.84-15.4,37.59-32.81,73.27-67.76,106.85-104.67,8.92-9.49,17.31-19.32,25.92-28.93,8.7-9.53,16.98-19.41,25.66-29.05,32.75-37.07,63.19-76.1,91.18-116.89,18.88-27.1,36.58-55.88,53.81-83.8,8.33-14.14,17.04-27.77,24.99-41.33,4.06-6.74,8.13-13.33,12.21-19.78,3.98-6.5,7.85-12.9,11.81-19.07,8.65-13.26,14.48-27.48,18.64-39.96l6.49-13.08,6.2-13.22c4.07-8.84,8.43-17.56,12.28-26.51,6.2-11.05,11.71-22.46,16.52-34.18,4.82-12.23,9.63-24.91,13.81-37.97,4.4-10.8,8.66-21.79,12.66-32.94l11.32-33.72s0,0,0-.01c3.46-5.68,7.42-16.34,11.36-27.74,16.5-48.98,31.63-98.01,41.58-151.12,1.74-8.49,3.44-16.84,5.15-25.2,1.79-8.3,3.57-16.59,5.36-24.85,1.74-8.28,3.11-16.62,4.46-25.03,1.42-8.47,2.4-17.01,2.96-25.59,8.76-57.87,14.47-116.15,17.11-174.62l1.13-22.08.57-22.12c.6-5.78,1.12-11.79,1.57-17.99.39-6.19.54-12.57.72-19.06.34-13,.6-26.5.21-40.07-.27-13.58-.33-27.25-.95-40.57-.18-6.65-.36-13.22-.54-19.71-.05-3.22-.1-6.42-.14-9.59-.09-3.14-.18-6.25-.27-9.34-.58-1.57-1.1-2.14-1.54-1.69-1.84-15.93-3.5-31.86-5.89-47.68h0c1.13-9.22-.7-23.79-3.43-38.39-1.91-14.28-3.67-28.59-6.08-42.79l-3.37-21.34c-1.1-7.12-2.55-14.17-3.81-21.26-.92-7.13-2.01-14.35-3.22-21.61-1.31-7.25-2.9-14.51-4.44-21.82-1.59-7.3-3.15-14.65-4.87-21.95-1.79-7.29-3.58-14.56-5.36-21.81-.54-3.15-1.15-6.41-1.83-9.77,1.3-.4,1.42-4.03.44-9.78-.98-5.74-2.89-13.64-5.22-22.7-3.73-15.16-7.38-29.59-3.73-25.93,1.55,1.58,3.44,4.64,5.69,9.75,2.85,7.27,5.28,14.69,7.27,22.24,5.03,17.48,6.66,30.28,9.25,44.95,1.99,11.1,3.81,21.25,5.48,30.55,1.76,9.39,3.74,17.91,5.54,25.64,3.47,15.49,7.29,27.59,11.37,36.14,4.35,24.98,7.43,43.92,8.58,60.18.68,8.11,1.08,15.52,1.25,22.62.05,7.12-.26,13.95-.71,20.86-.63,8.72.83,18.13,2.13,25.35,11.93,65.53,10.06,129.1,7.53,192.68.51,17.07-.43,34.1-1.37,51.1.54,14.55-.01,27.97-.72,42.07-.83,14.09-2.75,28.79-4.9,45.95-8.14,58.28-17.38,120.37-20.09,168.3-.39,8.02-1.27,16-2.64,23.91-.74,3.96-1.68,8.14-3.01,12.83-1.42,4.67-3.18,9.86-5.41,15.89-10.17,28.75-21.17,75.12-33.93,112.55-3.93,11.14-7.23,23.71-11.37,35.45-7.92,25.83-17.26,52.1-27.59,73.71-40.21,84.71-84.4,175.7-137.16,263.75-14.24,20.53-27.81,42.22-41.81,63.78-25.17,30.04-44.03,63.53-68.27,93.89-6.75,8.83-12.72,16.76-14.79,20.81s-.37,4.09,7.83-3.31c11.46-10.41,7.15-2.54-.86,9.46-5.42,8.03-11.61,17.12-17.76,25.48-24.04,28.68-49.39,56.24-74.98,83.38l-18.39,18.84-9.17,9.42-9.37,9.21-18.72,18.43-19.12,17.97c-7.19,6.9-14.21,13.42-19.18,18.6-4.96,5.2-7.88,9.06-7.1,10.32,1.17,1.93,16.6-11.27,25.78-18.22,28.73-21.54,58.39-48.31,87.51-76.96,29.01-28.77,57.12-59.71,83.73-89.11,18.18-20.33,36.64-40.53,54.38-64.06l16.56-22.08,16.1-22.44,8.05-11.22,7.77-11.42,15.51-22.87c9.91-15.55,20.15-30.88,29.49-46.82,4.71-7.94,9.61-15.76,14.14-23.82,4.5-8.06,9.01-16.13,13.53-24.2,6.7-10.72,12.84-21.78,19.32-32.66,5.1-10.63,10.58-21.53,16.43-32.26,17.43-37.31,36.89-75.75,50.66-114.68,3.55-9.3,7.1-18.85,11.02-27.48,3.46-7.76,7.36-15.31,11.66-22.63,4.58-7.66,9.42-16.49,14.68-27.25,5.2-10.78,10.38-23.65,16.29-39.12,7.55-21.11,12.62-28.32,17.64-36.48,2.24-3.67,3.73-2.68,3.59,1.41-.31,8.79-3.96,22.69-8.53,37.75-4.95,14.94-10.37,31.2-14.54,44.72-6.28,20.46-13.74,34.6-17.12,35.34-3.94.95-10.08,15.2-18.04,34.99l-.06.17c-7.96,42.54-27.98,84.83-55.69,118.53-1.83,3.39-3.61,6.52-5.36,9.38-21.16,45.48-46.68,90.24-74.52,133.6-4.89,7.74-9.68,15.85-14.64,23.3-4.55,6.89-9.58,13.46-15.04,19.66l-7.77,11.29c-2.67,3.69-5.29,7.37-7.77,10.97-4.62,6.5-8.76,13.33-12.39,20.43-6.79,14.35-14.94,28.03-24.32,40.83-11.33,14.89-23.82,28.85-37.36,41.75-5.42,6.61-10.63,13.41-16.21,19.88-27.25,40.55-66.75,80.03-105.6,117.22-37.76,38.63-79.33,73.97-120.89,108.36,3.41-1.68,6.63-3.72,9.61-6.08-2.98,2.36-6.2,4.4-9.61,6.09-33.29,26.13-67.7,50.72-102.75,74.2l-22.32,15.98c-1.21.26-1.58-.06-1.13-.93-6.82,4-13.69,7.87-20.61,12.07-6.95,4.14-13.85,8.77-21.19,13.57-59.92,33.87-123.14,67.76-187.7,95.17-21.42,9.46-47.18,20.94-50.97,26.09-3.4,4.44,21.15-4.12,37.52-9.59,7.51-2.6,15.13-5.33,22.85-8.17l11.65-4.36c3.87-1.59,7.76-3.19,11.66-4.8,7.84-3.32,15.74-6.67,23.71-10.04,7.92-3.58,15.86-7.36,23.9-11.17,16.16-7.43,32.1-16.14,48.43-24.64,8.08-4.42,16.12-9.04,24.24-13.63,4.05-2.31,8.12-4.62,12.19-6.94l12.07-7.3c43.24-20.58,91.29-52.01,136.93-85.26,5.64-2.72,12.35-7.23,19.43-12.36s14.33-11.21,21.39-16.59c35.8-23.24,74.29-54.05,112.43-89.71l19.18-17.84,23.54-21.06c7.69-6.86,15.43-13.51,22.93-20.75,7.56-7.17,15.31-14.51,23.13-22.59,7.71-8.18,15.63-16.97,23.89-26.71,9.97-10.1,20.04-21.55,30.16-33.38,12.36-11.34,25.8-27.22,38.56-45.52,13.83-15.63,26.48-33.73,39.39-51.07,36.02-40.76,71.55-96.71,103.41-150.86l10.26-17.11c21.17-32.45,42.02-69.91,61.44-110.34l10.09-21.51c20-38.45,37.47-81.76,52.81-125.34,3.87-8.77,7.05-18.16,10.46-27.6,3.33-9.47,6.72-19.07,9.71-28.72,4.03-11.7,8.33-23.31,12.18-35.06,3.82-11.77,7.65-23.54,11.47-35.32,3.52-11.9,7.05-23.82,10.58-35.76,3.47-11.98,6.5-24.14,9.74-36.32,2.92-10.67,5.62-21.24,8.35-32.14,2.99-11.35,5.22-22.9,6.66-34.55,1.97-10.2,4.08-20.37,5.95-30.59l5.27-30.73c3.36-9.41,6.86-28.48,8.36-19.82,1.59,8.58-1.76,29.36-4.69,45.5-1.2,6.86-2.43,13.43-3.62,19.78-1.15,6.36-2.18,12.52-3.11,18.52l-5.3,34.56c-3.14,22.4-6.74,43.9-11.88,67.86-3.01,12.77-3.58,21.21-2.97,25.3.61,4.49-.16,12.43-2.49,22.28-2.23,9.88-5.51,21.8-9.15,34.49-18.81,62.27-40.93,123.5-66.25,183.42-4.15,9.92-8.31,19.83-12.83,29.58-4.45,9.78-8.8,19.61-13.37,29.34l-14.04,29.01c-4.6,9.71-9.75,19.14-14.6,28.73-19.78,38.13-40.81,75.59-63.38,112.05-22.48,36.5-45.9,72.4-70.76,107.2-24.81,34.83-50.26,69.18-77.07,102.37-25.17,31.33-51.36,61.72-79,90.58l-10.29,10.89c-3.46,3.6-7.02,7.1-10.52,10.65l-21.15,21.17c-14.48,13.69-28.72,27.63-43.65,40.79-58.96,53.48-121.85,102.06-187.17,147.1-33.04,22.71-66.52,43.17-100.2,62.33-8.46,4.72-16.99,9.26-25.46,13.85l-12.71,6.85-12.86,6.51-25.7,12.91-25.99,12.22c-47.24,22.02-96.19,43.04-120.89,61.45,7.42-1.68,14.78-3.32,23.5-5.77,4.36-1.23,9.07-2.64,14.28-4.39,5.17-1.86,10.86-4.04,17.23-6.64,15.87-6.47,24.74-9.21,28.93-9.77,4.23-.48,3.92,1.5,1.43,4.5-2.93,3.64-10.7,7.73-20.11,11.99-9.44,4.2-20.38,8.85-30.08,12.68-12.22,4.86-26.06,10.3-38.99,15.15-12.96,4.8-24.83,9.5-32.83,13.76-12.67,6.43-26.84,13.15-39.87,19.68-13.14,6.19-25.16,12.12-33.42,17.23-7.48,4.62-5.99,5.86,13.24.36l23.97-6.85,23.75-7.39c15.9-4.77,31.59-10.27,47.5-15.76,3.97-1.39,7.95-2.79,11.94-4.19,3.96-1.5,7.93-3,11.91-4.51,7.97-3.07,15.99-6.16,24.06-9.27,8.06-3.19,16.08-6.71,24.23-10.17,8.11-3.56,16.42-6.93,24.59-10.89,5.54-.55,17.61-6.17,29.89-12.05,49.96-24.52,98.07-49.68,145.07-77.1,9-4.98,17.57-10.71,25.6-17.14l20-12.26c1.32.75,4.69.12,3.61,2.36-3.76,7.52-12.26,15.65-24.96,24.72-7.18,5.07-14.63,9.73-22.33,13.97-8.53,4.77-17.92,10.01-28.46,15.1-11.68,5.59-23.79,12.05-36.27,18.83-12.58,6.58-25.3,13.88-38.1,21.31l-20.02,10.45c-6.43,2.84-12.53,5.92-18.6,8.8-6.07,2.88-11.97,5.85-17.79,8.85l-17.34,9.06-17.59,8.62c-6.79,3.25-13.1,6.59-19.71,9.88-7.06,3.44-14.32,6.46-21.73,9.04-50.64,17.66-103.4,38.69-156.83,55.79-8.66,2-17.34,4.39-26.03,7.04-8.68,2.68-17.51,5.19-26.28,8.09-50.23,12.25-100.81,23-151.74,32.26-50.96,9.13-102.26,16.93-153.91,23.42-10.02.58-17.98,1.32-24.53,2.17-6.56.75-11.71,1.53-16.1,2.44-8.77,1.8-14.49,3.9-22.32,5.71-19.05,4.42-2.24,4.93,22.04,4.36h.34c11.4,3.1,34.68-.98,53.95-2.76,5.13,1.63,18.88,1.07,33.52-.17ZM1215.26,900.57c5.08.46,10.21.3,15.25-.47.95-.09,1.89-.27,2.81-.54-.92.27-1.86.46-2.81.55-5.05.77-10.17.93-15.25.47ZM1167.02,886.31l55.28-1.86c4.59-.06,9.19-.15,13.78-.27-4.6.12-9.19.21-13.78.27l-55.28,1.86ZM1228.98,961.1c10.74-.45,21.48-.9,32.23-1.35h0l-32.24,1.35c-10.74.4-21.44,1.37-32.16,2.02-10.55.6-21.1,1.45-31.67,2.37,10.57-.92,21.12-1.77,31.67-2.37,10.72-.65,21.43-1.62,32.16-2.02h0ZM1262.31,956.72h-.02c-9.39-.53-14.47-1.34-11.62-2.5-2.86,1.17,2.22,1.98,11.63,2.5h0ZM1205.03,952.24c9.86-1.55,18.66-3.29,26.3-4.91-7.65,1.62-16.45,3.35-26.31,4.91h0ZM732.61,973.96c.97-.9,4.22-2.37,10.03-4.65,5.85-2.14,14.26-5.02,25.49-8.85.12-.33.26-.66.44-.97-.17.31-.32.63-.44.97,8.12-2.17,16.19-4.52,24.35-6.52l24.47-6.01c16.28-4.16,32.72-7.62,49.12-11.21,2.52,2.18-.89,5-29.56,11.99-14.88,3.96-29.4,8.09-43.47,12.23-14.03,4.33-27.54,8.97-40.54,13.45-14.58.65-21.79,1.44-19.89-.43h0ZM1032.25,975.13c3.4-.57,6.77-1.32,10.09-2.24,4.84-1.43,6.21-2.76,6.05-4.08l27.01-3.48c-.9-2.65,9.11-6.35,7.07-8.75,2.04,2.4-7.97,6.1-7.07,8.75l-27,3.48c.16,1.32-1.22,2.65-6.06,4.07-3.32.92-6.69,1.66-10.09,2.24-1.1.22-2.26.44-3.5.67,1.24-.23,2.4-.45,3.49-.67h0ZM563.48,1007.76c.13-.07.22-.12.25-.14l-.25.14ZM562.9,1008.07l-.67.35.67-.35ZM1617.51,844.32c-4.44-.31-9.52-.95-14.92-1.75,5.4.8,10.49,1.44,14.92,1.75h0ZM1578.88,838.66c7.8,1.32,15.82,2.73,23.25,3.84-7.43-1.11-15.46-2.53-23.26-3.84-16.52-2.64-32.85-4.63-48.66-6.47,15.81,1.84,32.15,3.83,48.67,6.48h0ZM-371.98,3855.61c4.81,8.41,9.62,16.86,14.7,25.11,8.45,13.42,15.91,26.05,21.52,35.86,2.99,4.95,5.55,10.16,7.65,15.55-2.1-5.4-4.66-10.6-7.65-15.56-5.61-9.8-13.07-22.42-21.52-35.84h0c-5.08-8.25-9.89-16.7-14.72-25.14-3.67-6.47-7.41-12.9-11.08-19.37,3.68,6.47,7.42,12.91,11.1,19.39ZM-450.91,3742.48c-.03.82-.58.48-1.53-.7.95,1.19,1.51,1.51,1.53.7ZM-472.25,3656.06c-1.35-.21-2.76-.5-5.02-2.87,2.26,2.36,3.67,2.65,5.02,2.86,2.25.35,4.32.5,10.26,9.43-5.94-8.93-8.01-9.08-10.26-9.43ZM-460.81,3667.3s.04.06.06.09c-5.07-11.52-11.05-25.12-16.52-37.57-.97-2.25-1.89-4.46-2.78-6.62.89,2.17,1.82,4.37,2.78,6.62,5.48,12.45,11.46,26.05,16.53,37.58-.03-.04-.04-.06-.06-.1h0ZM948.02,4626.46l-2.05,4.28,5.23,1.74-5.23-1.74,2.04-4.28c15.25,1.44,13.17-1.01,13.71-2.87-.55,1.86,1.52,4.31-13.7,2.87ZM425.91,4433.03h0c-4.85-.95-8.53-1.23-8.59.37.05-1.6,3.74-1.32,8.59-.37ZM76.98,4192.42c-3.44-3.22-6.81-6.44-10.05-9.6h0c3.24,3.16,6.62,6.38,10.05,9.6ZM-33.93,4050.72c2.96,4.25,5.9,8.46,8.82,12.66,3.01,4.13,6.01,8.27,9.03,12.4-3.02-4.15-6.03-8.28-9.02-12.4-2.93-4.21-5.87-8.43-8.82-12.66h0ZM-41.77,3953.62c7.11,7.21,8.7,7.02,9.59,5.9-.88,1.12-2.47,1.31-9.59-5.9ZM-48.32,3956.11l4.94-4.15c.5.53.97,1.01,1.43,1.48-.46-.47-.93-.95-1.43-1.48l-4.94,4.15ZM-122.76,3981.68c-3.92-4.96-7.91-10.24-11.81-15.29,3.91,5.05,7.9,10.33,11.81,15.29l.73,1.24-.73-1.23ZM-78.25,3998.84l-20.92-18.09,20.91,18.09,21.92,26.15-21.92-26.15ZM-68.43,3990.35l-9.75-9.59,9.75,9.59,7.27-6.49h0l-7.27,6.49c14.61,17.75,24.76,28.9,32.46,35.89-7.7-6.99-17.85-18.14-32.46-35.89h0ZM-32.37,3942.53c18.03,22.02,35.3,43.12,52.86,64.56-17.56-21.44-34.83-42.54-52.86-64.56-1.95-.52-1.71,1.58-.87,4.4-.84-2.82-1.07-4.92.87-4.4h0ZM-89.86,3951.95c1.86,2.07,3.8,4.22,5.72,6.35-1.92-2.13-3.86-4.28-5.72-6.35-3.02-3.41-5.95-6.72-8.75-9.89,2.81,3.17,5.74,6.48,8.76,9.89h0ZM-239.84,3809.69c-4.19-7.01-8.3-14.05-12.43-21.1,4.12,7.05,8.24,14.09,12.43,21.1,1.79,4.07,3.99,8.38,6.45,12.86-2.46-4.48-4.66-8.79-6.45-12.86h0ZM-182.57,3859.92l-6.51-7.58c-.92-1.06-1.83-2.08-2.71-3.07.89,1,1.79,2.01,2.71,3.07,2.13,2.48,4.32,5.03,6.51,7.58l6.14,6.83c-2.01-2.25-4.07-4.53-6.13-6.82h0ZM-51,3906.92c-1,1.2-2.61,1.52-10.95-7.58l-2.77,4.22c9.16,14.72,13.41,22.33,12.39,23.02-.56.39-2.43-.96-5.62-4.04,3.19,3.08,5.07,4.42,5.62,4.04,1.02-.69-3.23-8.31-12.4-23.04l2.78-4.2c8.35,9.11,9.97,8.78,10.96,7.59h0ZM-86.27,3901.8c5.18,5.31,10.37,10.65,11.61,9.96l.02.02c-1.24.68-6.44-4.66-11.62-9.97-1.13-1.13-2.23-2.26-3.29-3.35,1.07,1.09,2.17,2.22,3.29,3.35h0ZM-91.31,3896.66c-.38-.38-.74-.75-1.1-1.1.37.35.73.71,1.11,1.1h0ZM-116.74,3892.19c.23.36.48.75.72,1.12-.24-.37-.49-.76-.72-1.11-.46-.72-.87-1.4-1.28-2.08.43.68.84,1.36,1.29,2.08h0ZM-164.95,3861.29c6.57,9.98,13.09,20.01,19.79,29.9-6.7-9.89-13.22-19.9-19.79-29.88l-10.93,6.06,10.92-6.07c-4.56-7.12-9.05-14.57-13.31-21.87,4.28,7.29,8.76,14.75,13.32,21.87h0ZM-158.16,3816.53c.87,1.01,1.72,1.96,2.56,2.82-1.48-4.25-2.79-8.27-4.33-12.6,1.54,4.33,2.85,8.35,4.34,12.6-.83-.86-1.68-1.8-2.55-2.82h0ZM-177.24,3787.73c4.21,7.53,8.8,14.84,13.74,21.91,1.65,2.3,3.26,4.39,4.85,6.28-1.58-1.89-3.2-3.98-4.85-6.28-4.95-7.07-9.53-14.38-13.74-21.91,2.25-3.07-4.05-18.82-7.19-29.86,3.13,11.04,9.44,26.8,7.19,29.86ZM774.28,4410.05h0c-9.71-2.96-19.34-6.36-28.83-9.77,9.49,3.41,19.12,6.82,28.83,9.77ZM339.44,4220.7c5.89,4.14,12.15,8.52,17.83,12.67-5.68-4.15-11.94-8.53-17.83-12.67ZM326.97,4220.33c-2.22-1.1-4.37-2.33-6.45-3.67,2.08,1.34,4.23,2.56,6.45,3.67ZM210.75,4024.95h0c-2.12-1.98-4.14-3.85-6.1-5.63,1.96,1.78,3.98,3.65,6.1,5.63ZM2882.2,2217.52h0l-4.69-11.76,4.69,11.76ZM2824.73,2211.41c1.11,4.14,2.46,9.21,3.56,13.76-1.1-4.55-2.45-9.63-3.56-13.76-2.51-4.79-4.3-7.76-5.38-8.93,1.07,1.18,2.86,4.14,5.37,8.93h0ZM2800.16,2220.72c.27-.1.37-.62.42-1.26.03-.32.04-.67.06-1.02-.02.35-.03.7-.06,1.02-.06.64-.16,1.16-.43,1.27h0ZM2807.5,2219.48c-2.18-9.18-1.95-12.52-.59-13.11-1.35.59-1.58,3.93.6,13.11,1.54,4.11,3.26,8.83,4.41,12.55-1.16-3.72-2.88-8.44-4.42-12.55h0ZM2870.91,2189.6c-.54-1.3-1.07-2.59-1.56-3.76-.42-1.02-.8-1.97-1.17-2.9.37.93.75,1.87,1.17,2.9.48,1.17,1.02,2.47,1.56,3.76h0ZM-366.49,2752.14c.25-2.78.67-5.53,1.27-8.26-.59,2.72-1.02,5.48-1.27,8.26ZM-358.2,2737.35c.44-1.58.88-3.51,1.33-5.54v.02c-.45,2.03-.89,3.97-1.33,5.52h0ZM-351.89,2546.96c-.78,4.15-1.53,8.31-2.15,12.49-1.69-.06-3.23-1.51-5.3,1.98,2.07-3.5,3.61-2.04,5.3-1.99.63-4.18,1.37-8.33,2.15-12.49ZM-557,2550.68c-.25,9.82-2.09,25.35-4.84,45.66l-.39,2.82.39-2.82c2.74-20.31,4.59-35.84,4.84-45.66h0ZM-388.75,2552.63h0c.91,3.41,3.88-2.14,4.23,3.44-.35-5.57-3.32-.02-4.23-3.44h0ZM-361.91,2567.7c.47-1.51,1.01-3,1.64-4.45-.63,1.45-1.17,2.94-1.64,4.45h0ZM-673.18,2542.25c.36-1.67.72-3.52,1.09-5.53-.36,2.01-.73,3.85-1.08,5.53h0ZM-376.81,2511.1c1.21-2.64,2.43-5.18,3.72-8.16h0c-1.29,2.98-2.51,5.51-3.72,8.15h0ZM-469.54,2454.9h0c1.85-.95,3.07,1.13,5.05-.94.13-.13.26-.27.39-.44-.12.15-.25.3-.39.44-1.98,2.07-3.19-.02-5.04.93h0ZM-551.77,2432.34c.75-3.55,1.53-7.07,2.36-10.53,1.12-13.48,3.14-26.87,6.06-40.08-2.92,13.21-4.94,26.6-6.06,40.07-.82,3.46-1.6,6.98-2.35,10.53h0ZM-502.97,2362.21c-.12-2.29-.5-3.74-1.21-4.07,2.11-8.02,3.97-14.25,5.6-18.76-1.62,4.51-3.48,10.74-5.6,18.76.71.33,1.09,1.77,1.21,4.07h0ZM-455.33,2224l-8.94,26.49h0l8.94-26.49ZM-464.5,2250.43l-4.49-1.21h0l4.49,1.21ZM-218.19,2022.81c2.96-.69,2.07,6.3-1.33,20.99l1.35.84-1.35-.84c3.4-14.7,4.29-21.68,1.33-20.99-3.03.64-9.5,9.18-20.22,25.79-3.65-1.86-7.52-3.31-11.06-5.39,3.54,2.07,7.41,3.52,11.06,5.39,10.72-16.62,17.19-25.15,20.22-25.79h0ZM-267.39,1991.18c1.45-1.67,2.81-3.42,4.08-5.23-1.27,1.81-2.63,3.55-4.08,5.23h0ZM-287.37,1950.34c-4.06,8.83-9.1,18.87-15.74,30.84l-.21.51.2-.5c6.64-11.99,11.69-22.03,15.75-30.86h0ZM-240.77,1951.55c8.21-9.94,9.76-6.88,12.18-5.65l6.42-11.2-6.42,11.21c-2.42-1.24-3.96-4.29-12.17,5.64h0ZM-245.57,1953.73c2.19-4.28,4.61-8.48,7.13-12.67-2.52,4.18-4.94,8.39-7.13,12.66h0ZM-256.37,1975.12c-1.39,2.34-2.68,4.43-3.86,6.26,1.18-1.83,2.47-3.92,3.87-6.26h0ZM-254.25,1971.51s-.03.06-.05.09c.02-.04.04-.06.05-.09h0ZM-253.72,1820.27c.96-2.12,2-4.35,3.07-6.62-1.07,2.27-2.11,4.5-3.07,6.62-6.2,13.72-9.76,23.92-6.94,25.47-4.46,7.92-8.46,16.12-12.7,24.16,4.24-8.03,8.24-16.23,12.69-24.15-2.81-1.56.75-11.76,6.95-25.48h0ZM-201.21,1780.86c-3.73,6.21-6.66,11.67-8.01,15.75h0c1.36-4.07,4.29-9.53,8.02-15.75h0ZM-301.34,1823.59c-2.83,5.16-5.72,10.55-8.8,16.13,3.09-5.58,5.98-10.97,8.8-16.13,3.47-6.19,6.69-12.2,9.83-18.12-3.14,5.93-6.36,11.94-9.83,18.13h0ZM-96.44,1840.36l2.52,4.5-2.53-4.48s.01,0,.02-.01h0ZM-112.04,1851.83c1.08-1.44,2.15-2.84,3.21-4.19-1.06,1.35-2.13,2.74-3.21,4.19-4.2,5.86-8.58,12.41-12.92,18.83-1.69-.82-3.68-1.21-3.96-4.03.28,2.82,2.27,3.21,3.96,4.03,4.35-6.41,8.73-12.96,12.93-18.82h0ZM-160.8,1860.95c-6.13,6.08-12.8,13.27-19.38,20.66h0c6.58-7.4,13.25-14.59,19.38-20.67h0ZM-164.72,1758.19c-2.62,3.57-5.21,7.13-7.83,10.65,2.61-3.52,5.21-7.09,7.83-10.65,5.3-7.09,10.63-14.2,15.97-21.33l4.17,2.45h0l-4.18-2.44c-5.33,7.13-10.65,14.24-15.96,21.33h0ZM11.26,1715.89c-1.12,1.68-2.17,3.33-3.13,5.03.97-1.69,2.02-3.35,3.13-5.02h0ZM-84.62,1699.12l17.4-21.44h0l-17.4,21.44c-4.75,5.64-9.16,11.31-13.36,16.93,4.2-5.62,8.61-11.29,13.36-16.92h0ZM-75.54,1652.66h0c-8.09,7.1-15.74,14.68-22.92,22.7,7.18-8.02,14.83-15.6,22.92-22.69h0ZM25.49,1572.92c-4.02,4.12-8.23,8.36-12.14,12.62,3.91-4.26,8.12-8.5,12.14-12.62h0ZM114.92,1501.5c-4.86,6.18-14.58,16.06-24.98,26.5.33.43.7.82,1.1,1.18,1.73-1.4,3.2-2.49,4.48-3.38-1.29.89-2.76,1.98-4.48,3.38.25,2.14,3.43,1.72,2.36,4.94,1.06-3.22-2.11-2.81-2.36-4.94-.4-.36-.77-.75-1.1-1.18l-29.34,28.1c1.3.02,1.99.52,2.07,1.52-.08-1-.77-1.5-2.07-1.51l-3.27-3.56,3.27,3.55,29.34-28.1c10.41-10.44,20.12-20.31,24.99-26.49h0ZM96.99,1495.09l-20.17,18.44c-.63-1.03-1.84-1.36-4.72.26,2.89-1.62,4.09-1.29,4.72-.26l20.17-18.44ZM172.88,1493.26c-21.68,18.47-42.66,37.47-61.58,57.1-.52,2.27-1.48,5.1-6.66,11.15,5.18-6.05,6.14-8.88,6.65-11.14,18.93-19.63,39.91-38.64,61.59-57.11h0ZM49.99,1503.28l-6.09-5.48h0l6.09,5.46c9.31-7.37,11.37-7.52,11.41-5.59-.04-1.92-2.11-1.78-11.42,5.61h0ZM-86.25,1507.22l-11.86,10.24,11.87-10.24c1.41-.36,3.01-.71,6.8-4.05-3.8,3.35-5.38,3.7-6.8,4.06h0ZM60.48,1540.74c-6.06,5.51-11.59,11.58-16.5,18.13-7.99,9.23-13.21,14.41-17.08,17.66,3.87-3.25,9.09-8.43,17.08-17.66,4.91-6.55,10.44-12.62,16.5-18.13h0ZM48.06,1544.02s.01-.01.02-.02c.54-.58,1.15-1.21,1.74-1.82-.58.61-1.2,1.24-1.74,1.82,0,0,0,.01-.01.02h0ZM23.17,1579.39c-.43.3-.85.58-1.25.84.4-.26.82-.54,1.26-.84h0ZM186.25,1454.37c5.54-4.69,11.08-8.79,16.21-12.55-5.13,3.76-10.67,7.86-16.21,12.55-3.13,2.61-6.31,5.33-9.53,8.1,3.21-2.78,6.4-5.49,9.53-8.1ZM216.19,1413.37c.31-.29.62-.59.93-.88-.31.29-.62.58-.93.88-7.16,6.96-14.73,14.24-26.04,23.42-1.11-.81-1.73-1.89-.81-4.08-.91,2.19-.29,3.27.82,4.08,11.31-9.19,18.88-16.47,26.04-23.42h0ZM191.59,1429.03c.66-.89,1.42-1.84,2.39-2.95-.97,1.11-1.72,2.07-2.39,2.95h0ZM231.02,1425.61c-1.77,1.91-3.48,3.89-5.21,5.86,1.73-1.97,3.44-3.95,5.21-5.86-5.65.92-14.54,6.27-25.29,13.86,10.75-7.6,19.64-12.95,25.29-13.87h0ZM327.89,1425.12h0l-1.74-2.61,1.74,2.61ZM213.45,1369.64c1.26-1.32,2.46-2.6,3.61-3.84-1.15,1.24-2.35,2.52-3.61,3.84-2.6,2.72-5.43,5.6-8.37,8.54,2.94-2.95,5.77-5.82,8.37-8.54ZM227.08,1348.64c-.49-1.06-1.57-1.73-2.74-1.68,1.17-.04,2.25.62,2.74,1.68,1.86.84,1.03,3.33-1.57,6.98-.67.97-1.48,2.04-2.38,3.16.9-1.12,1.71-2.19,2.38-3.16,2.6-3.64,3.43-6.14,1.57-6.98h0ZM445.39,1338.66c-8.61,4.59-17.23,9.11-25.82,14.05l-4.93,3.03,4.94-3.03c8.59-4.94,17.22-9.46,25.82-14.04h0ZM275.68,1372.58c-1.86.05-4.84.99-9.82,3.49-2.85,1.43-6.34,3.37-10.65,5.95-4.33,2.55-9.42,5.8-15.38,9.97h0c5.96-4.17,11.05-7.42,15.38-9.97,4.31-2.58,7.8-4.52,10.65-5.95,4.99-2.51,7.97-3.45,9.83-3.5h0ZM154.46,1392.43c-3.01,2.41-6,4.86-8.95,7.35,2.95-2.49,5.93-4.94,8.94-7.35,1.14-2.49,2.43-5.06,7.43-9.21-5,4.16-6.28,6.72-7.42,9.2ZM281.52,1378.25h0c5.61.14.13,6.15-10.33,15.04,10.45-8.89,15.93-14.9,10.32-15.04h0ZM242.74,1321.27c.06.84.34,1.65.8,2.35h0c-.46-.7-.74-1.51-.8-2.34h0ZM387.34,1305.72c-9.77,5.6-19.7,11.68-29.75,17.97l-22.73,14.63,22.73-14.62c10.06-6.29,19.98-12.36,29.75-17.96h0ZM507.45,1308.63c-.48.12-.95.23-1.49.37-.47.13-1.05.31-1.56.46.51-.15,1.09-.34,1.56-.46.54-.14,1.01-.25,1.49-.37h0ZM400.55,1292.18c5.22-3.23,10.38-6.52,15.56-9.79-5.18,3.27-10.34,6.56-15.56,9.79h0c-3.56,2-7.15,3.84-10.6,5.84-.46-.39-1.01-.67-1.59-.82.58.16,1.13.44,1.59.82,3.44-2,7.04-3.83,10.6-5.83h0ZM288.59,1292.45l10.74-7.04c4.23-4.24-1.86-1.91-4.19-1.98,2.32.07,8.42-2.26,4.2,1.97l-10.76,7.06-10.59,7.3,10.59-7.31ZM399.38,1278.86c-.54.13-1.19.33-1.92.58.72-.25,1.38-.45,1.92-.58,4.1-.98,3.06,1.5-.73,6.74,1.01.81-1.72,3.48-4.92,6.45,3.21-2.98,5.93-5.64,4.91-6.45,3.8-5.23,4.84-7.71.74-6.73h0ZM387.67,1283.71c1.4-.68,2.65-1.27,3.82-1.81-1.17.54-2.43,1.14-3.82,1.82h0ZM394.52,1280.57c.67-.28,1.28-.52,1.85-.74-.57.22-1.19.47-1.85.74h0ZM415.96,1290.66c.54,1.07,1.74,1.64,2.92,1.37-1.17.26-2.37-.3-2.92-1.37h0ZM484.61,1266.12c2.41-1.23,4.82-2.47,7.17-3.72h0c-2.35,1.25-4.75,2.48-7.17,3.72h0ZM470.08,1241.33c-4.39.13-1.92-3.26,6.44-9.66h0c-8.36,6.41-10.83,9.79-6.44,9.66h0ZM490.07,1234.2c-3.08,1.45-6.28,3.01-9.65,4.72-2.67.89-5.39,1.6-8.15,2.14,2.76-.54,5.48-1.25,8.15-2.14,3.38-1.71,6.58-3.27,9.65-4.72h0ZM532.52,1204.22c-6.18,2.9-12.33,5.85-18.49,8.77-3.68,1.79-7.38,3.54-11.07,5.32,3.69-1.77,7.39-3.53,11.07-5.32,6.16-2.92,12.32-5.87,18.49-8.77h0ZM451.8,1214.21c-.64-.22-1-.57-1.08-1.03.08.47.44.82,1.08,1.03h0ZM802.35,1146.48h0c-3.28-1.45,3.29-5.1,12.2-9.23-8.91,4.14-15.48,7.79-12.2,9.24h0ZM544.63,1152.42c-8.19,4.05-15.92,8.09-23.4,12.12-.08.3-.05.62.09.89-.14-.28-.17-.59-.09-.89,7.49-4.03,15.21-8.07,23.4-12.12,1.46-.72,2.95-1.45,4.44-2.17-1.49.72-2.98,1.45-4.43,2.17h0ZM552.47,1148.62c4.87-2.32,9.95-4.62,15.26-6.81-5.32,2.2-10.39,4.49-15.26,6.81h0ZM1591.32,1160.31c2.42.73,5.6,1.52,9.75,2.45-4.15-.93-7.33-1.72-9.75-2.44h0ZM1631.74,1169.78h0c.37.98,2.05,2.21,4.04,3.5-1.99-1.29-3.67-2.52-4.04-3.5l-18.24-4.19,18.24,4.19h0ZM1638.95,1175.28c-.55-.35-1.11-.7-1.66-1.04.55.35,1.11.7,1.66,1.05h0ZM1834.37,1237.52c-.11.31-2.95-.2-4.34-.27h-.01c1.4.07,4.23.58,4.35.28h0ZM2038.67,1315.19c3.73,1.61,7.44,3.14,11.14,4.69-3.7-1.54-7.41-3.08-11.14-4.68-13.52-5.67-27.47-10.99-40.91-16.33-.38.94-2.05,1.62.24,3.71-2.29-2.09-.62-2.77-.25-3.72,13.44,5.35,27.4,10.67,40.93,16.34h0ZM2440.95,1511.03c-4.94-7.04-3.01-6.32,1.52-2.6-4.53-3.72-6.47-4.43-1.52,2.61-5.06,1.47-9.21.91-17.76-5.8-.85-.66-1.75-1.39-2.68-2.18.94.79,1.83,1.52,2.68,2.18,8.55,6.7,12.71,7.26,17.76,5.79ZM2444.69,1510.29c.89.77,1.84,1.61,2.83,2.5-.98-.88-1.93-1.72-2.83-2.5h0ZM2380.48,1501.26h-.01c-11.97-10.28-19.32-17.11-23.87-22.12,4.53,5,11.9,11.83,23.87,22.12h0ZM2430.68,1546.2c1.12.85,2.17,1.62,3.12,2.24-.95-.63-2.01-1.4-3.12-2.24h0ZM2389.64,1563.96c5.48,6.57,15.21,16.95,29.7,30.93,1.19,1.17,2.38,2.33,3.58,3.49-1.2-1.16-2.39-2.32-3.58-3.49-14.49-13.98-24.22-24.35-29.69-30.93-1.59-1.87-2.97-3.91-4.11-6.08,1.14,2.17,2.52,4.21,4.11,6.08h0ZM2457.12,1568c.36.47.6,1.03.7,1.61,0,.35-.19.52-.56.56.37-.03.56-.21.56-.56-.1-.59-.34-1.14-.7-1.61h0ZM2441.61,1551.39c2.35,2.28,4.38,4.29,6.16,6.08-1.78-1.8-3.81-3.81-6.16-6.08h0ZM1750.44,1127.76c-1.21-.28-9.89-1.67-21.03-3.49,11.14,1.83,19.82,3.21,21.03,3.49,6.06,1.96,12.54,4.08,17.09,5.88-4.55-1.79-11.04-3.93-17.09-5.88ZM1710.94,1121.22c-1.17-.19-2.34-.38-3.51-.56,1.17.18,2.33.37,3.51.56,3.5.59,7.02,1.17,10.43,1.73-3.41-.56-6.92-1.14-10.43-1.73h0ZM1736.76,1113.22c5.48,1.65,10.95,3.3,16.38,5.14-5.42-1.83-10.9-3.49-16.38-5.14ZM1494.51,1126.94c4.47,1.03,7.87,1.99,10.69,2.92-2.82-.93-6.22-1.89-10.69-2.92-2.16-.29-4.32-.62-6.48-.93,2.16.31,4.32.64,6.48.93ZM551.16,1195.77l.17-.07c8.59-4.08,13.85-7,17.25-9.41-3.4,2.41-8.66,5.33-17.24,9.41l-.17.08c.11.61.18,1.23.21,1.84-.04-.62-.11-1.23-.22-1.84ZM730.32,1179.02l23.79-8.04-23.8,8.04c-9.33,1.61-17.56,4.71-25.59,8.11,8.03-3.4,16.26-6.5,25.59-8.12h0ZM486.24,1188.43l-1.67-2.52c-8.24,4.01-16.39,8.21-24.6,12.31-6.89,3.5-12.34,5.98-16.57,7.7,4.23-1.73,9.68-4.2,16.57-7.7,8.2-4.1,16.35-8.3,24.6-12.32h0l1.67,2.53ZM783.5,1152.12c3.11-.98,6.23-1.96,9.36-2.94l3.82-1.08-3.82,1.08c-3.13.98-6.25,1.96-9.36,2.94h0ZM1028.54,1137.92h0c2.59.66,5.25,1.02,7.92,1.07-2.67-.06-5.33-.42-7.92-1.08h0ZM521.25,1169.63c1.18-1.14,1.43-1.87,1.3-2.43.14.56-.12,1.29-1.3,2.43ZM968.38,1150.31c1.1-.19,2.19-.38,3.26-.57-1.07.2-2.16.39-3.26.57-5.3,1.01-10.86,1.89-16.08,2.68,5.23-.79,10.79-1.67,16.08-2.69h0ZM990.93,1143.87h0c-3.29,2.11-8.86,3.74-15.35,5.09,6.49-1.35,12.06-2.98,15.35-5.09h0ZM1402.36,1123.43c9.23-.33,18.12-1.1,27.33-2.28.5-1.68,4.26-3.07,7.19-4.53-2.93,1.46-6.69,2.84-7.19,4.53-9.22,1.18-18.11,1.95-27.33,2.28h0ZM407.9,1186.92c-6.77,1.87-13.39,4.24-19.81,7.09-4.89,2.17-10.1,4.75-15.51,7.54,5.41-2.8,10.62-5.38,15.51-7.55,6.42-2.85,13.05-5.22,19.82-7.09l9.41-5.08-9.41,5.08ZM418.04,1196.31c-2.17,1.18-4.31,2.35-6.44,3.51-1.02.57-2.04,1.14-3.04,1.71,1-.57,2.02-1.14,3.04-1.71,2.12-1.16,4.27-2.33,6.45-3.51h0ZM408.43,1201.61c-7.23,4.09-13.92,8.06-19.01,12.24h0c5.09-4.18,11.78-8.15,19.01-12.24h0ZM351.06,1213.19c4.4-2.53,8.75-4.94,13.03-7.19,1.49-.8,2.95-1.57,4.41-2.34-1.46.77-2.92,1.54-4.41,2.34-4.28,2.24-8.63,4.66-13.03,7.18h0ZM682.37,1203.05c-.07-.51.16-1.11.99-1.89.54-.48,1.12-.92,1.73-1.31-.61.38-1.19.82-1.73,1.31-.83.78-1.06,1.38-.98,1.89-2.79,1.03-5.55,2.15-8.32,3.26,2.77-1.12,5.52-2.24,8.32-3.27h0ZM536.05,1215.18l-4.76,2.02c-2.69,1.11-5.26,2.15-7.78,3.15,2.51-1,5.09-2.04,7.78-3.15l4.76-2.02ZM17.77,1609.18c-12.99,13.41-25.73,27.18-36.18,39.97,10.45-12.78,23.19-26.56,36.18-39.97l10.66-8.97-10.66,8.98ZM-63.63,1626.49l-1.62-1.97,1.62,1.96h0ZM-66.73,1622.73l-25.68,29.02c-5.33,6.2-9.31,10.66-12.39,13.83,3.07-3.16,7.05-7.62,12.39-13.83l25.68-29.02h0ZM-32.33,1709.28l1.55.73-1.55-.72c-2.44,2.77-5.21,6.15-8.07,9.69,2.86-3.54,5.63-6.92,8.07-9.7h0ZM-357.16,2786.12c.06-1.11.12-2.23.18-3.35-.06,1.12-.12,2.24-.18,3.35ZM2754.97,2185.3c-2.24-5.94-4.99-11.68-8.22-17.15,3.23,5.47,5.98,11.21,8.22,17.16l-14.71,6.2c-4.08-7.46-8.05-14.74-12.26-22.44,4.2,7.7,8.18,14.97,12.25,22.43l14.71-6.19ZM2811.34,2174.05c-2.97-.12-7.97-6.85-14.11-16.72,6.14,9.87,11.13,16.6,14.11,16.71-7.31-17.14-8.36-22.59-7.57-24.59-.79,2,.26,7.45,7.58,24.59h0ZM2805.3,2148.08h0c3.49,1.59,4.68-1.71,2.3-11.55,2.38,9.84,1.19,13.14-2.3,11.55ZM2796.41,2129.02c-.77-1.45-1.53-2.82-2.25-4.08-.58-1.02-1.14-1.91-1.7-2.81.56.9,1.12,1.79,1.7,2.81.72,1.27,1.48,2.63,2.25,4.08ZM2827.1,2121.78c3.05,3.21,1.78-2.18-4.68-17.43,6.46,15.26,7.73,20.64,4.68,17.43h0ZM2797.76,2107.86c-4.63-10.02-9.68-19.05-14.71-28.22,5.03,9.17,10.07,18.19,14.7,28.21l5.99-2.17h0l-5.98,2.18ZM2800.81,2098.02c.37.99.76,2.04,1.18,3.14-.42-1.1-.81-2.15-1.18-3.14h0ZM2820,2098.71h0c-1.1-7.73-3-15.31-5.67-22.64,2.67,7.33,4.57,14.92,5.67,22.64h0ZM2754.83,2100.61l5.57,11.25,5.31,11.38-.43-.35c1.3,6.46,5.37,17.8,8.45,27.39,1.27,4.06,2.31,8.19,3.11,12.37-.8-4.18-1.84-8.31-3.11-12.37-3.08-9.59-7.15-20.93-8.46-27.39l.43.36-5.3-11.38-5.58-11.25-11.15-22.48,11.15,22.49ZM2746.56,2167.8c-.86-1.47-1.71-2.88-2.55-4.29.84,1.41,1.69,2.83,2.55,4.3h0ZM2812.37,2070.79c.04.1.07.19.11.28-.04-.1-.07-.19-.11-.28ZM2616.12,1864.99c.4.4.84.88,1.26,1.31-.42-.44-.86-.91-1.26-1.31ZM2585.95,1761.62c-2.89-1.14-8.59-6.97-17.7-17.85-2.34,1.35-4.59,2.81-7.03,4.04,2.44-1.23,4.69-2.68,7.03-4.05,9.11,10.9,14.81,16.73,17.7,17.87h0ZM2526.33,1709.06l-.56.8.56-.8-.06-.08.06.08ZM2428.05,1671.64c-2.49-2.48-4.71-4.56-6.67-6.26,1.95,1.71,4.17,3.8,6.66,6.27h0ZM2483.27,1661.04c.57.55,1.13,1.07,1.66,1.55-.54-.49-1.09-1-1.66-1.55-.58-.54-1.18-1.12-1.79-1.73.61.62,1.2,1.19,1.78,1.74h0ZM2411.85,1659.8c3.36,3.49,6.75,7,10.18,10.52-3.42-3.52-6.81-7.02-10.18-10.52h0ZM2513.07,1594.37h0c-6.62-2.99-11.3-3.85-20.36-9.69,9.06,5.84,13.74,6.7,20.36,9.69ZM2462.58,1559.89c4.75,4.36,8.87,8.14,12.58,11.32,2.84,2.45,5.4,4.55,7.74,6.4-2.35-1.85-4.9-3.95-7.75-6.41-3.71-3.18-7.84-6.96-12.59-11.32-4.81-4.29-10.18-9.23-16.21-14.95h0c6.03,5.71,11.4,10.66,16.21,14.95ZM2578.57,1485.89h0c.8-.41.2-2.02-1.26-4.38,1.46,2.36,2.06,3.97,1.26,4.38ZM2575.32,1478.56c.59.83,1.11,1.59,1.57,2.31-.46-.72-.98-1.48-1.57-2.31-.88-1.22-1.9-2.58-2.99-3.98,1.08,1.4,2.11,2.76,2.99,3.98h0ZM2378.47,1479.1c.27.12.58.29.87.42-.28-.13-.59-.3-.87-.42-2.96-1.2-5.84-2.57-8.63-4.13,2.79,1.55,5.67,2.92,8.64,4.12h0ZM2559.85,1456.14l-7.52-7.06h0l7.52,7.06ZM2340.05,1412.11c-.49-.57-1.05-1.19-1.67-1.84-.59-.62-1.26-1.3-1.97-2.01.72.71,1.38,1.38,1.97,2.01.62.65,1.18,1.27,1.67,1.84h0ZM2255.3,1407.33c9.06,5.66,18.34,12.76,28.62,20.63-.69,1.5-1.8,2.69-1.98,4.56.18-1.87,1.29-3.06,1.98-4.56-10.27-7.86-19.55-14.96-28.61-20.63-4.5-2.88-8.85-5.54-13.07-7.99,4.22,2.45,8.58,5.11,13.07,7.98h0ZM2295.11,1389.66c-5.33-4.02-10.74-7.92-16.17-11.78,5.44,3.86,10.84,7.76,16.17,11.78ZM2411.3,1372.63h0c-5.95-4.76-11.58-9.29-17.04-13.75,5.47,4.46,11.09,8.99,17.04,13.75h0ZM2352.99,1353.88c3.96,2.89,7.97,6.03,12.15,9.22l2.93-3.85-2.93,3.85c-4.19-3.19-8.19-6.33-12.15-9.22-2.78-1.99-5.47-3.88-8.12-5.72,2.65,1.84,5.34,3.73,8.12,5.71ZM2122.94,1336.37c-6.84-3.41-14.15-6.92-21.69-10.84-3.78-1.95-7.62-4-11.52-6.14,3.9,2.13,7.74,4.18,11.52,6.14,7.54,3.92,14.85,7.43,21.69,10.84,9.52-1.16,3.85-11.35.69-19.92,3.15,8.57,8.83,18.77-.69,19.93h0ZM2200.22,1308.03c-3.27-2.24-6.55-4.49-9.75-6.71h0c3.2,2.23,6.48,4.48,9.75,6.72h0ZM2169.75,1289.86c-1.35-.58-2.62-1.1-3.73-1.48h0c1.11.38,2.38.9,3.73,1.48h0ZM1911.23,1301.77c.94.4,1.83.76,2.75,1.14-.92-.38-1.8-.73-2.75-1.14-2.65-1.14-5.41-2.33-8.21-3.53,2.8,1.21,5.56,2.39,8.21,3.54h0ZM2148.49,1277.89l.32.19-.32-.19c-.4-.23-.8-.46-1.2-.69.4.24.81.46,1.21.7h0ZM2055.34,1275.51c2.08,1.19,4.32,2.61,6.63,4.17-2.3-1.55-4.54-2.96-6.61-4.16-9.09-4.78-15.29-6.62-14.27-5.33-1.03-1.29,5.17.54,14.24,5.31ZM1958.25,1274.81c1.04.54,2.06,1.09,3.09,1.64-1.02-.55-2.05-1.09-3.09-1.64l-7.8-3.96,7.8,3.96ZM1907.29,1276.97h0c-10.22-2.56-23.38-7.14-35.78-10.8,12.41,3.66,25.56,8.24,35.78,10.8ZM2170.61,1224.94h0c-8.47-5.46-10.16-8.12-14.02-11.66,3.85,3.54,5.55,6.2,14.02,11.66h0ZM2156.57,1213.25c-.27-.25-.56-.5-.85-.76.3.26.58.51.85.76h0ZM2151.75,1209.35c-5.36-3.73-10.94-7.12-16.73-10.16h0c5.78,3.03,11.37,6.42,16.73,10.16h0ZM2161.25,1182.81c2.47,1.22,5.29,2.68,8.41,4.37-3.12-1.69-5.93-3.16-8.41-4.37h0ZM1766.69,1188.84c-2.54-.51-5.12-.79-7.71-.84,2.59.05,5.17.33,7.71.84h0ZM1934.27,1114.51c-1.3,3.28-3.84,6.06,3.08,12.59-8.97-3.44-18.31-6.55-27.6-9.93-6.14-2.15-12.25-4.42-18.38-6.58,6.13,2.16,12.24,4.44,18.38,6.58,9.29,3.38,18.62,6.49,27.59,9.93-6.92-6.54-4.37-9.31-3.07-12.59.73-1.56.75-3.37.05-4.94.69,1.58.68,3.38-.05,4.95h0ZM1881.8,1107.34c1.39.45,2.77.92,4.16,1.4-1.38-.47-2.77-.95-4.16-1.4-5.63-1.83-11.21-3.65-16.73-5.41,5.52,1.76,11.09,3.58,16.72,5.41h0ZM1754.8,1118.64c30.19,11.76,65.08,25.41,96.37,39.38-31.29-13.97-66.18-27.62-96.38-39.38-6.43-4.48-24.57-11.37-31.42-15.55,6.85,4.18,25,11.07,31.44,15.55ZM1702.82,1102.99s-.01,0-.02,0c7.69-.45,6.54-2.82,1.38-6.01,5.16,3.19,6.32,5.56-1.37,6.01h0ZM1617.23,1090.6c-8.05-.74-10.91.31-11.29,2.01h-.01c.39-1.7,3.25-2.75,11.3-2.01h0ZM1625.06,1091.63c-1.49-.24-2.85-.44-4.13-.61,1.28.17,2.64.37,4.13.61h0ZM1117.79,1117.44h0c-1.02-.66-2.14-1.14-3.31-1.43,1.18.29,2.29.77,3.31,1.43h0ZM570.91,1140.5h0l-1.35-4.66,1.35,4.66ZM324.22,1161.21c6.6-3.79,13.34-7.75,19.99-11.58-6.66,3.83-13.39,7.79-19.99,11.58ZM588.16,1108.37l-25.24,10.63c-1.99-.23-2.03-1.08-.7-2.37-1.33,1.29-1.29,2.14.7,2.37l25.24-10.63ZM388.24,1127.57c2.46-1,4.68-1.83,6.65-2.5-1.97.66-4.19,1.49-6.65,2.5ZM352.65,1144.87h0c13.41-7.14,24.02-12.35,32.22-15.89-8.2,3.54-18.81,8.76-32.22,15.89h0ZM565.54,1125.13h0c-6.43,2.05-12.79,4.28-19.14,6.56,6.35-2.27,12.71-4.5,19.14-6.56h0ZM594.49,1130.39c4.19-1.88,8.02-3.66,11.41-5.26,9.05-4.29,14.82-7.88,15.56-10.39l13.1-5.23c15.62-5.69,26.69-10.15,36.18-14.72l6.01-2.92-6.01,2.92c-9.49,4.57-20.55,9.03-36.17,14.72l-13.1,5.23c-.74,2.52-6.51,6.1-15.56,10.39-3.39,1.61-7.22,3.38-11.41,5.26-2.79,1.25-5.75,2.56-8.83,3.9,3.09-1.33,6.04-2.64,8.83-3.89h0ZM1354.41,1051.71h0c-.21,1.11-2.19,2.06-6.47,2.8,4.29-.74,6.26-1.69,6.47-2.79h0ZM1464.76,1048.68c.96.73,2.02,1.34,3.14,1.8.64.29,1.38.59,2.17.9-.79-.3-1.53-.61-2.17-.9-1.12-.46-2.17-1.06-3.14-1.79h0ZM1474.86,1053.06c-1.5-.49-2.88-.97-4.09-1.41,1.21.46,2.59.94,4.09,1.42h0ZM1266.41,1061.24c.5-.08.97-.17,1.38-.26h0c-.41.09-.89.18-1.38.26h0ZM1478.86,1054.29c.78.23,1.56.45,2.39.69,1.39.38,2.87.77,4.4,1.17-1.54-.4-3.02-.79-4.4-1.17-.84-.23-1.62-.45-2.39-.68h0ZM1039.88,1088.76l4.58-2.05h.01l-4.59,2.05ZM1668.39,1066.18c.81.24,1.53.47,2.28.71-.75-.24-1.47-.47-2.28-.71h0ZM1642.22,1059.91c9.46,2.11,18.82,4.21,25.99,6.22-7.18-2.01-16.53-4.12-26-6.23-.26-2.76-1.11-5.64-5.8-9.51-2.21-1.81-4.59-3.42-7.09-4.8,2.5,1.38,4.88,2.99,7.09,4.8,4.7,3.89,5.55,6.76,5.81,9.53h0ZM1942.75,1039.14c1.56-.63,2.74-1.42.06-3.48,2.68,2.07,1.5,2.86-.06,3.49h0ZM1793.88,1033.25c6.94,2.17,13.82,4.36,20.62,6.55-6.8-2.18-13.67-4.37-20.62-6.55ZM1053.98,1019.03c-2.28.26-4.66.58-6.82.77,2.17-.19,4.55-.51,6.82-.77ZM884.05,1001.03c-4.1,1.13-8.18,2.26-12.29,3.38-.38,3.01-1.18,6.1-1.33,9.06.16-2.96.95-6.05,1.33-9.06,4.11-1.12,8.19-2.25,12.29-3.38h0ZM824.99,1011.74l20.49-5.08c3.09-.77,6.2-1.46,9.31-2.15-3.11.69-6.22,1.39-9.31,2.15l-20.49,5.08c-19.66,3.53-40.54,9.27-58.94,14.79-2.4.74-4.7,1.49-7,2.24,2.3-.75,4.6-1.5,7-2.24,18.4-5.52,39.29-11.26,58.94-14.79h0ZM800.26,1030.76c5.66.52,8.29,2.13,18.89,1.12-10.59,1-13.22-.61-18.89-1.12h0ZM1325.91,1005.07c-3.61.19-6.52.48-9.02.84,2.49-.35,5.4-.65,9.02-.84ZM1221.92,1018.43c2.53-.03,3.79.6,5.61.95h0c-1.82-.34-3.08-.97-5.61-.94h0ZM1176.1,1023.16c-.83.32-1.8.65-2.84.98,1.03-.32,2.01-.65,2.84-.97h0ZM1608.94,1003.31l-17.14-3.5c-4.55-.87-9.31-1.89-14.34-3.17,5.03,1.28,9.79,2.29,14.34,3.17,6.08,1.24,11.71,2.39,17.15,3.5l-.49,2.56.48-2.56ZM1368.13,1024.05c2.93-1.12,1.53-2.8,2.89-4.13h.01c-1.36,1.33.03,3.01-2.9,4.13-1.47.57-4.01.95-8.52,1.18,4.5-.22,7.05-.6,8.51-1.18h0ZM1666.05,1006.68l13.04,2.79c-5.78-5.08,7.98-3.57,26.65-.12-18.67-3.45-32.42-4.96-26.63.13l-13.06-2.8ZM1771.06,1018.89c-2.77-1.14-6.11-2.39-9.89-3.71,3.79,1.32,7.13,2.56,9.89,3.71.9.37,1.73.73,2.5,1.09-.77-.35-1.61-.71-2.5-1.08h0ZM1889.07,1016.62c-9.22-4.16-17.37-8.41-27.04-12.27-2.16-.87-4.4-1.74-6.72-2.62,2.32.87,4.57,1.74,6.72,2.62,9.66,3.87,17.82,8.11,27.05,12.28h-.01ZM1857.42,994.65c-7.01-2.58-14.17-5.1-21.45-7.55,7.29,2.45,14.44,4.97,21.45,7.55,21.05,7.75,40.9,16.13,59.55,25.14l-.56,3.37h0l.56-3.36c-18.66-9.02-38.51-17.4-59.55-25.14h0ZM1336.61,1049.59c-2.72-.16-5.55-.29-8.46-.41-3.78-.18-7.57-.25-11.36-.34,3.79.09,7.58.16,11.36.34,2.9.12,5.74.25,8.46.41h.01ZM117.61,1280.42h0s-10.06,7.16-10.06,7.16l10.06-7.16ZM114.51,1284.43l-.27.35h0l.27-.35ZM89.88,1310.69c3.63-2.7,7.29-5.49,10.98-8.31-3.69,2.83-7.36,5.61-10.98,8.32-4.24,3.11-8.37,6.26-12.44,9.39,4.08-3.13,8.2-6.28,12.44-9.39h0ZM-8.34,1380.57l-.02.02c13.2-16.53,23.65-27.55,35.88-38.57,12.13-11.13,26.78-21.43,48.5-36.36.93-.43,2.07-.98,2.89-1.28-.82.3-1.96.86-2.9,1.29-1.03,1.53-.7,1.92.98,1.19l-2.29,5.94h0c-14.98,12.68-30.18,25.11-44.77,38.26l-19.87,16.17c-3.03,5.86-5.93,11.84-8.86,17.74h0c-3.39,3.13-6.5,6.05-9.33,8.76,2.84-2.72,5.95-5.65,9.33-8.76,2.94-5.9,5.84-11.88,8.87-17.74-6.18,4.37-12.24,8.88-18.4,13.35h0ZM-15.67,1387.16c-16.37,15.08-27.6,27.91-35.37,38.18,7.77-10.28,19.01-23.12,35.37-38.18h0ZM-309.92,1599.92c10.94-13.83,22.35-27.14,33.52-41.72,2.04-3.85,4.64-7.38,7.7-10.48-3.06,3.1-5.65,6.63-7.69,10.48-11.17,14.58-22.58,27.89-33.52,41.73-5.46,6.93-10.92,13.89-16.36,21.04,5.44-7.15,10.9-14.12,16.36-21.04ZM-269.7,1571.75c-3.86,4.51-6.11,5.68-7.29,5.86-7.34,9.21-13.64,16.64-18.57,22.13,4.94-5.49,11.24-12.92,18.58-22.13,1.17-.17,3.41-1.33,7.28-5.85h0ZM-298.05,1602.45l-.26.29c-2.08,2.41-4.42,4.59-6.96,6.5,2.55-1.91,4.88-4.09,6.96-6.5l.26-.29ZM-328,1668.39l.44-.78-6.78.56,6.79-.57c4.29-7.04,8.18-13.66,12-20.18,3.96-6.45,7.88-12.84,11.93-19.43,4.14-6.63,8.55-13.52,13.59-21.01,5.14-7.41,10.99-15.36,17.79-24.26,11.11-14.76,21.7-27.22,31.17-37.83,4.75-5.29,9.2-10.14,13.49-14.43,4.34-4.24,8.43-8,12.26-11.27,14.81-12.56-.27,7.71-7.83,19.9-1.41,2.35-.92,2.7-1.3,3.98-24.11,33.28-52.95,68.62-79.16,104.61-12.11,16.67-19.32,24.94-23.98,28.01l-.39-7.27h0ZM-316.84,1679.98c6.26-8.65,12.38-17.41,18.76-25.96,35.96-47.17,72.48-96.5,112.83-139.57,5.78,2.53,12.07,4.47,2.22,24.77h0c-15.38,18.77-29.98,38.19-44.7,57.47-2.27,3.77-4.92,7.29-7.91,10.51,2.99-3.23,5.64-6.75,7.91-10.52l-10.45,12.91c-2.05,2.16-4.29,4.69-6.73,7.61,0,0-.01.01-.02.02-3.15,2.69-7.38,7.44-12.7,14.4l-15.69,16.28c-8.21,9.73-16.58,19.78-24.71,30.75-3.51,4.66-7.05,9.44-10.61,14.36,3.57-4.91,7.1-9.7,10.62-14.37,8.13-10.98,16.5-21.03,24.72-30.78,6.63-15.79,14.28-32.73-19.54,7.7-9.45,11.41-5.65,1.96-5.23-1.57-6.39,8.56-12.51,17.31-18.77,25.96h0c-4.2,5.67-8.13,11.2-11.84,16.68-3.63,5.55-7.08,11.02-10.48,16.47l-20.51,33.07,20.51-33.07c3.4-5.45,6.85-10.92,10.48-16.47,3.72-5.46,7.64-10.99,11.84-16.67h0ZM-128.29,1512.81c-.81.75-1.63,1.53-2.48,2.35-.76.72-1.57,1.52-2.36,2.28.79-.77,1.6-1.56,2.36-2.29.84-.81,1.66-1.59,2.47-2.34h0ZM-275.33,1682.64c5.31-9.83,11.13-19.37,17.44-28.59-6.3,9.21-12.12,18.75-17.43,28.57-6.01,8.57-11.42,16.17-16.23,22.8,4.82-6.63,10.22-14.22,16.21-22.77h0ZM-322.95,1713.66c2.09-3.14,4.15-6.24,6.18-9.29,1.73-2.43,3.44-4.81,5.13-7.19-1.7,2.38-3.4,4.76-5.13,7.19-2.04,3.06-4.1,6.15-6.19,9.29h0ZM-392.54,1731.49c-3.88,6.29-8.11,12.89-12.23,19.35l-.47.66h0l.47-.66c4.11-6.45,8.33-13.05,12.22-19.35h0ZM-370.29,1718.07c-1.28,2.63-2.76,5.49-4.41,8.5,1.65-3.01,3.14-5.87,4.41-8.5,2.98-4.18,5.94-8.36,8.9-12.55-2.96,4.19-5.93,8.38-8.9,12.56h0ZM-380.5,1710.05c-1.22,2.65-2.76,5.61-4.53,8.79,1.77-3.17,3.31-6.13,4.53-8.78h0ZM-428.67,1771.26c8.02-12.11,14.57-20.85,20.12-26.84,2.08-3.18,4.15-6.37,6.23-9.57l.17-.31c-.11-2.23,1.65-6.92,6.74-15.71-5.09,8.79-6.85,13.48-6.73,15.71l-.18.31c-2.08,3.2-4.16,6.39-6.25,9.6-5.54,5.96-12.08,14.71-20.11,26.82-1.9-.34-7.17,6.58-13.4,15.63,6.23-9.05,11.49-15.96,13.4-15.63h0ZM-412.49,1774.97c-1.31,1.34-2.77,2.91-4.4,4.81h0c1.63-1.9,3.08-3.47,4.4-4.8h0ZM-441.28,1818.85c.46-.03.66.44,1.05.54,3.06-5.31,6.09-10.65,9.16-15.95-3.08,5.3-6.1,10.64-9.16,15.95-.4-.1-.6-.56-1.06-.54h0ZM-445.19,1844.16c-1.57,2.65-3.12,5.28-4.63,7.86-2.59,4.43-5.15,8.73-7.69,12.89,2.54-4.17,5.11-8.46,7.69-12.89,1.5-2.58,3.06-5.2,4.63-7.86h0ZM-465.09,1877.04c-2.57-.71-.51-9.58-.2-15.43-.31,5.85-2.37,14.72.21,15.42-5.49,10.03-10.67,20.22-15.82,30.44-5.13,10.22-10.45,20.35-15.39,30.67-2.27,4.74-4.55,9.49-6.82,14.23,2.27-4.74,4.54-9.49,6.82-14.23,4.94-10.32,10.26-20.44,15.39-30.67,5.15-10.21,10.33-20.4,15.82-30.42h0ZM-422.69,1876.07c.53-1.4,1.22-2.99,1.99-4.68-.77,1.69-1.47,3.29-2,4.69h0ZM-385.8,1869.96c-1.68.16-5.56,5.12-10.08,12.03-.97,1.48-1.96,3.06-2.98,4.68,1.02-1.63,2.02-3.2,2.98-4.68,4.52-6.91,8.4-11.87,10.08-12.03h0ZM-516.99,1936.44c-2.59,6.93-6.32,16.05-8.79,22.78,2.47-6.73,6.19-15.84,8.78-22.77h0ZM-525.78,1959.22c-.35.97-.68,1.88-.98,2.73.29-.85.62-1.76.97-2.72h0ZM-471.78,1943.18l13.87-27.14,6.95-13.56,7.22-13.41c2.11.39,3.17.59,7.12-3.8,1.87-2.08,4.43-5.23,8.02-9.82-3.59,4.59-6.15,7.74-8.02,9.82-3.95,4.39-5.01,4.2-7.13,3.8l-7.22,13.41-6.95,13.56-13.87,27.14-13.27,27.45,13.27-27.46ZM-536.32,2011.73c-1.18,1.98-2.43,4.2-3.75,6.62-.46.89-.96,1.89-1.43,2.84.48-.95.97-1.95,1.43-2.84,1.32-2.42,2.57-4.63,3.75-6.62h0ZM-552.29,2043.62c-3.73,8.05-7.58,16.66-11.36,25.34h0c3.77-8.68,7.63-17.28,11.36-25.34h0ZM-542.29,2076.54l-.23.49h0c6.62-17,8.96-25.28,8.55-29,8.68-22.11,15.31-34.42,20.8-43.4,5.52-8.97,9.92-14.6,15.33-22.85-3.19,9.46-1.88,9.88,1.25,6.16l-1.43,10.3c-4.72,12.02-7.57,21.31-11.06,31.55-4.09,12.76-8.83,25.31-14.19,37.6h0l-7.08,5.78c-3.35,7.66-6.74,16.15-10.1,24.6,3.36-8.45,6.75-16.94,10.1-24.6-7.98,11.2-10.54,8.96-11.94,3.39h0ZM-585.02,2087.78c-1.38,3.72-2.66,7.25-3.82,10.59,1.17-3.34,2.44-6.87,3.82-10.58h0ZM-558.52,2139.14c-8.98,25.96-17.13,51.78-27.05,76.38-5.1,13.3-9.14,22.69-9.66,18.08-.4-3.96,3.3-17.52,7.14-28.79,7.39-21.38,14.91-42.53,23.17-63.45,0,0,0-.02.01-.03l6.38-2.18ZM-548.43,2117.56c-1.75,4.2-3.47,8.18-5.15,11.81,1.69-3.63,3.41-7.61,5.16-11.81h0ZM-643.12,2287.63c.48-3.19,1.07-6.24,1.8-9.27-.73,3.03-1.32,6.08-1.8,9.27-1.63,4.87-3.52,11.85-4.87,16.27,1.35-4.42,3.24-11.4,4.87-16.27h0ZM-600.18,2171.71c2.11-6.43,4.39-12.92,6.73-19.42-2.34,6.5-4.62,12.99-6.73,19.43-16.36,47.46-30.97,95.52-43.82,144.16,12.84-48.6,27.44-96.66,43.82-144.17h0ZM-629.59,2314.53c-1.07,5.34-2.23,10.86-3.41,16.49,1.19-5.63,2.33-11.15,3.41-16.49h0ZM-582.22,2319.52c2.29-4.23,11-33.16,16.76-50.68l.98-2.66v-.03c4.02-9.11,7.45-18.47,10.27-28.02,1.52-5.07,3.07-10.25,4.63-15.45,1.65-5.17,3.3-10.35,4.92-15.45l-2.41,1.83,9.98-29.29c3.44-9.72,7.07-19.37,10.6-29.05-.52-1.32-.1-4.51,1.19-9.39.95-3.67,2.4-8.29,4.41-13.76-2.01,5.48-3.46,10.09-4.41,13.76-1.29,4.89-1.71,8.07-1.19,9.39,2.97-6.57,5.82-13.42,8.93-20.55,3.14-7.12,6.33-14.61,9.62-22.64,6.93-17.21,11.34-28.38,13.16-34.86,1.82-6.48,1.06-8.25-1.71-6.32,10.03-28.21,16.12-42.59,20.66-51.88,4.66-9.24,8.08-13.28,14.79-19.94l6.57-9.65c7.99-15.42,15.49-28.68,20.2-33.6,6.12-6.57,13.21-17.27,21.27-31.16,4.15-6.87,8.54-14.55,13.14-22.93,4.55-8.39,9.43-17.39,14.64-27h0l17.5-30.76c6.01-10.02,11.66-19.13,15.85-24.89,26.21-35.73,51.49-77.52,79.51-115.84,9.03-12.82,18.52-25.66,27.9-38.4,9.29-12.81,19.23-24.92,29.12-36.27,33.31-41.77,68.45-81.92,104.23-121.58,13.69-13.94,27.02-28.2,40.87-41.93l20.54-20.83,20.84-20.51,22.36-20.49c7.39-6.85,14.67-13.77,21.93-20.72l21.19-18.52c-1.2-1-2.75-1.74.32-5.68,1.01-1.27,2.09-2.47,3.23-3.61-1.15,1.14-2.23,2.35-3.23,3.61-3.06,3.93-1.51,4.67-.32,5.68,28.92-24.75,59.41-48.27,79.1-68.74h0c4.54-4.19,9.02-8.49,13.92-12.18l27.05-20.44,27.4-19.91c9.08-6.72,18.37-13.12,27.66-19.54,9.32-6.36,18.47-12.99,27.96-19.1,37.52-25.12,76.25-48.37,116.21-69.73,15.31-7.9,19.75-8.58,25.32-9.95,11.63-9.03,17.9-13.57,16.35-14.02-.13-.04-.26-.05-.39-.05.13,0,.26.01.39.05,1.55.45-4.71,4.99-16.34,14.02-10.14,6.95-20.37,13.68-30.37,20.81h0c-10.05,5.94-20.48,12.01-29.18,17.52-8.74,5.45-15.51,10.75-18.62,14.44l-24.93,14.56c-8.2,5.07-16.33,10.25-24.41,15.44-16.26,10.24-31.73,21.42-46.76,32.39-39.91,29.87-82.45,58.93-119.85,91.36h0c-7.01,5.58-9.86,8.67-11,10.74-7.28,6.3-14.63,12.5-21.83,18.88l-21.44,19.34c-3.56,4.2-7.21,8.14-10.83,11.96-3.59,3.85-7.24,7.47-10.95,10.86-3.71,3.39-7.49,6.54-11.34,9.43,3.85-2.89,7.63-6.04,11.34-9.43,3.71-3.39,7.36-7.02,10.95-10.87,3.62-3.82,7.27-7.76,10.83-11.96-3.85,3.08-7.69,6.2-11.5,9.42-3.73,3.33-7.46,6.66-11.2,10-7.44,6.76-14.83,13.7-22.19,20.73l-32.02,29.78h0c-7.73,7.02-14.47,14.02-20.94,20.89-6.43,6.91-12.62,13.65-18.73,20.73-7.59,7.25-14.68,14.9-21.49,22.77-10.56,10.29-20.52,21.18-29.84,32.61-7.43,8.02-14.44,16.43-21.68,24.62-7.18,8.25-14.41,16.46-21.33,24.94l-20.96,25.28-20.4,25.76c-1.12,2.28-2.42,4.46-3.9,6.52,1.48-2.06,2.78-4.24,3.9-6.52-6.08,7.23-9.56,12.28-10.74,15.62l-.79,1.27h0c-27,40.21-54,81.7-80.99,124.47-6.63,10.76-13.59,21.36-20.15,32.3-6.64,10.88-13.31,21.82-20.01,32.8-6.53,11.08-13.08,22.2-19.67,33.38-6.67,11.12-12.88,22.57-19.43,33.88l-7.06,13.17-6.76,13.33-13.5,26.68h0l-19.04,39.72c-6.21,13.31-12.1,26.77-18.14,40.15-27.07,62.55-50.97,126.42-71.59,191.39-21,66.78-38.21,122.54-54.15,180.48-7.84,29.61-8.44,24.14-7.38,8.28.91-17.02,7.02-44.25,11.28-67.32-4.59,7.88-8.79,23.76-12.94,40.56-4.1,16.82-7.47,34.71-11.37,46.55-6.8,21.65-9.28,10.8-17.55,48.52-1.04,4.63-1.98,9.01-2.89,13.53l-8.76,14.49c-.36,1.27-.71,2.61-1.06,3.99.35-1.39.7-2.72,1.06-4,1.62-9.93,3-19.9,4.85-29.79l5.41-29.69c1.17-3.83,2.26-8.04,3.34-12.47,1.15-4.41,2.25-9.05,3.31-13.77,2.1-9.45,4.01-19.26,5.67-28.3,3.85-19.59,7.76-38.14,11.86-54.14,4.42-15.92,9.06-29.27,14.41-38.44h0ZM-732.03,2895.34c.01.57.05,1.14.06,1.71-.02-.57-.05-1.14-.06-1.71-.01-.78-.02-1.56-.04-2.34.01.78.02,1.56.04,2.34h0ZM-707.75,2781.08c-.5,11.48-.62,22.97-.73,34.45.11-11.49.23-22.97.73-34.46,1.75-2.48,2.86-10.76,3.83-24.25-.98,13.49-2.09,21.77-3.84,24.27h0ZM-734.25,2763.23c-.32,12.86-.87,25.72-.97,38.58l-.17,38.58.57.03-.57-.03c-.31,12.64-.04,25.25,0,37.92.05,8.93.11,18.81.16,26.74,0,7.82-.35,13.53-1.54,13.97-2.2.84-4.71-15.07-5.17-38.05-.28-12.69-.71-25.46-.68-38.27.09-12.81.18-25.63.27-38.45.09-15.62.76-30.82-.32-41.71-2.7,21.85-2.99,46.83-2.9,71.4-.1-24.57.2-49.55,2.9-71.41,1.18-39.04,2.38-77.7,7.13-117.05,0-.03,0-.05,0-.08.86-6.5,2.05-12.93,3.09-19.38l.33.58,2.32-25.75,1.18-12.88,1.46-12.86c-3.03,7.45-5.88,13.71-8.21,15.35,2.33-1.63,5.19-7.89,8.22-15.35l-1.46,12.86-1.19,12.88-2.32,25.77c2.3-3.26,4.89-8.92,4.31,10.54-2.36,27.13-5.01,54.53-4.94,79.88h0l-.97,23.08c-.31,7.7-.34,15.41-.53,23.11h0ZM-721.25,2636.24c-.73,17.9,1.05,17.85,2.67,18.2-1.62-.35-3.4-.3-2.67-18.2h0ZM-723.18,2712.1c1.65-17.84,3.34-36.96,5.25-57.45.67-10.77,1.86-21.26,3.16-31.62l4.03-30.8c1.58-10.2,3.15-20.4,4.74-30.67-1.59,10.27-3.16,20.47-4.74,30.68l-4.03,30.8c-1.29,10.36-2.49,20.85-3.16,31.62-1.9,20.48-3.6,39.6-5.25,57.44h0ZM-650.6,2626.22c.39-3.72.8-7.31,1.22-10.6-.42,3.29-.83,6.89-1.22,10.61h0ZM-683.17,2614.99c-1.38,12.38-3.04,24.73-4.12,37.16-1.88,20.88-4.02,42.44-6.76,44.92-3.26,2.76-.73-24.94-.28-41.37h0c.47-9.03,1.26-18.12,2.12-27.25l2.5-27.38c1.72-18.19,3.9-36.12,5.3-53.27h0c1.31-10.15,2.96-20.25,4.45-30.37,1.59-10.11,2.92-20.26,4.74-30.33,3.94-16.11,7.67-33.31,11.85-48.81,4.23-15.49,8.39-29.38,12.29-39.05l2.78,1.41c1.5-6.72,2.98-13.34,4.44-19.87-1.46,6.53-2.94,13.15-4.44,19.87-1.49,10.52-3.19,21.17-5.11,31.95-.97,5.41-1.95,10.82-2.93,16.26-.95,5.47-1.9,10.96-2.85,16.48-2.04,11.02-4.1,22.14-6.18,33.36-1.98,11.21-3.97,22.49-5.98,33.86h0c-1.3,2.93-2.82,7.66-3.9,17.75l-3.15,27.65h0l-2.57,18.5-2.19,18.55ZM-577.54,2593.83h0c-6.03,6.08-12,10.11-17.79,15.67,5.79-5.56,11.76-9.59,17.79-15.67h0ZM-506.79,2647.4c2.09-6.48,3.47-15.46,4.62-25.27,1.17-9.8,2.5-20.38,3.86-30.1-2.67-4.04-4.08-10.58-3.05-26.76-1.03,16.18.38,22.71,3.06,26.75-1.36,9.72-2.69,20.3-3.86,30.1-1.15,9.81-2.53,18.79-4.62,25.27-.86,8.95-1.7,17.91-2.24,26.89-1.37,14.82-2.79,30.62-4.98,40.72-3.7.12-8.25,7.37-10.1-13.86h0l2.22-25.7c1.29-3.53,2.62-7.89,3.96-12.23,1.38-4.34,2.86-8.64,4.22-12.09,2.75-6.9,5.23-10.36,6.93-3.71h0ZM-633.06,2760.38h0c.77-11.53,1.45-22.34,1.77-32.98.4-10.63.43-21.1,1.03-31.85.98-16.23,2.37-38.89,5.19-39.99,1.93-.77,4.65-5.38,3.91,19.2-.26,8.64-.67,16.67-1.22,24.23-.44,7.57-.91,14.69-1.54,21.51-1.16,13.63-3.12,26.05-4.52,38.53-1.51-.29-3.3,8.26-4.61,1.37h0ZM-381.43,2751.95c-.84-.34-1.57-1.49-2-5.18.43,3.69,1.16,4.85,2,5.18-.27,3.96-.46,7.91-.61,11.87.16-3.96.34-7.92.61-11.86h0ZM-364.83,2770.58c-.1.69-.4,1.34-.87,1.87.46-.53.76-1.18.87-1.87h0ZM-366.18,2772.47c.11.05.24.05.35-.01-.11.06-.24.07-.35.01h0ZM-382.52,2777.56c.33,2.1.57,4.22.71,6.36-.14-2.14-.38-4.26-.71-6.36ZM-639.8,2797.85h0c.89.24,1.74-.26,2.54-2.02-.8,1.76-1.65,2.26-2.54,2.02h0ZM-522.39,2835.6c.16,2.29.23,6.28.36,9.14h0c-.13-2.86-.2-6.85-.36-9.14h0ZM-383.6,2829.01l.29-25.17-.29,25.16c1.3,3.7,2.22,14.98,3.51,21.35-1.29-6.36-2.21-17.64-3.51-21.34h0ZM-418.72,3015.21h-.04c-1.25-17.09-2.91-33.44-4.19-48.64-1.07-11.39-2.5-22.1-4.02-31.94,1.52,9.84,2.95,20.55,4.02,31.94,1.29,15.2,2.96,31.55,4.23,48.63.16-.04.31-.07.47-.09-.14.02-.29.06-.43.09,1.19,13.52,2.76,20.07,3.99,23.25.95,2.38,1.84,2.86,2.71,2.91-.87-.05-1.76-.53-2.72-2.91-1.23-3.18-2.81-9.73-4.02-23.24h0ZM-379.82,2959.24l6.38.05c.76,10.14,2.21,20.22,4.34,30.16.89,4.64,1.73,9.4,2.45,14.78-.72-5.38-1.56-10.14-2.45-14.78-2.13-9.94-3.58-20.01-4.34-30.15l-6.38-.05ZM-374.58,3051.23c1.06-16.68,3.09-26.73,6.3-28.88-3.2,2.16-5.24,12.2-6.3,28.9.25,13.68-1.62,12.62-3.39,12.25,1.78.37,3.65,1.42,3.4-12.27h0ZM-411.12,3041.33v-.13c.11-.14.23-.31.34-.47-.12.16-.23.32-.34.47v.13ZM-364.92,3022.67l2-12.91v.04c.49,5.83,1.12,11.36,1.81,16.27-.69-4.92-1.32-10.44-1.8-16.27v-.04s-2.01,12.91-2.01,12.91ZM-386.28,3022.24c-.53-1.36-1-2.75-1.38-4.15.39,1.41.85,2.79,1.39,4.15h0ZM-512.34,3031.33c.93,9.32,2.08,18.42,3.28,27.41-1.2-9.01-2.35-18.1-3.28-27.42h0ZM-496.72,3063.78c-.11.35-.23.71-.34,1.09,1.11,6.32,1.99,9.47,2.81,11.35.29.67.65,1.31,1.07,1.9-.43-.59-.79-1.23-1.07-1.9-.82-1.87-1.7-5.02-2.81-11.34.12-.39.23-.74.34-1.1h0ZM-396.85,3079.24c.94,4.71,2.16,9.37,3.66,13.93-1.5-4.56-2.72-9.22-3.66-13.93-.24-2.85-.48-5.73-.7-8.59.23,2.86.47,5.74.71,8.58h0ZM-381.07,3070.65c-.48,2.27-.95,4.55-1.45,6.84h0c.51-2.3.98-4.57,1.46-6.85h0ZM-497.13,3130.67c-1.07-5.32-1.99-10.67-2.98-16.03-1.44-7.98-2.87-16.03-4.27-24.14,1.4,8.11,2.82,16.16,4.27,24.15.99,5.36,1.91,10.71,2.98,16.03h0ZM-372.42,3117.85c-1.71,1.32-3.86.39-6.07-1.23h0c2.21,1.62,4.36,2.55,6.07,1.23ZM-493.78,3146.59l-2.07-9.86,2.08,9.88-1.55.51,1.54-.54ZM-563.97,3168.96c-1-5.32-2.04-10.64-3.04-15.98,1,5.34,2.04,10.66,3.04,15.98,2.16,11.98,4.7,23.87,7.21,35.9-2.51-12.03-5.05-23.91-7.21-35.9h0ZM-347.11,3172.98c-.99,4.3-2.29,6.66-6.66-7.41-2.22-1.32-3.69.56-4.63,4.69.94-4.13,2.41-6.01,4.63-4.69,4.36,14.07,5.66,11.71,6.66,7.41h0ZM-405.71,3199.65c-.2,1.9-.73,2.5-1.38,2.62-.03-.11-.06-.19-.09-.29.03.1.05.18.08.29.64-.12,1.18-.72,1.38-2.62h0ZM-413.54,3190.22c1.24-.59,2.64-.19,5.37,8.44-2.73-8.63-4.13-9.03-5.37-8.44h0ZM-436.28,3195.15c3.6,14.12,7.75,28.83,11.33,45.49-3.58-16.66-7.73-31.37-11.33-45.49-1.22-1.05-2.19.68-3.68-2.36,1.49,3.04,2.45,1.31,3.68,2.36h0ZM-367.7,3247.41c.91,3.98,1.83,7.95,2.73,11.92.36,8.62,1.52,17.19,3.45,25.6-1.93-8.42-3.09-17-3.46-25.62-.91-3.95-1.82-7.92-2.73-11.9h0ZM-488.69,3202.51c-1.4-3.47-2.59-7.02-3.56-10.64l-7.53,2.42.03.31c1.21,7.13,2.79,15.2,4.35,23.24,1.65,8.02,3.29,15.99,4.74,22.99.71,3.7,1.3,7.11,1.73,10.12-.43-3.01-1.01-6.42-1.73-10.12-1.44-7-3.09-14.97-4.74-22.99-1.57-8.04-3.14-16.12-4.36-23.25l-.03-.3,7.53-2.42c.97,3.62,2.16,7.17,3.56,10.64ZM-514.2,3221.36c1.83,10.22,4.24,20.42,6.51,30.82l3.12-.24h0c.49,1.91,1.04,4.01,1.59,6.14-.55-2.13-1.1-4.23-1.59-6.14l-3.12.25c-2.27-10.41-4.68-20.6-6.51-30.83s-3.51-20.37-4.95-30.55c1.44,10.18,3.12,20.33,4.95,30.55h0ZM-551.16,3233.28c-.8-4.5-1.68-8.93-2.55-13.36.88,4.43,1.75,8.86,2.55,13.36l9,42.55-9-42.55ZM-494.85,3265.9l4.24-2.51-4.24,2.52c3.03,13.5,6.31,27,9.59,40.39-3.29-13.39-6.57-26.89-9.6-40.4h0ZM-357.64,3299.86h0l2.1,14.15,2.9,12.01c.45,1.83.81,3.49,1.03,4.8-.21-1.31-.58-2.96-1.03-4.8-.9-3.71-1.96-8.13-2.9-12.01l-2.1-14.15ZM-359.39,3315.41c-1.1,1.59-.4,9.06.02,14.93l3.38,11.62c-1.13-3.87-2.25-7.74-3.38-11.64-.41-5.86-1.1-13.32,0-14.91h0ZM-507.58,3341.33h0l3.86,14.22-3.86-14.22ZM-293.91,3348.25c-2.24-7.59-4.49-15.18-6.73-22.76l6.72,22.76c3.33,2.12,5.24,3.94,7.46,9.65-2.22-5.72-4.13-7.53-7.46-9.65h0ZM-289.05,3334.46c.5,1.26,1.1,2.93,1.64,4.34-.54-1.42-1.15-3.08-1.64-4.34h0ZM-503.44,3430.92c-3.08-12.4-6.39-25.73-10.27-39.35-1.93-6.81-3.9-13.72-5.88-20.66,1.98,6.95,3.94,13.85,5.88,20.66,3.88,13.61,7.19,26.95,10.27,39.35.61,11.86-1.29,16.23-4.15,17.79,2.86-1.56,4.76-5.93,4.15-17.79h0ZM-457.13,3423.51c1.61,3.72,3.22,7.49,4.85,11.36-1.63-3.87-3.24-7.63-4.85-11.36-3.16-7.46-6.49-14.65-9.48-22.15-3.02-7.49-6.07-15.16-9.2-23.39-1.09.36-2.58-.47-2.48,3.44-.1-3.92,1.39-3.08,2.48-3.45,3.13,8.24,6.17,15.91,9.2,23.4,2.99,7.5,6.32,14.7,9.48,22.16h0ZM-462.26,3440.02c-.4-1.51-.82-3.06-1.26-4.65-2.7-9.76-6.33-20.9-9.86-32.45,3.53,11.55,7.16,22.69,9.86,32.45.45,1.59.87,3.14,1.27,4.65h0ZM-345.96,3375.08c1.91,5.65,4.21,11.16,6.87,16.5-2.66-5.34-4.96-10.85-6.87-16.49h0ZM-361.13,3455.93h0c.93,3.82,1.73,7.23,2.12,9.63-.38-2.4-1.19-5.81-2.12-9.63h0ZM-358.81,3467.06c.03.33.05.63.04.89,0-.26-.02-.56-.04-.89h0ZM-373.71,3486.86c.39.55.82,1.08,1.27,1.58-.46-.5-.88-1.03-1.27-1.58h0ZM-372.3,3488.59c.37.4.8.74,1.28,1h0c-.48-.26-.91-.6-1.28-1h0ZM-487.61,3598.41l-3.89-14.16c-5.68-13.94-10.88-28.07-16.08-42.2-1.91-3.79-3.72-7.6-5.37-11.4,1.66,3.8,3.46,7.61,5.37,11.4l-2.21-19.72c5.05,7.62,9.51,13.22,15.3,23.32,3.9,7.03,7.37,14.29,10.41,21.73,3.67,8.73,6.78,17.67,9.33,26.79l-1.09,6.04v.03c-3.7-1.28-8.79-6.23-15.65-16l3.89,14.17ZM-463.82,3571.8c.02.48-.01.97-.11,1.45-3.22-7.25-6.31-14.51-9.34-21.83,3.03,7.32,6.12,14.58,9.34,21.83.09-.48.13-.96.1-1.44h0ZM-300.14,3578.13c-1.23.43-.37,4.72.9,9.86-1.27-5.13-2.13-9.42-.9-9.86l-16.03-36.91h0l16.03,36.92c2.22,4.69,4.38,9.1,6.52,13.37-2.14-4.27-4.31-8.68-6.53-13.37h0ZM-215.46,3576.08c-1.86-4.79-3.32-8.98-4.55-12.82-.54-1.7-1.03-3.32-1.49-4.89.46,1.57.96,3.19,1.49,4.89,1.23,3.84,2.68,8.03,4.55,12.82,1.83,4.8,4.12,10.17,7.16,16.29.38.53.78,1.11,1.18,1.72-.4-.61-.81-1.19-1.19-1.72-3.04-6.12-5.32-11.49-7.16-16.29h0ZM-289.75,3585.87c6.35,9.01,11.31,13.12,17.95,23.19,1.91,2.25,4.32,5.64,6.72,8.96-2.4-3.31-4.81-6.7-6.72-8.95-6.64-10.07-11.6-14.18-17.95-23.19ZM-258.41,3626.54c-.8-.83-1.71-1.94-2.67-3.17.96,1.22,1.88,2.33,2.68,3.17h0ZM-262.31,3621.77c-.9-1.19-1.81-2.43-2.74-3.72.93,1.28,1.85,2.53,2.75,3.72h0ZM-190.8,3652.83c.96,1.6,1.93,3.19,2.88,4.79h0c-.95-1.6-1.92-3.2-2.88-4.79h0ZM-272.35,3659.65c1.08,3.46,2.47,6.82,4.14,10.04-1.67-3.22-3.06-6.57-4.14-10.04h0ZM-310.25,3682.77l-7.16-14.47,7.16,14.47,7.48,14.3-7.48-14.3ZM2701.17,2169.23c4.72,4.14,10.59,10.89,9.93,3.1.65,7.79-5.21,1.04-9.93-3.09h0ZM2799.07,2219.91v.02c.13.17.27.33.43.48-.16-.15-.3-.31-.43-.48-1.97,1.46-3.74,3.44-5.97,4.28,2.23-.85,4-2.82,5.97-4.29h0ZM2811.94,2232.12c.4,1.31.72,2.45.95,3.43-.23-.98-.54-2.12-.95-3.43h0ZM2785.8,2280.22h0c.68,1.73,1.35,3.35,2,4.92-.65-1.56-1.31-3.19-2-4.91h0ZM2299.31,4059.53h0c1.53-1.54,3.8-3.69,5-4.97-1.21,1.29-3.48,3.43-5,4.97ZM2723.33,3484.88c-2.93,9.16-7.39,21.41-12.78,33.83.55,1.46.16,4.37-1.48,9.2,1.64-4.83,2.03-7.73,1.48-9.18,5.38-12.43,9.85-24.68,12.78-33.84,1.17-3.49,2.08-7.07,2.74-10.69-.66,3.62-1.57,7.2-2.73,10.69ZM2828.45,3070.58c-.32,3.08-.66,6.16-1.03,9.22.37-3.07.71-6.14,1.03-9.22.39-3.89.79-7.79,1.18-11.7-.39,3.9-.79,7.81-1.18,11.7ZM2832.21,3033.67c-.36,2.73-.64,5.48-.92,8.22.27-2.75.56-5.5.92-8.23.53-3.17,1.26-6.31,2.17-9.39-.92,3.08-1.64,6.22-2.17,9.39h0ZM2855.9,2762.43c1.99,2.91,4.24,5.03,5.76,14.36-1.52-9.33-3.77-11.45-5.76-14.36v.07c.02-2.52.11-4.76.24-6.8-.12,2.04-.21,4.28-.25,6.8v-.07ZM2841.11,2665.35v.06s0-.06,0-.06c-3.5-2.92-6.45-8.19-9.53-25.08,3.08,16.89,6.04,22.15,9.53,25.07h0ZM2826.07,2580.23h0c2.12,2.09,1.69-10.43,3.19-11.85-1.5,1.42-1.07,13.94-3.19,11.85h0ZM2820.5,2557.04h0c-.16-.75-.31-1.48-.46-2.21.16.72.31,1.45.47,2.2h0ZM2808.89,2483.72h0c-1.5-3.4-2.74-6.9-3.71-10.49.98,3.58,2.22,7.08,3.72,10.48h0ZM3009.97,2428.46c.11.94.2,1.86.29,2.76-.09-.9-.18-1.81-.29-2.76-.3-2.52-.66-5.22-1.07-8.05.42,2.83.78,5.52,1.08,8.05h0ZM2781.23,2396.1c-2.71-10.17-4.19-17.74-3.26-20.73-3.16-11.42-7.05-22.6-10.54-33.92-1.78-1.07-3.93-5.16-6.56-11.77,2.63,6.61,4.78,10.7,6.56,11.77l1.59-.92-1.59.92c3.49,11.31,7.39,22.5,10.55,33.93-.93,2.98.56,10.54,3.27,20.72h0ZM3012.51,2391.66c3.25-4.51,4.36-9.03,2.47-19.6,1.88,10.57.78,15.09-2.47,19.6l-4.77,1.19,4.77-1.2ZM2989.28,2412.43c-1.35-2.14-2.7-2.6-4.48-8.8,1.79,6.2,3.13,6.66,4.48,8.79,5.49,22.14,9.35,35.99,12.23,39.85-2.87-3.86-6.73-17.72-12.22-39.85h0ZM3025.06,2460.57c-1.4-8.76-2.28-15.4-2.76-20.38.48,4.98,1.36,11.63,2.76,20.39h0ZM3021.94,2435.58c.07,1.29.18,2.75.34,4.38-.15-1.64-.26-3.1-.33-4.38h0ZM2989.83,2579.29c.52,1.41,1.04,2.87,1.57,4.4-.52-1.53-1.04-2.99-1.57-4.4-.88-5.49-1.79-11.09-2.68-16.66.9,5.57,1.8,11.17,2.68,16.66ZM2932.41,2535.07c.05,1.79.08,3.54.11,5.26-.02-1.72-.05-3.47-.11-5.27-.15-4.65-.34-9.47-.49-14.11.14,4.65.34,9.47.49,14.12h0ZM2920.82,2507.23c4.11,17.97,7.28,36.14,9.48,54.44.3-.46.54-.97.7-1.5-.17.53-.4,1.04-.7,1.5-2.2-18.3-5.37-36.48-9.48-54.45h0ZM2921.59,2590.93c-1.35-10.56-3.11-21.11-4.12-30.44-.54-4.66-.93-9.02-1.14-12.88.21,3.87.59,8.22,1.14,12.88,1.02,9.33,2.78,19.88,4.13,30.45h0ZM2996.06,2599.84c-1.03-4.22-2.06-7.94-3.1-11.33,1.04,3.38,2.08,7.11,3.1,11.33h0ZM2945.7,2678.99h0c.91,3.97,1.55,7.29,1.98,10.15-.44-2.86-1.07-6.18-1.98-10.15h0ZM3002.22,2700.62l-4.65.62,4.65-.62.41-14.26h0c2.09-.21,4.07,3.6,5.92,12.17.49,2.14.95,4.58,1.37,7.33-.42-2.75-.88-5.19-1.37-7.33-1.85-8.57-3.83-12.38-5.92-12.17l-.41,14.26ZM2936.45,2719.23h0c-3.61,10.55-7.22,21.1-11.02,32.21,3.81-11.11,7.42-21.66,11.02-32.21h0ZM3135.13,2784.28c0,.69,0,1.4-.01,2.09,0-.69,0-1.4.01-2.09,0-.27,0-.54,0-.8,0,.27,0,.53-.01.8h0ZM3010.89,2769.02c1.11,2.9,2.07,8.13,2.74,17-.67-8.87-1.63-14.1-2.74-17h0ZM3014.55,2808.89h0c-.91.36-1.86-.06-2.67,2.13.81-2.19,1.76-1.77,2.67-2.13h0ZM2955.97,2955.17h0c.95,5.3,1.74,11.9,2.66,17.39-.93-5.5-1.72-12.08-2.66-17.39h0ZM3079.92,2977.13c-.23,3.89-.46,7.67-.68,11.44.22-3.77.45-7.54.68-11.44ZM2322.9,4164.15c-.36,2.66-4.16,7.55-11.38,14.43,7.21-6.88,11.01-11.77,11.37-14.43,14.17-11.31,27.81-22.88,41.59-34.38-13.78,11.49-27.4,23.06-41.58,34.37ZM2715.46,3732.34c-3.31,4.65-7.13,10.73-11.64,18.58,4.51-7.86,8.33-13.94,11.64-18.58,2.37-3.72,5.22-7.12,8.48-10.09-3.26,2.98-6.11,6.37-8.48,10.09ZM2730.98,3718.96h0c3.18-4.6,5.1-6.98,6.19-7.91-1.1.93-3.01,3.31-6.19,7.9h0ZM2784.53,3565.7c4.76-10.96,9.79-21.77,14.24-32.38-.94-2.48-.52-7.35,2.95-17.38-3.47,10.03-3.89,14.9-2.95,17.38-4.45,10.61-9.48,21.42-14.24,32.38-2.43,5.45-4.77,10.96-7.27,16.33-1.7,3.53-3.36,6.99-5.04,10.47,1.68-3.48,3.34-6.94,5.04-10.47,2.5-5.38,4.84-10.88,7.27-16.34h0ZM2802.2,3596.43c-5.53,11.58-11.06,23.16-16.59,34.76v.03c5.53-11.62,11.07-23.21,16.59-34.78,2.64-5.71,5.18-11.45,7.62-17.24-2.46,5.78-5,11.52-7.62,17.23h0ZM2840.01,3518.76c-2.42,5.43-4.86,10.55-7.34,14.97-3.92,8.13-7.41,16.46-10.45,24.96-.95,2.62-1.74,5.3-2.36,8.01.62-2.72,1.41-5.39,2.36-8.01,3.03-8.5,6.52-16.83,10.44-24.96,2.48-4.42,4.92-9.54,7.34-14.97,2.34-5.46,4.56-11.27,6.84-16.98-2.28,5.7-4.5,11.51-6.84,16.97h0ZM2818.87,3484.6l8.62-17.43,7.2-15.5-7.2,15.5-8.62,17.43ZM2888.99,3185.22c1.76-5.17,3.43-10.13,5.09-15.1-1.67,4.96-3.33,9.92-5.09,15.09h0ZM2913.01,3125.23c-1.13,7.54-2.65,15.02-4.57,22.41-1.76,6.09-3.48,10.29-4.88,10.97-2.02.98-3.68-.13-5.49-.31-.79,2.33-1.56,4.61-2.33,6.89.77-2.28,1.54-4.56,2.33-6.89,2.86-16.9,4.71-33.98,7.05-50.94.67-4.15,1.33-7.79,1.99-11.19-.66,3.4-1.32,7.04-1.99,11.19,2.55-2.84,5.33-8.08,7.33-7.94,2.07.15,3.97,4.77.56,25.8h0ZM3044.96,3243.49c-.64,3.29-1.46,7.16-2.27,10.95.81-3.8,1.63-7.67,2.27-10.95ZM3008.37,3207.06l2.46-13.81,4.9-27.62h0l-4.91,27.62-2.45,13.81-2.75,13.75c-.46,6.62-1.27,13.2-2.44,19.73,1.16-6.53,1.98-13.11,2.44-19.73l2.75-13.76ZM2985.18,3231.07c-.81,3.34-1.6,6.62-2.37,9.84.78-3.22,1.57-6.5,2.37-9.84h0ZM2980.25,3251.48c.75-3.09,1.51-6.24,2.28-9.46l-2.28,9.46c-.46,1.8-.88,3.56-1.31,5.33.43-1.78.85-3.53,1.31-5.35h0ZM2975.76,3270.48c-1.32,6.14-2.45,12.1-3.33,17.91.88-5.82,2-11.78,3.32-17.92h0ZM3029.44,3283.61c1.98-8.51,4.08-17,5.97-25.53l5.42-25.66c.95-4.27,1.84-8.54,2.69-12.83-.85,4.29-1.75,8.56-2.69,12.83l-5.42,25.66c-1.89,8.53-3.99,17.02-5.97,25.53,1.33.15,2.23,1.59,1.94,6.57-.01.2-.04.43-.05.64.02-.21.04-.45.05-.64.29-4.99-.61-6.43-1.94-6.57h0ZM2979.77,3385.17c.56-2.24,1.07-4.45,1.56-6.62-.48,2.15-1,4.37-1.56,6.6h0ZM2820.02,3856.66h0c8.06-12.86,15.8-25.95,23.66-38.95-7.86,12.98-15.59,26.07-23.66,38.93h0ZM2898.69,3670.68l-6.62-3.85,6.63,3.85c-5.85,11.53-11.96,22.68-17.98,33.91,6.02-11.25,12.13-22.39,17.98-33.92h0ZM2864.21,3716.23c-1.11,2.65-2.35,5.48-3.62,8.39,1.27-2.91,2.5-5.75,3.62-8.4h0ZM2795.07,3838.53c4.8-8.37,7.65-16.18,12.55-29.44,2.01-3.31,3.94-6.59,5.77-9.83-1.84,3.25-3.76,6.52-5.76,9.81-4.9,13.27-7.76,21.09-12.56,29.45-1.7,2.95-3.63,6.01-5.91,9.42,2.28-3.42,4.21-6.48,5.91-9.42h0ZM2653.07,4077.23c.19-.43.21-.69.12-.82.1.14.07.39-.12.82ZM2648.37,4079.04h0c3.23-5.31,7.96-11.85,12.65-18.58-4.69,6.73-9.42,13.28-12.65,18.58h0ZM2680.73,4044.87c.46-.82,1.06-1.77,1.73-2.79-.67,1.02-1.26,1.97-1.73,2.79h0ZM2694.9,4025.41l.74-.93h0c-.26.32-.49.62-.74.93ZM2516.86,4144.98h0c6.42-6.28,12.7-12.74,18.93-19.25,6.05-6.68,12.11-13.36,18.19-20.06,12.28-13.22,24.04-26.86,37.04-39.2l3.24.89c.3,4.54,4.56,5.09-23.79,37.03-14.12,15.32-4.25,9.7-5.92,14.24,36.3-34.84,68.57-74.4,99.64-114.35-31.08,39.95-63.34,79.51-99.63,114.34l-16.08,17.04c2.59-7.62-23.58,16.84-27.45,16.39,5.85-9.6-18.8,11.33-4.17-7.06ZM2488.06,4195.36c-1.57,2.2-3.28,4.3-5.11,6.28,1.83-1.98,3.54-4.08,5.11-6.28h0ZM2482.44,4202.18c-3.26,3.53-7.21,7.32-11.64,11.25,4.43-3.94,8.38-7.72,11.64-11.25h0ZM2427.26,4230.67c4.54-4.16,8.79-7.87,12.85-11.29-4.06,3.42-8.31,7.13-12.85,11.29h0ZM2337.55,4255.25c3.21-2.64,6.62-5.04,10.19-7.17-3.58,2.14-6.99,4.54-10.21,7.19,0,0,.01,0,.02-.02h0ZM2029.34,4450.38h0c.95-.03,1.9-.12,2.84-.27-.94.15-1.9.24-2.85.27h0ZM2059.28,4492.85c.87-.37,1.7-.72,2.51-1.04-.8.32-1.64.67-2.51,1.04-3.65,1.5-7.84,3.38-12.28,5.55,4.44-2.17,8.63-4.05,12.28-5.55h0ZM1765.29,4599.62c10.33-2.47,23.25-6.67,34.44-9.76,5.27-1.05,10.62-1.95,15.89-3.14,7.59,1.18,11.35,1.77,19.77-.4,3.16-.81,6.97-2.02,11.89-3.72-4.92,1.7-8.73,2.9-11.89,3.72-8.42,2.17-12.17,1.59-19.77.41-5.26,1.18-10.61,2.09-15.91,3.15-11.18,3.09-24.09,7.28-34.42,9.75-4.01,1-8.06,1.77-12.15,2.31,4.09-.54,8.15-1.32,12.16-2.31h0ZM1860.53,4591.26c-1.17.35-2.41.73-3.72,1.14,1.31-.41,2.55-.79,3.72-1.14h0ZM1854.05,4593.28c-2.19.71-4.58,1.5-7.21,2.4,2.63-.89,5.02-1.69,7.21-2.39h0ZM1780.34,4613.93c9.89-1.94,19.3-3.57,28.43-5.01,15.48-5.39,26.86-9.41,35.68-12.43-8.83,3.02-20.2,7.04-35.68,12.43-9.13,1.44-18.54,3.06-28.43,5.01-8.96,1.83-18.46,3.49-28.43,5.65,9.97-2.15,19.48-3.82,28.44-5.65h0Z"/>
      <path id="Caminho_7" data-name="Caminho 7" class="cls-1" d="M1100.01,842.05c-9.57.88-18.99,1.87-28.1,3.06-9.11,1.19-17.86,2.92-26.16,4.73-63.06,9.53-125.98,18.93-188.42,31.18-13.79,2.78-25.36,5.28-34.79,7.53-9.4,2.43-16.67,4.6-21.91,6.47-10.49,3.75-12.86,6.38-7.9,8.21,4.41,1.62,12.45,2.22,14.82,4.47,5.2,4.89,34.81-.58,84.5-12.68,9.94-2.38,18.9-4.85,28.37-7.27,9.5-2.28,19.55-4.34,31.63-6.21l18.29-2.94,17.46-2.66c11.38-1.8,22.24-3.72,32.74-5.63,10.52-1.71,20.69-3.48,30.62-5.3s19.65-3.72,29.3-5.27c87.05-9.29,105.69-10.74,101.01-19.22-.51-.89-1.73-1.67-5.13-2.15s-8.98-.68-18.19-.07c-19.19,1.24-39,1.77-58.14,3.75Z"/>
      <path id="Caminho_8" data-name="Caminho 8" class="cls-1" d="M2392.43,1250.75c-12.8-10.17-28.43-21.06-41.54-29.66-8.07-5.37-16.25-10.49-24.29-15.59l-23.64-15.25c-15.6-9.76-30.37-19.33-43.9-28.2-14.3-9.2-23.08-14.37-28.99-16.79-8.05-3.29-2.42,1.47,1.99,5.5,8.67,8.02,26.64,18.28,42.79,28.75,38.16,23.88,75.32,45.61,112.75,75.62,9.84,8.05,28.19,18.88,31.4,19.23,4.64.17-14.68-14.46-26.55-23.62Z"/>
      <path id="Caminho_15" data-name="Caminho 15" class="cls-1" d="M658.2,910.51c5.86-2.14,11.69-4.4,17.59-6.44-6.11,1.39-12.02,3.56-17.59,6.44Z"/>
    </g>
  </g>
</svg>