<svg xmlns="http://www.w3.org/2000/svg" width="154.546" height="145.731" viewBox="0 0 154.546 145.731">
  <g id="Grupo_433" data-name="Grupo 433" transform="translate(-597.975 -1089.879)">
    <g id="Grupo_431" data-name="Grupo 431">
      <g id="Grupo_429" data-name="Grupo 429">
        <path id="Caminho_418" data-name="Caminho 418" d="M734.842,1092.885s-69.354-11.059-58.412,58.412C745.9,1162.239,734.842,1092.885,734.842,1092.885Z" fill="none" stroke="#fff" stroke-linecap="round" stroke-linejoin="round" stroke-width="4.722"/>
        <line id="Linha_1" data-name="Linha 1" x1="40.29" y2="40.29" transform="translate(676.43 1111.007)" fill="none" stroke="#fff" stroke-linecap="round" stroke-linejoin="round" stroke-width="4.722"/>
      </g>
      <g id="Grupo_430" data-name="Grupo 430">
        <path id="Caminho_419" data-name="Caminho 419" d="M615.676,1092.885s69.354-11.059,58.412,58.412C604.616,1162.239,615.676,1092.885,615.676,1092.885Z" fill="none" stroke="#fff" stroke-linecap="round" stroke-linejoin="round" stroke-width="4.722"/>
        <line id="Linha_2" data-name="Linha 2" x2="37.946" y2="37.946" transform="translate(636.142 1113.352)" fill="none" stroke="#fff" stroke-linecap="round" stroke-linejoin="round" stroke-width="4.722"/>
      </g>
      <path id="Caminho_420" data-name="Caminho 420" d="M679.591,1180.8a220.782,220.782,0,0,1-2.738-30.747h-3.188c-.541,17.464-2.13,28.24-3.44,34.379A67.526,67.526,0,0,0,679.591,1180.8Z" fill="none" stroke="#fff" stroke-linecap="round" stroke-linejoin="round" stroke-width="4.722"/>
    </g>
    <g id="Grupo_432" data-name="Grupo 432">
      <path id="Caminho_421" data-name="Caminho 421" d="M643.787,1194.429,621.7,1181.067a14.611,14.611,0,0,0-20.1,4.776h0a8.336,8.336,0,0,0,2.724,11.469l18.594,11.493,24.64,15.181c18.885,11.636,44.8,12.014,63.282,2.761a69.227,69.227,0,0,1,39.322-6.768V1176.12l-16.69-9.247c-18.626-10.409-42.424,7.281-42.424,7.281-9.069,5.974-16.725,9.829-27.28,11.837-3.925.747-8.763.693-12.362,2.288-4.468,1.978-8.08,5.358-9.208,10.247a9.7,9.7,0,0,0,3.653,9.717c4.008,2.706,10.03,1.753,14.487,1.181a133.129,133.129,0,0,0,32.108-8.5l.4-.16" fill="none" stroke="#fff" stroke-linecap="round" stroke-linejoin="round" stroke-width="4.722"/>
      <path id="Caminho_422" data-name="Caminho 422" d="M652.4,1187.892l-23.976-14.058a12.921,12.921,0,0,0-17.778,4.223l-.654,1.411" fill="none" stroke="#fff" stroke-linecap="round" stroke-linejoin="round" stroke-width="4.722"/>
      <path id="Caminho_423" data-name="Caminho 423" d="M666.26,1185.515l-27.442-16.193a12.923,12.923,0,0,0-16.6,2.6" fill="none" stroke="#fff" stroke-linecap="round" stroke-linejoin="round" stroke-width="4.722"/>
    </g>
  </g>
</svg>
