<svg xmlns="http://www.w3.org/2000/svg" width="58.177" height="82.484" viewBox="0 0 58.177 82.484">
  <g id="Grupo_211" data-name="Grupo 211" transform="translate(-1133.329 -633.086)">
    <path id="Caminho_276" data-name="Caminho 276" d="M1169.275,694.651c-2.792,2.7-6.369,4.547-10.139,2.665a15.64,15.64,0,0,1-3.881-2.747l-17.72-16.952a7,7,0,0,1-1.525-7.925,6.918,6.918,0,0,1,6.533-4.185,7.747,7.747,0,0,1,5.053,2.227l7.85,7.628-.041-34.79c-.005-4.3,2.943-7.611,7.072-7.482,4,.125,6.627,3.441,6.618,7.519l-.073,34.757,7.737-7.545a6.951,6.951,0,0,1,9.213-.428,6.694,6.694,0,0,1,.8,10.308Z" fill="#fff"/>
    <path id="Caminho_277" data-name="Caminho 277" d="M1185.262,715.564l-46.159.006a5.5,5.5,0,0,1-4.962-3.09,7.454,7.454,0,0,1,.012-6.791,5.569,5.569,0,0,1,5.065-3.1l45.986.009a6.285,6.285,0,0,1,6.3,6.649A6.2,6.2,0,0,1,1185.262,715.564Z" fill="#fff"/>
  </g>
</svg>
