<svg xmlns="http://www.w3.org/2000/svg" width="187.635" height="161.68" viewBox="0 0 187.635 161.68">
  <path id="Caminho_417" data-name="Caminho 417" d="M671.935,580.8c8.337-10.882,19.754-15.182,32.451-16.8a79.175,79.175,0,0,1,30.4,2.1c.687.18,1.376.359,2.051.579,3.282,1.07,3.872,1.9,3.9,5.407.022,2.669.02,2.672,2.474,3.61a22.492,22.492,0,0,1,4.257,2.185,10.134,10.134,0,0,1,4.864,8.421c.108,2.306.079,4.619.051,6.929a1.794,1.794,0,0,0,1.257,2.03c8.451,3.2,12.161,8.507,12.339,17.531.012.622.01,1.244.01,1.866q.013,37.467.031,74.933a26.366,26.366,0,0,1-.989,8.434c-2.431,7.34-7.431,11.723-15.107,12.893a34.035,34.035,0,0,1-5.054.232q-23.734.031-47.467.025c-1.244,0-2.5.084-3.731-.03-1.477-.136-2.1.523-2.763,1.818-3.524,6.865-9.079,11.032-16.841,11.962a20.5,20.5,0,0,1-20.443-11.2c-1.005-2.067-2.23-2.548-4.293-2.544-15.822.03-31.644-.022-47.466-.057-1.867,0-3.734-.023-5.6-.088-10.728-.375-17.44-8.88-17.863-18.337-.02-.444-.02-.889-.019-1.333q.039-39.066.079-78.133a21.531,21.531,0,0,1,1.318-8.1c1.986-4.975,5.855-7.983,10.6-9.906a2.5,2.5,0,0,0,1.887-2.937c-.108-1.5-.058-3.02-.058-4.531,0-5.834,2.882-9.709,8.138-11.967a14.349,14.349,0,0,1,1.491-.577,1.787,1.787,0,0,0,1.357-1.974c.16-5.661.444-5.875,5.985-7.257a80.532,80.532,0,0,1,29.616-2.014,63.773,63.773,0,0,1,17.233,4.454A36.2,36.2,0,0,1,671.935,580.8ZM675.6,698.223c.677.054.869-.508,1.166-.905a50.117,50.117,0,0,1,7.773-8.028,50.763,50.763,0,0,1,23.406-11.523,65.223,65.223,0,0,1,13.807-.913,46.884,46.884,0,0,0,7.455-.251c3.55-.509,5.343-2.514,5.442-6.065.027-.977.022-1.956.019-2.933q-.155-45.2-.326-90.394c-.025-5.638.477-4.419-4.532-5.551-11.468-2.589-22.925-2.628-34.243.864a35.481,35.481,0,0,0-16.016,9.668c-2.642,2.855-4.4,6.013-4,10.06a13.155,13.155,0,0,1,0,1.333c-.083,34.486.062,68.973-.263,103.459C675.284,697.453,675.125,697.93,675.6,698.223Zm-6.678-.284c0-3.583,0-7.04,0-10.5-.014-31.109-.112-62.219.034-93.328a16.757,16.757,0,0,0-6.422-13.661A41.336,41.336,0,0,0,649.086,573c-11.989-4.121-24.13-3.55-36.318-1.151-2.847.56-2.852.655-2.854,3.465q-.031,47.064-.049,94.128c0,.355.022.711.007,1.066a5.376,5.376,0,0,0,2.7,4.884,9.608,9.608,0,0,0,5.29,1.571c1.6.047,3.2.026,4.8-.063a51.6,51.6,0,0,1,12.482.7c13.056,2.459,24.039,8.458,32.292,19.07C667.79,697.137,667.968,697.817,668.918,697.939ZM592.337,602.1a1.7,1.7,0,0,0-1.706.118c-4.165,2.31-5.87,5.946-5.863,10.6q.052,38.931.072,77.862a23.128,23.128,0,0,0,.354,3.975,12.071,12.071,0,0,0,10.154,9.927,43.139,43.139,0,0,0,6.655.268q24.132-.012,48.264-.058c1.422,0,2.845.069,4.265.02a2.651,2.651,0,0,1,2.827,1.91,29.46,29.46,0,0,0,2.689,5.2,14.093,14.093,0,0,0,22.818,1.547,20.242,20.242,0,0,0,3.639-5.866c.911-2.3,2.37-2.856,4.712-2.847,16.177.068,32.354.014,48.531-.038,3.019-.01,6.045-.1,9.057-.31,4.994-.348,8.136-3.167,9.821-7.75a18.3,18.3,0,0,0,1-6.551c-.057-5.954-.157-11.909-.15-17.864q.036-29.6.135-59.2a16.836,16.836,0,0,0-.287-3.714,10.017,10.017,0,0,0-5.75-6.919c-1.05-.528-1.485-.106-1.432.994.013.266.012.533.012.8q.036,34.532.077,69.063c.008,4.71.11,9.42.169,14.13.07,5.647-3.478,9.785-9.114,10.655a50.9,50.9,0,0,1-7.715.375c-14.755.026-29.51-.011-44.264.041-8.208.029-6.092-.842-11.549,5.1a33.232,33.232,0,0,1-4.622,4.407,4.736,4.736,0,0,1-5.927.107,15.382,15.382,0,0,1-2.843-2.405c-1.268-1.368-2.581-2.708-3.722-4.179a7.875,7.875,0,0,0-6.9-3.159c-15.376.147-30.754.116-46.131.132-2.488,0-4.979-.014-7.464-.124a9.948,9.948,0,0,1-7.973-4.179,10.968,10.968,0,0,1-1.792-6.819q.013-40.4-.053-80.795C592.335,605.054,592.337,603.551,592.337,602.1ZM692.2,691.7a4.268,4.268,0,0,0,2.467.413q5.865.021,11.729,0,17.058-.05,34.117-.118c3.585-.018,5.786-1.34,5.645-5.909-.263-8.523-.21-17.057-.23-25.587-.054-23.99-.121-47.981-.063-71.972.007-2.968-1.046-4.925-3.582-6.231-1.184-.61-1.541-.384-1.587,1.01-.009.265.032.532.036.8.445,28.965.223,57.932.395,86.9.039,6.534-4.2,11.188-10.716,12.119a49.36,49.36,0,0,1-6.382.354c-3.731.046-7.456.163-11.185.374C705.214,684.285,698.747,687.595,692.2,691.7ZM603.382,581.446c-3.229,1.586-4.683,3.528-4.678,6.85.055,32.781-.008,65.563-.01,98.344,0,4.03,1.474,5.453,5.451,5.551.355.009.711.007,1.066,0,14.835-.3,29.67-.13,44.505.053a3.134,3.134,0,0,0,2.493-.472c-5.25-3.213-10.431-6.167-16.451-7.295a75.748,75.748,0,0,0-15.131-.939,28.138,28.138,0,0,1-7.414-.61c-6.466-1.644-10.028-6.229-9.964-12.862.043-4.442.111-8.883.114-13.325q.024-35.313.019-70.626Z" transform="translate(-578.385 -563.371)" fill="#f5f5f5"/>
</svg>
