<?xml version="1.0" encoding="UTF-8"?>
<svg id="Camada_1" xmlns="http://www.w3.org/2000/svg" version="1.1" viewBox="0 0 3932.35 5000">
  <!-- Generator: Adobe Illustrator 29.0.0, SVG Export Plug-In . SVG Version: 2.1.0 Build 186)  -->
  <defs>
    <style>
      .st0 {
        fill: #0b332d;
      }
    </style>
  </defs>
  <path class="st0" d="M3755.52,2298.94l-16.46-14.35-20.07,8.58c-39.58,16.9-74.75,40.16-108.76,62.65-18.56,12.28-36.09,23.86-54.28,34.5-134.92,78.84-307.51,141.72-485.97,177.02-41.56,8.23-84.35,14.62-126.65,20.43,3.16-1.44,5.36-2.45,6.37-2.98,264.23-134.5,668.06-488.07,626.74-864.12-3.19-28.98-8-72.77-43.64-83.69-34.71-10.63-62.54,22.12-73,34.47-24.98,29.42-48.68,64.49-71.59,98.41-18.75,27.77-38.16,56.49-57.64,81.09-81.15,102.51-162.5,189.39-247.98,264.85,30.84-130.53,34.22-285.06,8.45-408.05-13.2-62.95-38.18-150.76-102.41-186.35l-14.78-8.19-15.57,6.56c-12.43,5.23-21.35,12.12-27.2,21.09-10,15.24-13.79,41.01-20.07,110.7-1.33,14.69-2.58,28.57-3.6,35.29-37.9,247.97-108.38,430.39-235.69,609.95-30.03,42.36-63.21,83.46-95.3,123.21-53.36,66.11-107.25,133.38-153.92,204.39-6.77,10.32-13.74,20.95-20.05,32.55-2.11-3.48-4.26-6.97-6.45-10.48-6.5-12.44-15.04-25.03-19.95-38.14-7.26-19.37,5.99-38.24,13.81-55.01,8.65-18.54,16.16-38,23.92-57.09,17.17-42.21,32.28-85.25,45.62-128.82,30.17-98.51,51.35-199.61,67.3-301.33,5.43-34.6,10.24-69.29,14.55-104.04,21.37-172.02,45.82-491.61-30.33-699.35-16.16-44.09-34.49-94.07-76.54-93.04-40.45.99-55.91,50.62-62.51,71.82-23.31,74.8-37.16,162.55-50.55,247.4-7.87,49.88-15.3,96.98-24.43,140.87-11.92,57.33-25.7,115.52-39.04,171.78-20.08,84.76-40.85,172.41-56.03,260.28-13.38,77.53-22.49,156.25-26.99,232.89l-2.72,30.01c-17.7-30.03-36.06-60.95-58.26-89.55l-6.85-10.56c25.94-51.92,45.81-107.04,59.15-164.12,73.53-314.89,8.49-857.25-98.81-1131.81-38.48-98.44-77.99-145.62-117.43-140.22-44.38,6.11-50.21,64.01-52.4,85.81-4.25,42.19-4.09,86.15-3.93,128.66.11,29.56.21,57.47-1.05,84.79-3.83,83.54-11.57,170.46-19.05,254.51-6.69,75.05-13.48,151.41-17.77,227.66-12.95-50.11-28.61-103.49-47.55-162.23-51.59-160.01-102.4-282.99-155.3-375.95-1.6-2.82-3.31-6.03-5.13-9.46-14.95-28.03-42.77-80.19-94.49-70.26l-5.62,1.08-4.97,2.82c-13.2,7.45-34.95,19.81-42.2,148.13-3.73-10.06-7.54-20.2-11.42-30.39l-5.57-14.49c-5.94-15.35-12.04-30.75-18.33-46.23l-3.91-9.56c-6.98-16.96-14.11-33.84-21.59-50.91l-1.76-4.04c-3.35-7.6-6.73-15.14-10.12-22.6l-4.25-9.24c-3.03-6.55-6.05-13.07-9.13-19.54l-5.46-11.28c-2.4-4.95-4.82-9.88-7.25-14.78l-5.37-10.65c-2.86-5.65-5.76-11.22-8.67-16.76l-6.05-11.54c-3.58-6.76-7.43-14.03-11.56-21.46-2.86-5.15-5.81-10.34-8.42-14.72-21.79-38.93-40.35-59.07-61.07-65.93-14.01-6.34-25.97-4.83-33.8-2.26-20.73,6.82-29.86,26.66-32.86,33.18-5.9-10.86-11.87-21.65-17.63-32.04-8.67-15.65-16.85-30.44-23.21-43.6l-3.73-7.74c-25.52-52.9-55.04-111.48-84.74-142.32-12.61-18.23-40.44-33.71-65.44-27.83-6.93,1.64-13.43,4.63-19.79,9.11-6.09,3.65-11.72,8.43-16.96,14.41-15.35-26.96-31.35-54.64-50.55-80.4-14.01-18.78-45.82-61.43-80.27-84.14-14.01-14.93-35.19-18.92-50.7-17.43-6.66.63-13.46,2.32-20.79,5.15-.4.16-.8.31-1.18.46-25.41-33.76-51.92-62.38-79.11-85.33-13.89-11.73-25.77-19.82-37.16-25.31-7.29-4.31-14.36-6.39-19.2-7.8-1.07-.31-2.12-.61-3.19-.97-12.75-4.22-27.3-3.17-42.11,3.04-4.6,1.94-8.96,4.35-13.01,7.21-3.87-3.65-7.86-7.35-12.02-11.14l-6.35-6.33c-24.42-24.35-101.02-62.42-136.62-67.91-21.72-3.35-68.38-2.35-89.5,25.82-30.35,40.4-15.05,97.68-7.69,125.2,10.66,39.91,30.85,74.27,50.39,107.51l2.83,4.82c1.07,1.83,2.16,3.64,3.29,5.44-1.88,1.97-3.71,4.18-5.39,6.67-6.16,9.08-9.37,19.8-9.83,32.71-.12,3.08-.06,6.23.03,9.39l.06,2.91c.05,5.4,1.02,9.89,1.6,12.62,1.68,7.82,4.16,13.82,6.17,18.64l1.1,2.68c7.37,18.27,14.9,31.75,23.59,42.23,13.95,22.24,31.78,45.37,53.27,69.1-14.07,14.32-20.06,33.86-16.62,55.74,1.17,8.75,3.83,17.54,7.73,25.55,9.92,22.79,26.92,44.97,39.38,61.22,27.82,36.31,60.36,72.22,99.46,109.76,2.88,2.76,5.78,5.52,8.72,8.29-3.74,2.64-7.58,5.92-11.27,9.91-3.07,3.35-7.71,8.42-11.13,15.62-.65,1.31-1.17,2.57-1.6,3.75-1.08,2.35-1.99,4.71-2.78,7.18-5.2,16.81-6.23,45.93,44.71,104.46,5.52,6.33,11.27,12.54,17.09,18.64,2.19,2.31,4.41,4.58,6.67,6.88,3.45,3.5,6.97,6.96,10.45,10.32,6.86,6.66,13.85,13.17,21.34,19.85l.97.88c18.71,16.59,38.8,32.73,61.46,49.35l2.51,1.83c4.85,3.53,9.7,7.06,14.57,10.48,5.62,3.97,11.28,7.9,17.01,11.81l3.9,2.62c-9.88,4.84-18.71,10.81-26.01,17.6-14.03,10.05-22.34,24.76-23.63,42.2-2.75,14.73-.84,30.02,5.57,44.45,23.65,53.16,70.68,96.62,112.18,134.98l13.05,12.11c9.89,9.24,19.89,18.36,29.94,27.36l1.11.99c34.44,30.8,67.61,58.49,89.55,76.81l1.24,1.04c7.11,5.94,14.47,11.95,22.3,18.22-80.44-28.66-175.85-60.49-273.26-73.39-89.67-11.86-135.97-1.28-150.09,34.24-16.5,41.51,25.72,79.21,69.22,110.62,147.77,106.73,316.93,215.56,452.52,291.11,39.57,22.05,80.08,43.09,121.49,61.52,26.38,11.74,54.85,18.46,80.5,31.88,25.54,13.36,48.64,24.26,75.55,35.45-105.89-9.86-211.5-11.98-314.81-14.06-66.71-1.34-135.7-2.72-203.75-6.16-58.26-2.94-119.84-10.07-185.04-17.63-95.91-11.11-195.07-22.6-283.17-19.59l-3.54.12c-25.01.75-71.55,2.15-88.92,39.16l-1.74,3.73-.83,4.03c-4.32,21.11,2.26,47.32,79.06,95.84,235.29,148.64,705.77,219.71,946.67,238.27,54.37,4.18,115.95,8.11,179.91,8.21-119.02,19.46-234.06,51.58-346.43,82.95-59.73,16.68-121.49,33.92-182.88,48.99-57.25,14.05-117.69,26.76-176.14,39.05-101.72,21.39-206.91,43.51-305.06,74.43-3.62,1.15-7.36,2.27-11.11,3.4-32.62,9.83-69.6,20.94-73.63,56.06-4.05,35.42,33.35,56.83,47.44,64.89,66.1,37.83,206.12,48.43,283.69,51.36,230.08,8.72,476.03-15.69,717.63-70.83-39.7,18.38-77.85,35.72-115.28,51.27-140.98,58.59-275.38,101.11-417.68,146.13-51.42,16.27-104.6,33.1-158.15,50.76-4.05,1.33-8.9,2.88-14.27,4.59-34.56,11.02-64.55,20.95-81.53,30.89-8.36,4.88-20.49,13.03-29.24,27.51l-2.65,4.41-1.27,4.98c-7.52,29.48,7.02,51.96,43.22,66.82l3.84,1.6c196.73,85.66,652.98-46.83,704.35-62.22,92.61-27.75,187.78-60.82,267.97-93.15,97.53-39.32,169.35-74.96,231.99-115.18,62.91-28.29,119.77-72.6,163.11-126.62l38.5,50.5c-.12.06-.24.11-.36.16-12.09,5.13-24.59,10.45-37.15,17.84-9.76,5.74-19.27,11.61-28.73,17.45l-9.6,5.9c-15.41,8.53-31.79,17.91-50.01,28.68-13.91,7.6-26.68,14.98-39,22.55-3.92,2.4-7.98,5.5-12.75,9.26l-3.32,2.06c-2.24,1.36-4.48,2.73-6.73,4.19-4.42,2.85-8.8,5.74-13.18,8.63l-6.3,4.14,16.32,24.88.44,1.55-17.19-26.14c-70.23,46.19-138.92,95.73-205.35,143.64-100.17,72.24-203.76,146.95-313.09,210.3-74.9,43.39-153.34,79.32-229.18,114.07-51.29,23.49-104.32,47.78-156.36,74.38-3.94,2.02-8.27,4.08-12.74,6.22-30.04,14.33-67.41,32.18-68.39,68.57-.62,22.63,13.57,42.02,42.18,57.65,143.85,78.59,441.35-17.62,499.52-37.71,134.83-46.54,261.55-109.77,374.9-186.51-102.7,124.73-226.33,233.02-368.79,322.94-5.05,3.19-15.99,9.37-28.66,16.54-111.32,62.99-138,83.65-142.69,110.55-2.5,14.33,1.48,28.39,11.2,39.61,28.49,32.89,108.19,32.21,123.88,31.75,153.06-4.54,354.89-89.1,467.07-166.37,8.69-5.99,17.18-12.16,25.59-18.45,45.55-33.99,88.06-73.06,126.31-116.16l6.3-7.12c10.38-9.83,19.9-21.41,29.83-36.21,16.56-21.21,32.61-43.85,47.68-67.23l3.33-5.11c2.68-4.23,5.3-8.51,7.92-12.78l4.19-6.77c2.08-3.46,4.11-6.96,6.13-10.45l5.48-9.36c3.5-6.16,6.94-12.35,10.43-18.8l.69-1.25c3.58-6.62,7.08-13.29,10.64-20.26,1.07-2.09,2.11-4.2,3.15-6.3l1.15-2.39c23.99-44.73,44.83-93.75,61.93-145.69l6.36-19.23c15.14-45.6,30.8-92.75,40.38-141.17.74-3.71,2.33-8.8,4.19-14.42l8.49,12.9c6.9,10.48,13.08,21.55,18.35,32.89,2.52,5.41,4.84,10.91,7.19,16.4,3.44,8.08,7,16.43,11.18,24.86,3.41,6.89,7.38,13.94,12.11,21.5,83.34,180.2,142.97,346.36,181.54,506.12-16.94-.59-33.82,1.8-45.98,9.99-14.1,9.51-21.26,25.22-19.13,42.02l.66,5.24,2.19,4.81c16.65,36.56,43.48,64.88,69.42,92.26,18.72,19.76,36.41,38.44,48.56,58.49,22.13,36.52,43.88,201.87,51.02,256.2l1.74,13.22c6.04,45.36,11.11,92.04,15.11,139.23-2.27-.05-4.54.03-6.79.28-18.23,2.08-50.5,13.55-56,43.3-3.31,17.88,5.53,32.58,31.58,72.47,3.94,6.02,9.33,14.27,10.58,16.59,56.38,104.99,49.11,231.23,34.57,340.87-.97,7.34-2.67,14.67-4.3,21.76-4.73,20.51-10.61,46.04,7.11,67.37,17.5,21.04,46.19,22.75,71.95,21.65,29.54-1.27,62.1-10.2,94.61-25.89,26.06-3.08,52.97-23.66,85.08-55.87,4.72-4.73,9.55-9.72,14.51-14.94l4.85-5.08c19.3-19.9,30.75-43.99,34.95-73.59.52-1.67,1-3.38,1.43-5.25,1.66-7.52,1.76-16.33.32-29.2-.38-15.79-2.04-31.44-3.66-46.61-1.26-11.82-2.46-22.99-3.01-33.76l-.06-1.21c-4.24-82.16-8.63-167.12-4.18-249.72l.56-10.94c1.55-31.28,3.01-60.83,14.73-84.32,17.63-35.29,44.33-70.65,67.97-101.03,15.57-20.01,32.37-38.94,50.14-59,35.96-40.56,73.14-82.5,99-133.47,13.1-25.83,22.59-52.55,31.74-78.4,2.54-7.15,5.08-14.32,7.69-21.44,13.78-28,30.05-60.08,47.4-88.61,11.12-12.56,28.06-27.68,48.54-32.74,6.43-1.59,13.6-1.69,21.89-1.8,11.41-.15,24.33-.32,38.98-4.23,42.03-11.2,78.61-34.02,107.93-66,26.83-29.26,53.1-59.52,62.86-99.22,1.61-6.54,2.81-13.37,1.56-19.99-1.24-6.62-5.36-13.05-11.67-15.4-1.88-.7-4.33-1.53-4.4-3.54-.03-.95.54-1.8,1.08-2.57,8.28-11.74,16.69-20.82,18.46-34.93,1.84-14.68,1.8-29.99-.54-44.6-2.67-16.71-11.69-30.06-25.42-37.57-12.45-6.82-26.05-7.5-39.41-5.25,13.14-52.82,19.95-109.78,18.8-161.44-.02-1.13-4.79-116.48-27.65-150.97-14-21.14-30.54-26.66-41.94-27.57-26.35-2.09-43.89,16.99-56.75,30.9l-1.29,1.4c-8.34-43.78-21.61-88.67-43.52-125.45-7.45-12.51-30.11-50.58-67.16-46.39-23.05,2.6-37.27,18.8-47.59,39.44-9.89-11.66-21.01-22.87-33.76-32.96-9.21-7.28-41.59-29.8-71.44-13.78l-3,1.61-2.63,2.16c-24.83,20.43-30.57,54.67-30.87,90.67-16.38-13.5-31.81-21.65-48.17-21.85-32.29-.4-54.09,28.98-64.82,87.33-14.59,79.54,6.44,164.98,31.56,241.27-11.52-1.08-22.78.38-32.58,5.99-35.74,20.5-32.55,71.63-23.55,110.93,20.54,89.81,87.15,181.81,169.62,236.84-2.45,5.33-5.78,12.14-10.26,20.83l-2.15,4.18c-53.12,105.15-143.95,232.06-237.04,331.2l-1.3,1.4c-1.43,1.53-2.81,2.99-4.13,4.39-16.09-61.76-33.38-123.4-50.22-183.46-30.06-107.19-61.16-218.04-84.98-328.14-14.81-68.44-29.02-141.08-32.71-208.61-.32-5.79-.04-19.79.22-33.34,1.3-66.86.27-90.09-8.77-105.2-9.45-15.79-25.17-23.77-42.46-21.71-17.17,1.34-31.16,11.55-42.24,24.89-7.34-17.58-14.56-35.14-21.67-52.43-20.3-49.33-41.13-99.97-63.98-149.67,7.91,1.31,15.78,2.66,23.64,4.01,62.76,10.8,127.66,21.96,196.7,7.44,2.63-.55,5.27-1.16,7.88-1.85,4.31-.31,8.58-.67,12.82-1.02,60.44-4.93,123.74-15.25,205.26-33.47,9.29-2.08,18.58-4.17,27.83-6.33,9.84-2.28,19.6-4.57,29.26-6.87,184.28-43.9,624.48-176.88,731.7-463.1,10.89-29.08,33.57-89.58-7.86-125.71ZM3393.34,1902.32c21.11-26.67,41.26-56.49,60.74-85.33,20.81-30.8,40.56-60.04,60.9-85.03.17,1.42.34,2.91.52,4.48,35.51,323.09-323.13,659.11-589.03,794.46-2.03,1-7.79,3.54-15.99,7.22-18.91,8.47-38.65,15.48-57.8,23.66,34.44-45.08,66.14-92.22,94.52-141.38,24.92-43.18,47.35-87.93,65.85-134.25,1.49-3.73,2.95-7.46,4.38-11.21,9.45-8.05,18.77-16.22,28.09-23.33,131-99.94,245.73-220.37,347.82-349.31ZM1774.56,2110.08c-5.29-5.57-10.52-11.07-15.75-16.19-39.82-38.97-81.02-83.35-129.66-139.67-79.52-92.08-161.18-196.32-256.97-328.01-93.77-128.92-181.58-256.98-261.37-381.18-10.76-21.58-21.51-43.18-32.09-64.86-9.38-19.22-17.39-39.04-23.83-59.38l.5.33-.89-1.58c-2.93-9.35-5.52-18.8-7.76-28.36-3.94-16.79-25.01-96.15,6.57-95.8,6.02.07,11.78,2.26,17.4,4.43,33.1,12.77,58.31,35.1,87.54,54.8,12.83,8.64,25.46,17.53,38.04,26.49,1.67,1.94,3.96,3.92,7.02,6.01,97.06,66.39,178.87,154.86,256.05,243.66,0,0,14.63,16.82,14.63,16.82,150.61,172.77,331.37,404.79,392.77,667.64,9.86,42.23,20.8,115.64-16.83,132.13-25.41,11.19-43.29-3.5-75.35-37.27ZM827.61,740c.07,1.06.15,2.1.22,3.13-3.19-3.16-6.37-6.32-9.56-9.49-16.71-16.59-33.98-33.75-47.22-52.7-11.5-16.47-19.86-34.11-24.85-52.44l-.48-1.74c-8.15-29.65-4.7-35.45-3.58-36.48,4.06-.29,13.57,5.02,28.28,15.82,2.14,1.57,4.04,2.96,5.62,4.05,15.57,10.69,31.61,24.03,50.48,41.96,6.74,6.41,15.24,16.64,24.23,27.46,2.61,3.14,5.24,6.31,7.89,9.46-6.25,1.18-11.69,3.56-16.28,7.14-5.09,3.98-8.89,9.19-11.4,15.59-3.01,7.71-4.14,17.14-3.37,28.23ZM1008.36,932.6c-17.59,13.41-28.22,29.47-33.79,47.12-31.12-34.37-67.1-84.16-77.02-138.53-1.22-6.71-2.74-13.49-4.2-20.05-3.9-17.49-7.59-34.02-6.46-49.9.8-11.39,4.67-12.45,6.13-12.85,30.48-8.38,129.83,74.86,145.98,98.1,16.67,23.98,29.75,47.85,39.14,71.32-33.83-15.38-57.38-4.69-69.78,4.79ZM1577.56,1127.66c1.56-33.52,4.54-61.47,7.78-81.04,3.7,6.2,7.07,12.53,9.22,16.55,2.15,4.04,4.17,7.81,6.07,11.14,50.51,88.76,99.42,207.46,149.54,362.88,34.08,105.69,57.22,193.22,72.79,275.46l1.24,4.69c1.58,4.67,3.03,9.39,4.22,14.18,4.02,16.21,5.9,33.47,7.9,51.75l1.13,10.07c-66.35-142.03-158.24-270.77-248.48-381.54-.83-14.04-2.36-27.19-2.61-32.22-.96-19.56-1.92-39.12-2.87-58.68-1.45-29.55-7.32-57.21-5.05-86.49,2.71-35.11-2.51-71.38-.86-106.77ZM1328.31,872.75l5.98,11.41c2.75,5.22,5.48,10.49,8.22,15.85l5.12,10.15c2.32,4.65,4.62,9.37,6.92,14.12,38.9,80.28,67.77,167.47,102.8,250.25l4.06,9.5c6.83,17.16,12.67,34.35,19.58,55.01l2.36,7.07c7.72,23.14,15.65,46.89,25.05,70.35l-14.04-16.13c-65.08-74.89-131.87-151.73-213.49-208.03-8.77-15.1-18.69-34.72-19.53-37.83-4.36-16-6.77-34.08-9.4-50.63-2.96-18.62-2.86-37.59-.83-56.46.42-1.51.83-3,1.23-4.49,1.5-5.64,3.18-19.69,5.79-36.18,2.06-8.99,4.38-17.87,6.84-26.58,4.41-15.68,8.94-30.21,13.62-43.73,4.81-7.07,10.58-11.1,17.53-10.18,15.03,1.99,26.18,35.1,32.23,46.53ZM1113.7,654.36c11.32,23.83,25.04,46.68,37.1,70.16,19.96,38.85,38.88,78.76,51.88,120.56-1.59,5.29-3.16,10.67-4.72,16.2-15.71,55.82-20.98,104.3-15.77,146.26l-36.81-30.21c-7.61-25.73-17.24-53.87-30.53-82.74-16.4-35.64-38.5-68.63-65.71-98.1-2.37-5.7-4.58-11.11-6.02-16.62-2.66-10.15-4.48-21.36-5.43-33.31-1.96-24.86.06-49.71,2.05-68.59,1.47-13.95,3.34-28.81,7.09-42.9,1.3-4.88,3.17-9.71,5.16-14.82,2.24-5.77,4.56-11.74,6.26-18.33,1.78-6.88,4.98-12.97,9.3-17.76,1.31.53,2.59,1.3,3.68,2.1,22.98,16.95,30.79,43.52,42.47,68.09ZM885.37,474.9c14.68,13.77,29.25,26.68,42.43,42.42,25.29,30.19,47.34,63.11,65.6,98.01.89,1.7,1.72,3.55,2.54,5.44-.76,3.15-1.47,6.26-2.18,9.32-8.95,38.76-13.51,73.49-13.81,105.32-49.66-40.49-81.56-102.6-106.49-159.58-2.42-5.53-4.9-11.09-7.41-16.7-15.44-34.55-31.4-70.28-35.1-106.02-1.03-9.97-1.27-18.43.47-25.1.39-.22.82-.45,1.34-.69l6,3.51c19.36,11.34,30.69,29.14,46.61,44.06ZM770.55,431.2l7.13,10.55c-.2,8.1.48,15.86,1.33,22.57,2.97,23.71,8.97,49.54,17.88,77.17-22.24-13.69-45.59-24.05-69.01-30.52-3.03-.84-6.01-1.55-8.9-2.12-.27-.44-.54-.88-.8-1.32l-13.43-22.18c-4.55-7.48-9.24-15.2-13.27-22.86-4.11-11.54-8.24-23.08-12.43-34.61-1.65-6.07-3.72-13.06-7.16-19.98-.07-.15-.15-.29-.22-.43-7.16-20.04-15.31-43.63-22.12-67.81-2.84-10.08-2.66-22.28,2.62-31.42,9.38,3.34,26.9,18.81,30.93,22.21,29.5,24.91,59.74,59.75,87.45,100.73ZM422.87,238.35c5.51-1.68,17.14-2.68,24.87-1.48,21.35,3.29,83.68,34.05,98.08,48.41l8.07,8c14.91,13.56,27.58,25.91,38.72,37.76l5.69,6.05c4.61,9.06,8.67,18.13,11.68,27.61,8.88,27.94,13.81,57.31,14.65,87.3.11,4.04.49,7.46,1.18,10.51-2.61-.69-5.21-1.39-7.81-2.09l-3.93-1.05c-2.28-.77-4.55-1.38-6.77-1.8-33.71-9.16-63.35-18.45-90.6-28.4-10.05-3.67-20.39-7.62-30.19-12.56-1.65-2.99-3.59-6.36-5.9-10.26l-1.08-1.72c-1.73-2.76-3.47-5.5-5.13-8.34l-2.88-4.9c-17.96-30.57-34.93-59.45-43.15-90.22-3.24-12.13-12.7-47.55-5.48-62.81ZM475.9,496.5s-1.34-3.28-1.34-3.28c-1.4-3.38-2.09-5.07-2.43-6.69l-.03-.57c1.06-.13,2.24-.23,3.56-.26,19.13-.38,38.7,5.71,57.63,11.6l58.56,18.23c.87.27,4.22,1.59,6.91,2.65,8.21,3.24,20.34,8.02,29.57,10.51,10.5,6.1,20.3,13.1,29.17,20.83,2.48,2.17,5.04,4.56,7.75,7.25.04.87.09,1.74.14,2.6,1.48,23.8,5.19,59.03,20.2,93.59-17.79-8.7-35.75-15.5-54.17-20.52-6.62-1.81-13.48-3.68-20.96-4.51-5.37-.6-10.65-.59-15.32-.59-3.65,0-7.44-.08-11.31-.16-1.6-.03-3.22-.07-4.87-.1l-9.59-9.36c-34.92-34.07-74.91-75.27-93.47-121.24ZM573.94,734.02c-10.39-13.55-24.61-32.11-31.01-47.15l-.97-2.08c-.63-1.24-1.09-2.63-1.31-3.96,2.27-1.66,5.54-2.92,9.75-3.79,6.65-.76,13.39.59,21.35,2.19,4.83.97,9.83,1.98,15.25,2.59,19.2,2.17,36.48,7.1,51.37,14.64,68.07,34.49,129.52,88.66,182.63,161,11.9,16.21,23.54,33.56,34.59,51.56,2.68,4.37,5.44,8.8,8.22,13.23-21.53-9.64-42.16-16.73-62.4-21.48-19.17-4.5-38.63-7.73-57.83-9.6-5.07-.49-10.28-.66-15.72-.49-4.5-3.38-8.19-6.16-10.26-7.98-18.72-16.38-35.48-31.69-51.23-46.81-36.53-35.07-66.76-68.4-92.41-101.88ZM747.23,1039.59l-.91-.82c-6.39-5.7-12.67-11.54-18.89-17.58-3.14-3.04-6.26-6.1-9.29-9.18-1.96-1.98-3.9-3.98-5.86-6.04-5.12-5.37-10.17-10.8-14.99-16.34-7.3-8.38-39.61-40.24-22.21-49.03,3.94-1.99,8.44-2.47,12.84-2.78,3.05-.22,6.1-.35,9.15-.45,6.21.5,12.4,1.28,18.33,2.08l7.09.94c22.51,2.97,45.79,6.03,66.04,13.48,22.05,8.11,42.94,21.14,63.17,33.75l85.07,53.05c13.81,8.61,27.36,18.29,40.47,27.65.2.14.41.29.61.43,8.1,29.56,20.82,59.02,32.02,84.93,2.07,4.79,4.15,9.6,6.19,14.37-22.53-8.69-42.76-10.92-66.21-11.61-5.01-.14-11.06-1.27-17.46-2.47-9.47-1.76-20.21-3.76-32.3-3.66-.09,0-.19,0-.28,0-2.88-1.93-5.76-3.86-8.64-5.8-10.18-6.84-20.43-13.72-30.82-20.49l-3.09-2.05c-4.87-3.18-9.73-6.41-14.6-9.69l-6.6-4.43c-5.38-3.67-10.72-7.37-16.08-11.16-4.6-3.24-9.16-6.56-13.65-9.83l-2.4-1.76c-20.87-15.31-39.33-30.12-56.69-45.53ZM959.47,1395.89l-1.31-1.17c-9.53-8.54-19.16-17.31-28.69-26.22l-13.33-12.37c-21.25-19.64-42.62-39.3-61.59-61.2-9.42-10.86-49.16-52.49-26.9-64.67,7.59-4.16,16.42-3.56,24.79-3.9,10.24-.41,20.49-.82,30.73-1.23,17.93-.72,35.92-.33,53.81-1.47,11.94-.76,36.47,6.09,51.75,4.09,22.81,4.81,44.65,11.97,63.39,22.64,4.88,2.78,9.4,6.16,13.47,10.04,81.92,127.96,172.36,260.08,269.09,393.06,20.45,28.11,40.25,54.97,59.54,80.76l-98.03-75.86c-10.4-8.04-20.9-16.01-31.43-23.87-20.91-15.63-42.04-30.98-63.2-46.31l-31.46-22.8c-27.15-19.74-49.24-36.18-69.54-51.75-20.32-15.58-36.89-28.78-52.16-41.53l-1.24-1.04c-21.59-18.03-54.21-45.26-87.69-75.2ZM1312.61,1923.2c-2.77-1.27-5.55-2.53-8.32-3.8-49.39-22.55-98.38-47.34-145.93-73.84-133.35-74.31-299.95-181.51-445.66-286.75-13.25-9.57-22.61-17.27-29.21-23.29,13.36-.49,32.96.21,60.22,3.82,94.51,12.51,182.53,42.41,287.65,80.21l408.31,174.69c54.14,70.5,104.65,132.72,154.37,190.3,34.61,40.08,65.57,74.26,95,104.84-16.7-7.19-33.47-14.29-50.23-21.49-21.23-9.13-41.81-19.43-63.6-30.35-9.25-4.63-18.5-9.26-27.77-13.78-76.88-37.52-157.41-65.21-234.84-100.55ZM2096.9,2624.77c-4.61-6.05-12.59-21.96-19.76-24.6-14.13-5.2-21.06,14.96-28.06,25.2-20.44,29.89-42.79,58.43-69.63,82.9.04-.11-102.59,66.55-102.59,66.55-59.7,38.77-128.85,73.2-224.19,111.64-78.28,31.55-171.3,63.88-261.93,91.03-169.44,50.76-485.4,120.09-636.54,72.52,14.11-5.02,30.1-10.12,40.92-13.58,5.61-1.79,10.69-3.41,14.91-4.8,53.17-17.52,106.14-34.29,157.37-50.5,143.79-45.49,279.6-88.46,423.39-148.22,48.55-20.17,97.55-42.95,149.44-67.07,82.36-38.27,167.52-77.84,250.53-106.12l90.49-30.81c19.73-4.45,39.69-8.22,59.38-11.95l6.1-1.17c19.15-3.7,45.39-8.75,60.94-4.18l3.91,1.15,4.07.21c15.9.85,25.5-7.21,29.83-12.18,7.89-8.97,10.62-20.37,8.14-33.86-3.3-17.91-46.27-77.3-47.41-78.63-3.94-4.67-12.16-14.41-26.97-17.71l-19.04-4.26-11.89,12.29c-24.26,13.38-49.08,24.91-69.04,33.94-26.55,13.03-54.41,25.44-82.79,36.86l-1.56.68c-8.46,3.9-16.9,7.85-25.27,11.93-20.33,9.94-41.8,17.85-63.87,23.56-1.32.34-3.23.92-5.54,1.63-2.42.76-8.61,2.67-11.49,3.11l-5.2-.3-6.08,1.93c-33.28,10.51-68.74,20.83-105.38,30.68-269.92,72.62-549.22,105.82-807.71,96.02-84.79-3.22-188.53-14.42-239.67-36.28,3.89-1.18,7.78-2.35,11.57-3.54,94.88-29.91,198.37-51.67,298.46-72.71,59.01-12.41,120.03-25.24,178.41-39.57,62.45-15.33,124.75-32.72,185-49.55,163.17-45.55,317.3-88.58,483.78-97.31,30.9-1.62,63.35-1.39,102.14.75l48.86,2.69-.44-1.53c6.19,1.06,12.4,2.2,18.55,3.33l4.02.51c11.26.88,22.57,1.77,34.12,2.62,15.33,5.01,34.65,1.13,46.59-19.51l10.08-17.41-71.35-123.52-13.17-24.95-26.95,9.03-2.21.66-6.45,3.18c-4.39,2.72-11.23,4.8-18.4,6.86l-53.29,15.23c-9.55,2.73-19.12,5.48-28.8,7.85-37.69,9.3-76.53,13.01-115.41,11.04-1.23-.07-2.46-.2-3.68-.31l-4.66-.41-4.32-.04c-86.28,4.48-172.7-.67-245.87-6.31-234.5-18.06-691.07-86.34-914.85-227.71-7.71-4.87-14.92-9.78-21.36-14.43l2.56-.08c82.88-2.83,179.42,8.35,272.78,19.16,63.43,7.35,129.02,14.95,189.54,18.01,69.1,3.49,138.62,4.89,205.85,6.23,161.67,3.25,314.38,6.32,469.54,35.8l4.47.55c19.71,1.15,39.57,3.51,59.04,7.04,30.45,5.51,60.91,11.03,91.36,16.54,15.82,2.87,31.65,5.73,47.47,8.6,27.51,26.72,63.19,51.6,110.89,30.6,9.93-4.37,18.49-10.17,25.69-17.39,11.39-11.42,19.36-26.4,23.89-44.88,3.43,5.43,6.86,10.85,10.29,16.28,11.16,17.66,22.32,35.31,33.48,52.97,3.91,6.19,9.91,21.61,16.02,25.42,27.04,16.77,4.7-64.56,2.61-76.76-3.49-20.34-6.99-40.69-10.48-61.02-2.41-14.01-4.87-28.02-7.33-42.03-14.26-81.19-29-165.16-32.34-247.81-5.73-142.37,7.65-292.66,20.59-437.99,7.55-84.78,15.35-172.45,19.26-257.48,1.33-29.05,1.22-59.14,1.12-88.24-.15-40.73-.31-82.86,3.58-121.46.02-.22.04-.44.07-.66,11.74,19.39,25.38,46.98,35.73,73.44,112.79,288.64,159.37,818.67,95.85,1090.66-13.53,57.95-34.47,113.63-62.25,165.49l-9.69,18.11,29.85,46.02,1.79,2.51c20.36,26.02,37.36,54.86,55.37,85.41l115.15,177.73,4.05-110.01c.11-3.03.35-6.06.63-9.12l10.93-120.93c4.43-75.14,13.24-151.26,26.17-226.22,14.81-85.76,35.33-172.34,55.17-256.07,13.45-56.73,27.34-115.39,39.46-173.67,9.47-45.53,17.38-95.69,25.04-144.18,12.81-81.22,26.06-165.18,47.32-234.57,2.52,6.26,5.26,13.43,8.22,21.49,73.76,201.22,43.18,533.37,26.61,666.83-4.45,35.82-9.44,71.58-15.1,107.23-15.99,100.67-37.26,200.73-67.88,298.04-13.45,42.76-28.72,84.96-46.12,126.28-7.51,17.83-14.73,36.26-24.24,53.05-9.61,16.96-24.93,34.39-26.13,54.76-.61,10.34,7.78,21.27,12.7,30.68,9.84,18.8,19.67,37.6,29.51,56.41,0,0,1.34,2.33,1.34,2.33,15.86,25.33,29.19,49.26,40.77,73.16l32.76,67.66,30.37-68.76c4.88-11.04,8.11-21.78,11.23-32.18,3.09-10.3,6-20.02,10.06-27.97,5.03-9.87,11.33-19.61,18.05-29.84l.11,1.44,55.57-78.66c29.81-42.2,63.12-83.47,95.34-123.38,32.76-40.57,66.63-82.54,97.92-126.67,132.2-186.46,208.6-383.74,247.72-639.69,1.35-8.84,2.62-23.07,4.11-39.54,1.04-11.42,2.62-28.96,4.46-45.07,22.82,35.99,33.79,88.3,38.19,109.26,18.35,87.49,19.86,178.93,10.47,267.62-7.07,66.77-26.53,130.33-37.45,195.94-2.39,5.02-3.87,11.41-5.63,16.68-10.61,31.85-20.42,64.14-37.01,93.53-25.37,44.95-52.11,89.13-79.63,132.79-101.49,160.97-237.85,298.54-390.69,411.07-12.55,9.24-22.09,20.23-29.84,31.87-2.75,3.39-5.02,6.98-6.48,10.55-6.39,11.24-11.5,22.77-16.34,33.69-17.29,39.04-29.06,61.32-70.1,65.08-4.64.43-8.76.4-12.51-.07-2.59-1.18-5.19-2.34-7.7-3.68-11.14-5.92-20.21-15.03-28.8-24.26-1.07-1.14-2.11-2.31-3.17-3.46-5.12-7.22-12.18-13.63-17.72-20.2-.19-.23-.37-.46-.56-.68-.4-.49-.8-.98-1.19-1.47-7.76-9.96-13.8-21.63-20.9-32.16-16.51-24.51-30.98-50.32-44.93-76.34-2.73-5.09-5.74-10.08-8.87-15-22.39-39.65-41.4-76.95-69.44-113.73-18.59-24.39-37.19-48.78-55.78-73.17ZM1754.7,2339.3c3.52-.98,7.06-2,10.65-3.03l52.9-15.11c.94-.27,1.89-.54,2.83-.82l14.09,24.39c-18.89-3.2-38.99-5.86-58.82-5.66l-21.65.22ZM1438.57,3452.19c-115.13,39.75-332.27,92.74-434.53,46.84,5.03-2.56,10.11-4.99,13.91-6.8,5.05-2.42,9.96-4.76,14.42-7.05,50.71-25.91,103.05-49.89,153.66-73.07,77.33-35.43,157.3-72.07,235.08-117.13,112.34-65.09,217.37-140.82,318.92-214.07,65.84-47.47,133.9-96.57,202.89-141.92l6.8-4.49c4.2-2.76,8.39-5.53,12.58-8.24,1.76-1.12,3.53-2.21,5.31-3.29,1.91-1.18,3.82-2.34,5.72-3.54l2.92-2.07c1.05-.83,2.04-1.63,2.98-2.38l11.5-7.6c9.34-5.59,19.07-11.14,29.54-16.86l1.04-.59c18.12-10.72,34.31-19.99,49.47-28.37l11.76-7.2c9.07-5.59,18.18-11.21,27.51-16.7,8.64-5.09,18.56-9.3,29.06-13.77,3.29-1.4,6.52-2.57,9.71-3.51,4.3,8.34,8.98,16.53,13.11,24.44-54.2,100.95-141.29,224.11-184.57,283.52l-7.69,7.3c-144.35,136.98-328,246.44-531.1,316.56ZM2236.04,2998.78c-3.46,10.24-6.75,19.9-8.63,29.44-8.74,44.15-23.7,89.2-38.17,132.76l-6.43,19.39c-15.83,48.12-35.07,93.39-57.62,135.48l-4.61,9.28c-3.19,6.24-6.44,12.45-9.84,18.75l-.65,1.17c-3.15,5.81-6.35,11.6-9.63,17.36l-5.2,8.87c-1.84,3.17-3.68,6.35-5.49,9.35l-4,6.47c-2.39,3.92-4.79,7.85-7.29,11.79l-3.01,4.59c-14.23,22.09-29.33,43.34-44.87,63.19l-1.58,2.18c-7.58,11.4-14.45,19.71-21.48,26.29l-1.51,1.38-7.96,9.09c-35.14,39.59-74.16,75.47-115.93,106.64-7.71,5.74-15.48,11.42-23.45,16.91-105.44,72.62-294.98,150.12-429.67,154.11-11.33.34-26.22-.55-39.61-2.22,27.08-17.64,65.34-39.27,83.55-49.59,14-7.92,25.06-14.17,31.52-18.26,98.97-62.45,191.59-135.02,275.06-217.09,30.76-30.24,60.28-61.75,88.42-94.45,27.54-31.99,49.2-67.7,74.42-101.53,16.98-22.77,29.26-47.25,43.56-71.58,13.68-23.28,27.92-46.24,42.71-68.84,3.41-5.2,6.98-10.93,6.42-17.13-.01-.16-.06-.34-.1-.52,41.88-58.09,108.09-153.26,158.14-240.82,10.77,17.73,22.45,34.87,35.68,50.87,4.91,5.94,9.74,12.64,15.79,17.16-1.64,9.07-5.76,21.23-8.55,29.47ZM3445.6,3126.89c3.65-3.4,8.43-6.88,13.2-5.38,5.76,1.81,7.05,9.24,7.32,15.26,4,87.71-4.56,181.81-36.33,264.61,0,0-3.25,8.46-3.25,8.46-19.33,50.25,63.33,14.77,76.37,13.79,5.71-.43,12.72.3,15.12,5.49,1.18,2.55.52,7.02-1.09,12.35-.13.01-.26-.04-.39-.02-2.93.5-5.04,2.99-6.96,5.26-20.78,24.53-55.63,49.42-83.72,65.61-20.81,12-63.37,28.48-87.55,18.02-10.43-4.51-17.09-13.11-22.33-22.97l51.18-254.53c23.46-43.56,41.98-91.94,78.43-125.95ZM3166.89,2961.99c.45-2.64,1.18-5.6,3.51-6.93,1.54-.87,3.42-.81,5.17-.58,23.82,3.09,41.06,41.23,52.43,59.75,6,9.77,18.55,50.02,33.84,42.11,10.77-5.56,16.63-61.52,19.57-72.66,7.46-28.35,26.19-31.7,38.58-4.99,12.13,26.15,11.51,56.26,17.01,84.06,6.37,32.21,9.9,64.92,12.39,97.63l4.49,59.01c-6.38,16.84-12.98,35.56-19.27,55.55-14.85,47.22-25.06,92.22-30.35,133.76-2.79,21.91-4.19,42.86-4.24,62.79-5.78-13.59-12.38-30.01-20.93-44.36,1.08-2.81,1.63-5.78,1.45-8.82-.62-11.04-9.99-19.66-12.74-30.38-1.5-5.86-.95-12.02-.65-18.06.14-2.88.23-5.74.28-8.6,1.01-58.27-16.55-111.96-37.02-166.43-15.87-42.23-35.51-83.05-58.62-121.8-1.13-5.82-1.89-11.74-2.6-17.56-3.78-31.06-7.54-62.65-2.33-93.5ZM3057.75,3060.36c.38-10.18,1.65-21.74,9.83-27.82,16.8,8.72,27.25,22.37,39.42,35.52,16.28,22.37,30.44,47,42.57,71.35,23.83,47.84,35.83,95.45,45.59,148.13,6.68,36.02,19.49,70.23,23.68,106.59-.1.03-.2.05-.31.08-10.7,2.93-20.08,9.8-27.95,18.73-7.27-8.29-12.22-18.51-20.04-27.83-11.7-13.96-23.85-27.39-36.18-40.54-5.66-6.03-12.01-17.53-20.03-22.74l-2.64-7.43c-10.78-30.27-21.57-60.55-30.74-91.35-8.18-27.47-19.41-57.24-21.76-85.63-2.12-25.61-2.39-51.36-1.43-77.05ZM3106.01,3508.32c-32.14-37.59-58.47-82.42-69.6-130.97-2.39-10.41-3.58-19.99-3.94-27.45,10.44,4.64,23.04,11.68,30.26,17.08l14.3,10.69c15.94,15.29,28.99,30.81,43.36,48.4,16.41,20.1,30.87,41.8,43.07,64.71,3.02,36.64,1.5,58.52-.62,71.13-.13-.1-.27-.21-.41-.31-20.71-15.57-39.58-33.61-56.41-53.29ZM2536.13,3110.16c12.87,31.26,25.72,62.53,39.08,93.59,3.63,8.44,9.28,32.14,19.01,36.1,13.99,5.7,24.64-17.66,32.31-26.03.99-1.08,2.07-2.18,3.46-2.65,1.38-.47,2.9-.28,4.32.08,9.24,2.38,15.37,11.69,16.94,21.1,1.57,9.41-.51,19.01-2.59,28.32-8.05,36.16,2.88,79.83,8.64,116.02,6.3,39.59,14.24,78.94,22.82,118.1,24.27,112.15,55.65,224.03,85.99,332.23,21.52,76.73,43.78,156.08,63.15,234.4l2.36,9.51,6.96,6.88c7.09,7.01,16.56,10.76,26.66,10.58,43.07-.8,87.4-70.47,111.65-99.43,48.52-57.93,88.92-122.13,126.95-187.26,33.69-57.7,65.78-116.84,88.66-179.78,9.16-25.19,13.7-40.83,9.67-66.47-4.03-25.64,1.28-54.12,8.74-78.7,1.7-5.62,4.39-11.91,9.75-13.9-.49,1.17-1.06,2.2-1.72,3.01,1.02-1.25,2.09-2.38,3.2-3.43,4.88-.99,9.79,1.88,13.74,5,31.83,25.12,17.88,67.63,43.85,95.94,13.97,15.23,39.79,18.02,58.84,15.13,41.44-6.3,87.18-20.32,121.47-45.04,11.96-8.63,23.17-18.44,36.17-25.41,1.79-.96,3.76-1.89,5.78-1.62,9.62,1.31,1.24,29.91-1.2,34.97-4.4,9.12-11.02,16.99-18.08,24.25-25.1,25.8-61.15,48.51-96.12,57.8-6.31,1.67-13.57,1.77-21.98,1.88-11,.14-23.48.31-37.69,3.83-31.71,7.84-60.77,27.06-86.45,57.06l-3.19,4.39c-19.75,32.14-37.79,67.78-52.84,98.4l-1.41,3.31c-2.94,7.95-5.77,15.94-8.61,23.93-8.81,24.86-17.14,48.34-28.21,70.17-21.82,42.99-54.47,79.81-89.02,118.8-17.72,19.98-36.05,40.64-52.99,62.41-25.7,33.02-54.83,71.68-75.31,112.69-18.24,36.55-20.13,74.88-21.97,111.95l-.55,10.63c-4.65,86.27-.16,173.09,4.16,257.05l.07,1.2c.65,12.69,2,25.34,3.31,37.58,1.58,14.85,3.08,28.89,3.32,42.17l.23,3.5c.54,4.57.68,7.24.72,8.6-.29.95-.59,1.91-.84,2.87l-.97,4.88c-1.95,15.86-6.96,27.2-16.25,36.78l-5.34,5.59c-18.58,18.63-37.4,35.01-58,47.7-25.78,15.87-54.36,25.96-88.75,27.42-3.61.15-6.65.19-9.2.15.31-1.4.63-2.77.92-4.04,1.9-8.26,4.06-17.62,5.47-28.22,8.93-66.95,14.42-134.88,8.65-202.35-3.01-35.23-9.12-70.24-19.36-104.11-8.89-29.41-20.87-74.2-45.6-94.15-4.95-3.99-12.7-5.73-13.25-13.13-.95-12.88,13.19-11.54,21.33-9.59,14.09,3.37,34.51,5.13,38.31-12.28,4-18.35-2.88-44.25-4.52-62.88-3.9-44.31-8.8-88.52-14.62-132.62l-1.73-13.1c-15.99-121.62-34.38-240.1-60.49-283.19-21.3-35.16-61.8-58.57-90.56-87.63-8.42-8.51-8.01-14.63,3.31-12.84,11.81,1.87,25.55,10.74,36.28,15.92,36.02,17.38,18.75-40.25,15.57-55.07-38.95-181.33-104.09-369.26-199.18-574.53l-2.21-4.04c-3.94-6.21-7.13-11.79-9.74-17.06-3.45-6.95-6.47-14.1-9.52-21.25-3.2-7.51-7.88-14.41-8.87-22.42-.32-2.56-.25-4.86-.07-7.01,24.26-5,41.69-15.6,54.88-28.83,12.33-12.36,20.97-27.02,28.09-41.55,4.67,9.33,9.17,17.84,12.18,24.6,18.12,40.71,35.07,81.93,52.03,123.13ZM3706.43,2408.42c-98.18,262.06-547.34,387.59-682.66,419.83-9.51,2.26-19.14,4.53-28.86,6.78-9.09,2.11-18.2,4.17-27.3,6.21-78.25,17.49-138.61,27.37-195.81,32.03-4.26.35-8.48.71-12.82,1.01l-6.61.45-3.98,1.22c-1.88.57-3.81,1.01-5.8,1.43-56.1,11.79-111.74,2.22-170.65-7.91-8.76-1.51-17.54-3.01-26.34-4.46,24.99-19.09,49.5-38.81,73.47-59.17,45.98-39.07,90.09-80.62,131.68-124.55,53.31-12.75,103.98-12.38,158.28-11.04,59.07,1.46,124.7-15,182.68-26.47,131.48-26.01,326.28-79.26,507.56-185.21,19.85-11.6,39.02-24.27,57.56-36.52,19.42-12.85,38.21-25.26,57.29-36.25-1.8,6.16-4.3,13.62-7.68,22.63Z"/>
</svg>