<?xml version="1.0" encoding="UTF-8"?>
<svg id="Camada_1" data-name="Camada 1" xmlns="http://www.w3.org/2000/svg" viewBox="0 0 1920 1080">
  <defs>
    <style>
      .cls-1 {
        stroke: #b65a1a;
        stroke-miterlimit: 10;
        stroke-width: 17px;
      }

      .cls-1, .cls-2 {
        fill: #b65a1a;
      }
    </style>
  </defs>
  <g id="Web_1920_1" data-name="Web 1920 1">
    <path id="Caminho_73" data-name="Caminho 73" class="cls-2" d="M1447.49,682.24c9.25,8,18.78,15.61,27.93,23.72,8.13,7.21,16.73,13.01,23.09,21.9,1.17,1.44,2.07,3.09,2.66,4.85,2.53,9.4-22.77,9.22-28.08,9.34-9.74.19-19.47-.71-29.02-2.69-10.02-2.05-20.02-4.2-30.02-6.33-.55.95.32,1.04.48,1.81.19,1.17.14,2.37-.13,3.53-.11.67-1.27,8.1-1.27,8.1,4.58.73,8.8,2.92,12.04,6.24,11.27,11.62,17.77,30.32,21.98,45.62,1.37,4.96,2.04,11.59,4.44,16.12,1.92,3.61,2.93,3.14,7.13,3.61l14.03,1.6c.74-6.52-1.3-12.09-2.94-16.57-.6-1.54-1.12-3.11-1.55-4.7-.24-1.01-.39-2.04-.56-3.07-.27-1.67-.54-3.33-.95-4.98-.88-3.23-2.08-6.36-3.58-9.35-.81-1.62-1.51-3.3-2.08-5.02-1.7-6.75-4.6-13.14-8.56-18.86,1.58.24,3.18.49,4.76.74,23.38,3.66,55.44,8.67,66.07-16.58,2.41-5.7,4-17.05-12.41-29.04l-23.34-17.05c12.92-1.68,26.98-6.99,42.42-15.97,9.54-5.43,18.63-11.6,27.21-18.46l-13.55-16.61c-7.7,6.14-15.87,11.67-24.44,16.54-10.96,6.38-23.11,12.2-35.9,13.42-5.25.64-10.54,1.01-15.83,1.1-1.7-.02-19.94-4.25-19.11-5.52-1.28,2.04-2.68,4.01-4.21,5.88-1.45,1.7-1.22,2.75.65,4.4.88.77,1.76,1.54,2.64,2.3Z"/>
    <path id="Caminho_74" data-name="Caminho 74" class="cls-2" d="M1090.39,35.83c-115.38,16.65-189.75,164.36-209.51,253.56-.08.34-.21,1.08-.4,2.13-1.53-13.07-2.92-26.32-3.66-39.36-3.22-55.96,2.24-112.3,15.37-158.62,1.77-6.25,3.88-12.37,6.11-18.85,4.09-11.88,8.31-24.16,10.31-37.27l1.01-6.65-5.55-3.8c-13.97-9.58-30.27,1.85-38.11,7.34-77.13,54.04-82.89,195.62-81.79,253.98.06,3.06.12,6.14.2,9.26.07,2.92.16,5.86.26,8.79.44,21.38,2.39,42.71,5.84,63.82.22,1.29.44,2.59.68,3.9,0,.84.02,1.67.06,2.5.99,21.71,9.32,40.22,17.38,58.11,1.01,2.24,2.02,4.48,3.02,6.74-16.59-2.99-33.3-5.3-49.58-7.55-5.71-.79-11.5-1.59-17.31-2.43,3.13-4.34,5.09-9.29,4.17-14.52-.7-5.31-4.56-9.66-9.75-10.99-5.21-1.53-12.22-.05-32.06,5.49-4.02,1.12-8.18,2.28-9.93,2.63-20.42,4.1-43.19,5.46-64.76,6.31-34.68,1.38-70.15.64-104.45-.07-19.21-.4-38.94-.81-58.6-.85.31-.5.64-1.03.99-1.57l.32-.49c22.41-35.41,53.27-72.29,80.55-96.24l1.08-.96c2.25-2,4.02-3.52,5.42-4.66,22.77,20.36,55.35,33.15,83.73,32.35,12.42-.34,27.92-3.33,31.28-15.57.82-3.39.57-6.94-.72-10.18,24.69,1.62,51.81,1.31,74.41-9.17,16.58-7.7,23.68-16.46,21.06-26.07-1.32-4.87-4.94-8.84-10.23-12.69,10.72-2.86,20.49-7.21,24.67-16.2l.44-.95.25-1.02c2.48-10.14-6.74-18.07-9.62-20.25-3.89-2.92-8.05-5.44-12.43-7.53,5.36-4.67,9.1-10.16,8.1-17.24-1.6-11.37-14.71-15.2-19.02-16.46-12.66-3.7-27.08-4.2-40.78-3.32l.32-.49c3.16-4.91,7.5-11.61,4.85-19.31-1.15-3.33-4.08-7.84-11.46-10.39-12.05-4.16-46.83,3.3-47.17,3.38-16.29,3.97-31.99,10.04-46.72,18.05-.19-4.2-1.81-8.21-4.6-11.35-3.4-3.55-8.28-5.29-13.17-4.69-4.58.46-9.08,1.57-13.35,3.28-4.07,1.62-6.13,4.82-9,8.2-.17.24-.41.43-.68.52-.6.13-1.04-.53-1.4-1.04-1.32-1.65-3.39-2.52-5.49-2.3-2.07.25-4.06.93-5.84,2.01-11.09,5.96-18.1,16.14-24.76,26.4-7.3,11.07-11.25,24.02-11.37,37.29.06,4.04.65,8.06,1.74,11.95.63,2.17,1.02,4.41,1.15,6.67.07,6.51-3.14,12.72-6.03,17-7.18,7.37-15.5,14.7-22.79,20.96-1.92,1.33-3.87,2.63-5.8,3.95-7.31,4.71-14.31,9.89-20.94,15.51-13.21,11.64-22.86,25.97-32.19,39.82-4.61,6.85-8.97,13.32-13.74,19.5-7.24,9.4-15.73,20.08-24.9,28.06-6.11,5.31-14.81,8.02-24.02,10.89l-3.22,1.01c-24.3,7.69-49.99,12.93-74.82,17.99l-.36.07c-3.25.67-6.69,1.17-10.3,1.7-4.65.69-9.45,1.39-14.19,2.5-3.01.3-5.94,1.09-8.69,2.35-.53.27-1,.54-1.46.83-8.01,3.12-14.77,8.77-19.26,16.1l-1.14,1.84c-1.17,1.88-2.29,3.71-3.34,5.48-7.13,12.06-11.21,21.67-10.11,29.69-2.17,9.94-2.32,20.22-.44,30.22,1.66,7.77,4.38,16.2,12,19.8,7.73,3.64,14.89-.08,20.65-3.07,1.99-1.03,4.04-2.1,6.16-2.96,31.59-12.78,68.7-24.68,104.36-15.95.79.2,3.67,1.17,5.77,1.88,13.92,4.7,18.98,6.2,24.05,3.84,8.45-3.93,9.4-14.45,8.6-20.04-.1-.69-.24-1.38-.44-2.05,14.39-2.44,28.7-4.52,42.7-6.22l4.08-.5c16.76-2.06,67.77-8.31,80.37-4.52,6.92,2.08,13.85,5.92,21.19,9.98,10.17,5.63,20.68,11.45,32.87,13.6l1.6.28,1.61-.21c5.1-.6,9.41-4.08,11.06-8.94,1.51-4.26.92-9.48-.56-14.49,50.64-.8,104.8,4.19,164.98,15.17,2.62.83,5.03,1.47,7.35,1.96,2.84.6,5.6,1.01,8.28,1.42,1.82.27,3.64.54,5.45.88,3.81.7,7.56,1.69,11.23,2.94l4.5,1.54c-1.28.86-2.61,1.65-3.98,2.36-13.47,6.82-26.5,14.48-39.01,22.92l-5.24,3.38c-13.73,8.76-26.68,18.7-38.69,29.7l-.63.53c-.54.47-1.1.94-1.64,1.42-1.81,1.6-3.52,3.16-5.22,4.74l-.32.3c-1.66,1.54-3.24,3.04-4.8,4.56l-2.37,2.35c-.89.87-1.77,1.75-2.65,2.63l-1.7,1.77c-1.07,1.11-2.15,2.22-3.2,3.35l-1.27,1.39c-5.81,6.3-11.33,12.83-16.38,19.4-3.26,3.57-6.11,7.49-8.49,11.69l-1.64,2.43c-9.87,14.66-18.22,30.28-24.92,46.63-1.23,2.99-2.41,6-3.53,9.05-14.41,39.42-24.09,106.15-13.65,152.17,1.07,4.72,7.01,28.55,19.02,34.52,3.96,2.03,8.63,2.14,12.68.29,7.66-3.47,11.77-13.02,21.99-51.09,1.16-4.34,2.17-8.07,2.73-9.82,15.29-48.31,38.22-93.86,67.93-134.91-14.4,40.72-23.4,83.16-26.76,126.22-1.51,18.9-7.29,115.07,27.24,151.93,6.87,7.33,13.75,10.07,20.45,8.14,10.78-3.1,13.23-15.62,15.18-25.69.29-1.5.57-2.95.87-4.28,3.92-17.57,7.09-35.26,10.14-52.38,4.52-25.3,9.2-51.47,16.37-77.17,10.48-37.5,24.78-74.16,38.62-109.61,9.18-23.51,18.67-47.82,27.03-72.33l-9.12-3.11h.5s8.67,2.96,8.67,2.96l.75-2.2c.52-1.53,1.05-3.06,1.56-4.6.26-.78.5-1.56.72-2.33l.36-1.15c.68-1.47,1.27-2.98,1.78-4.52,1.31-4.26,2.53-8.64,3.72-13.37,1.81-6.27,3.35-11.88,4.7-17.13l1.02-3.32c1.01-3.27,2.03-6.56,2.99-9.92,1.1-4.09,1.92-8.26,2.46-12.46,0-.04.01-.08.02-.12l18.03,7.59c-12.86,17.23-21.49,37.24-25.21,58.42-7.17,21.79-12.27,45.96-16.49,78.08-3.47,26.42-6,57.36-7.14,87.12-.63,16.51-5.01,162.83,35.71,214.93l.77,1.02c7.23,9.66,15.05,12.26,23.27,7.75l1.39-.76,1.11-1.13c2.88-3.05,4.93-6.78,5.96-10.84,1.66-5.83,2.31-15.54,2.93-26.7.1-1.73.18-3.3.27-4.61,1.14-17.34,2.07-34.5,2.96-51.09,2.47-45.92,4.8-89.3,11.42-135.87,1.75-12.37,3.99-25.08,6.41-38.34,2.17,76.33,13.83,151.58,34.16,219.55,6.85,22.92,20.8,63.87,37.18,80.68,3.49,3.58,12.76,13.09,23.01,9.15,10.17-3.91,10.64-15.8,11.05-26.29.05-1.21.09-2.41.16-3.58,1.66-31.66.16-64.75-1.3-96.75-.84-18.39-1.7-37.4-1.92-55.56-.23-19.47.15-39.23.53-58.33.7-35.94,1.42-72.74-1.94-109.75,4.96,19.08,10.87,37.14,16.31,53.04,24.1,70.44,81.55,205.33,144.02,264.07,20.39,19.17,28.72,19.12,34.68,16.2l1.14-.56.98-.81c9.7-8.04,6.53-22.03,4.83-29.55l-.24-1.06c-5.89-26.51-16.96-55.22-27.66-82.97-7.28-18.87-14.15-36.69-19.52-53.85-6.27-20.04-12-40.51-17.53-60.31-8.58-30.66-17.35-62.01-28.45-92.84,5.42,7.17,10.44,13.22,16.4,19.81,5.98,6.62,10.18,14.6,15.71,21.56,8.69,10.93,18.08,21.4,27.71,31.51,32.99,34.63,78.49,76.71,121.72,112.57,12.72,10.55,27.22,20.24,38.33,12.13,9.51-6.95,9.1-21.58-1.35-47.42-11.35-28.07-28.19-54.08-42.95-75.87,2.47,1.85,4.83,3.58,7.15,5.24l.4.29c7.16,5.14,17.97,12.9,29.82,20.8l.38.25c3.46,2.31,6.95,4.58,10.47,6.83l4.62,2.96c14.64,9.43,31.23,20.11,48.92,23.07,4.64.82,9.41.21,13.69-1.76,4.97-1.61,8.94-5.41,10.77-10.3,1.52-2.86,2.62-5.94,3.25-9.12l1.08.96c1.61,1.41,3.22,2.8,4.83,4.17,1.4,1.19,2.82,2.37,4.25,3.54l.74.61c6.7,5.48,13.07,10.23,19.46,14.53l.34.22c2.57,1.72,5.05,3.3,7.57,4.84,1.27.78,2.57,1.56,3.88,2.32.86.5,1.71.98,2.57,1.46,2.27,1.26,4.56,2.5,6.88,3.66,21.39,10.69,30,8.13,34.61,5.29.67-.42,1.32-.88,1.93-1.38.35-.24.68-.49,1-.77,1.49-1.3,2.77-2.83,3.8-4.52.84-1.3,1.54-2.68,2.09-4.12,1.05.66,2.1,1.32,3.15,1.96,12.9,8.1,26.39,15.2,40.37,21.24,6.8,3.17,13.95,5.53,21.3,7.03,2.7.55,5.48.66,8.22.34,6.32-.4,12.05-3.85,15.35-9.25,7.92,4.23,16.19,7.76,24.72,10.56,4.58,2,9.44,3.27,14.42,3.78l.89.12c2,.33,4.02.46,6.04.4,1.31-.03,2.61-.2,3.89-.5l.87-.21c.95-.22,1.89-.44,2.8-.72,3.46-.91,6.59-2.81,9-5.45.58-.66,1.11-1.37,1.57-2.12.63.2,1.25.38,1.88.56l1.66.47c11.42,3.27,23.23,6.64,35.96,6.75,8.78.07,27.05.22,36.76-11.94,6.77-8.47,3.48-22.47.81-28.69-4.38-10.2-21.64-30.12-30.79-35.53l-2.38-1.41c-1.45-.95-2.86-1.86-4.25-2.73.54-1.43.93-2.92,1.15-4.44.8-4.41-.03-8.96-2.34-12.8-.18-.29-.36-.58-.54-.88-1.04-1.87-2.32-3.59-3.81-5.13-3.07-3.47-6.57-6.54-10.41-9.14-9.85-6.83-20.43-12.54-31.55-17.03.02-.12.03-.26.05-.39.28-2.19.26-4.41-.07-6.6-.82-5.73-4.16-10.79-9.11-13.78-9.43-8.53-24.6-14.73-31.29-17.47-9.1-3.53-18.41-6.5-27.88-8.89,1.31-1.89,2.32-3.97,2.99-6.17.82-2.1,1.23-4.35,1.19-6.61-.18-7.91-6.93-15.02-13.34-17.38-11.49-6.48-31.24-10.78-48.99-14.32l-2.6-.52c-4.41-.88-9.46-2.19-14.8-3.57-3.54-.92-7.23-1.87-10.92-2.79,1.72-1.4,6.93-5.65,7.37-12.36.22-3.6-.96-7.15-3.28-9.91-3.65-5.65-11.08-9.64-24.38-13.14-1.51-.44-3.28-.92-5.04-1.38-2.53-.66-5-1.25-7.29-1.8l-3.91-.92c-1.88-.44-3.77-.87-5.67-1.3l-3.59-.78c-1.65-.35-3.31-.69-4.97-1.02l-3.8-.76c-2.17-.42-4.34-.82-6.53-1.22l-3.08-.55c-2.49-.43-4.99-.86-7.52-1.28l-1.34-.22c-5.67-.91-11.25-1.74-16.85-2.52l-3.16-.43c-5.1-.68-10.17-1.32-15.2-1.9l-4.75-.54c-3.34-.37-6.65-.73-9.94-1.07,37.72-12.05,39.74-19.49,40.94-24l.46-1.7-.1-1.74c-1.02-16.2-18.73-20.48-28.24-22.77-1.16-.28-2.25-.54-3.22-.8-31.81-8.62-72.41-14.3-124.13-17.37-18.98-1.13-36.11-1.69-52.06-1.69,22.41-7.15,44.68-15.07,66.55-22.84,24.5-8.71,49.83-17.71,74.46-25.29,8.05-2.48,16.39-4.6,25.22-6.85,12.88-3.04,25.59-6.74,38.08-11.09,6.34-2.33,23.16-8.53,21.56-22.24-1.43-12.18-18.54-20.33-50.88-24.23-90.18-10.86-256.99,11.52-345.28,57.72-15.93,8.33-30.84,18.5-44.4,30.29l-3.68-1.23c-10.17-4.16-20.59-7.66-31.2-10.48l8.74-3.12c22.93-7.4,45.44-16.08,67.4-25.99,25.04-11.3,49.59-24.25,73.33-36.77,15.76-8.31,32.06-16.91,48.24-24.88,12.39-6.11,25.87-11.95,40.15-18.14,24.28-10.53,49.39-21.42,69.91-34.14,5.81-3.6,19.43-12.04,16.61-24.18-2.93-12.63-19.25-14.24-33.65-15.67-67.84-6.71-161.31,25.21-210.98,44.84-10.04,3.97-20.01,8.08-29.92,12.36-29.22,12.42-57.53,26.88-84.71,43.3-11.97,7.34-23.65,15.16-34.92,23.54-5.1,3.79-10.33,7.52-15.19,11.53-4.4,3.63-9.01,9.04-15.35,8.36-4.36-.75-8.67-1.75-12.91-3.01-1.22-.38-2.43-.76-3.63-1.12,2.98-2.77,5.61-5.67,8.17-8.49,17.59-19.4,33.51-40.65,49.12-61.67,9.39-12.63,19.09-25.7,29.42-37.93,43.76-51.82,92.75-86.9,163.82-117.31,1.93-.82,5.96-2.27,10.25-3.8,20.31-7.25,27.71-10.36,31.48-14.52,2.36-2.74,3.82-6.14,4.2-9.74l.76-5.15-3.58-3.78c-15.57-16.42-43.69-17.11-63.49-16.2-38.68,1.79-84.52,14.7-121.09,33.96,17.11-33.19,37.16-64.78,59.91-94.39,5.84-7.71,12.91-15.71,19.75-23.44,8.46-9.22,16.42-18.88,23.84-28.94,2.88-4.07,10.5-14.9,4.66-24.43-6.01-9.8-19.44-7.86-28.33-6.58ZM573.06,301.18l-.12-.1c3.73-1.66,10.48-3.9,22.4-5.87,8.1-1.34,23.17-12,23.34-23.66.24-15.99-21.02-16.85-32.35-18.85-6.17-1.08-13.47-1.23-17.49-6.4-4.98-6.41-3.35-20.38-1.37-27.51,2.67-9.63,7.41-21.94,13.12-30.03.62-.68.99-1.56,1.03-2.48,0-.04-.03-.07-.04-.11,1.04-.79,2.3-1.24,3.6-1.28,1.73.31,2.49,2.35,2.8,4.09.71,3.97-3.51,31.36,10,21.72l2.27-1.63c22.25-15.86,49.67-25.66,76.15-31.23,1.82-.38,4.13-.57,5.12,1.01.58,1.45.35,3.1-.59,4.35-8.29,15.25-23.83,25.08-35.79,37.21l33.21-5.93c9.94-1.87,19.99-3.15,30.08-3.83,8.72-.5,17.66-3,26.39-1.4,8.92,1.64,9.37,7.48,1.49,11.9-3.1,1.73-19.34,7.79-20.17,11.44-1.18,5.17,11.79,5.81,15.17,6.85,6.4,1.97,19.11,4.17,21.87,11.04.24.49.32,1.05.23,1.59-.22.8-1.04,1.24-1.8,1.58-8.8,3.93-18.52,5.24-28.08,6.51-5.06.67-10.39,1.3-15.22-.75,3.52,2.1,6.51,3.21,6.82,7.99.05.79-1.19,5.55-1.08,5.62l6.42,4.25c6.13,4.06,12.75,5.88,17.75,11.45-1.18,2.91-4.53,4.18-7.54,5.07-7.58,2.3-15.3,4.13-23.1,5.51-8.65,1.48-18.4.43-27.22.1-9.9-.36-19.76-1.25-29.62-2.13l-39.55-3.5,27.63,22.16c2.72,2.32,5.21,4.91,7.43,7.71-2.8.56-5.64.87-8.49.94-15.34.42-30.74-3.98-44.44-10.67-7.19-3.49-13.99-7.75-20.25-12.72ZM1091.75,55.04c-5.89,7.99-13.09,16.14-20.68,24.72-7.1,8.03-14.45,16.34-20.78,24.69-30.6,40.39-57.69,83.9-77.41,130.68-3.24,7.68-8.16,15.78-10.31,23.74,6.3-4.65,13.13-8.54,20.35-11.59,22.83-8.57,43.07-21.97,65.98-30.54,25.74-9.63,53.13-16.23,80.65-17.5,6.59-.3,23.04-1.06,35.54,2.97-4.66,1.79-9.78,3.61-13.1,4.8-4.8,1.71-8.95,3.19-11.48,4.27-73.35,31.39-126.32,69.38-171.76,123.19-10.76,12.74-20.67,26.07-30.25,38.97-9.42,12.69-19.17,25.81-29.46,37.95l-19.19,22.64.44-.08c-2.36,2.69-4.87,5.26-7.51,7.68-2.37,1.93-4.9,3.66-7.57,5.16-3.03,1.75-5.95,3.7-8.73,5.83l-18.17,14.35,22.71,4.56c8.44,1.72,16.77,3.9,24.97,6.53l.8.22,19.1,4.46c3.18.74,7.09,2.4,10.13,1.42,5.98-1.93,10-7.84,14.32-12.01,4.43-4.04,9.09-7.82,13.96-11.32,10.99-8.37,22.41-16.18,34.12-23.49,26.8-16.44,54.77-30.88,83.69-43.21,10.2-4.44,20.48-8.69,30.83-12.77,38.54-15.23,135.28-49.94,200.99-43.44,2.63.26,4.98.53,7.05.8-19.06,11.69-43.09,22.11-66.33,32.19-13.88,6.02-28.23,12.25-41.09,18.58-16.45,8.1-32.89,16.77-48.77,25.15-23.45,12.37-47.71,25.16-72.15,36.19-21.34,9.62-43.2,18.05-65.48,25.24l-35.24,12.58c-.89.32-1.78.62-2.67.89l-32.51,9.68,61.9,20.66c10.12,2.66,20.06,5.98,29.75,9.94l.89.34,16.03,5.36,4.66-4.29c13.42-12.35,28.41-22.88,44.58-31.32,76.25-39.91,237.97-66.85,332.77-55.44,8.34,1.01,16.59,2.68,24.66,5l-.19.07c-11.8,4.08-23.81,7.56-35.96,10.43-8.69,2.21-17.68,4.5-26.24,7.13-25.06,7.72-50.62,16.81-75.33,25.59-42.36,15.06-86.17,30.63-129.09,39.89-24.92,5.37-51.1,7.44-76.42,9.44-4.37.35-8.74.7-13.11,1.05l-19.01,1.57c-3.8.31-29.79-.08-22.7,6.69,1.61,1.53,6.67,2.13,8.82,2.82l18.38,5.91,22.13,7.11,2.33-.28c11.02-1.33,22.33-1.82,31.43-2.21,5.4-.23,10.06-.44,13.79-.76,4.57-.4,9.15-.72,13.72-1.04,8.79-.61,17.89-1.25,26.96-2.48l4.3-.61c5.31-.9,10.67-1.44,16.05-1.63,1.52-.02,3.04.05,4.56.16h1.5c29.24-1.68,58.57-1.51,87.79.49,50.23,2.98,89.41,8.42,119.78,16.65,1.14.31,2.42.62,3.8.95s3.51.85,5.65,1.47c-7.69,3.29-15.56,6.15-23.58,8.57-10.43,3.22-21.65,4.45-31.92,7.97-8.56,2.93-17.26,3.31-26.19,5.16l-17.73,3.66c-4.54.94-31.55,4.04-19.53,10.18,10.71,5.48,25.79,5.22,37.65,7.23,9.97,1.68,19.97,2.37,29.64,3.04l2.29.16c6.69.47,12.27.89,17.92,1.6l3.14.48c27.4,4.07,55.63,5.96,82.59,11.39,1.59.32,3.18.65,4.74.98l3.43.74c1.81.4,3.59.81,5.36,1.23l3.86.9c3.88.93,14.61,1.7,16.37,6.03,3.78,9.33-26.46,19.25-31.44,22.05-3.26,2.15-6.8,3.84-10.53,5.01-2.57.59-5.54-.24-6.81,2.68,6.93,3.16,16.64-.13,24.01-.25l17.64-.31c16.41-.29,32.71,2.74,48.66,6.33,7.93,1.79,15.81,4.12,23.79,5.66,8.23,1.59,16.76,1.87,23.59,7.42.88.72,1.78,1.85,1.28,2.86-.24.4-.59.73-1,.96-2.08,1.4-3.73,3.15-5.77,4.54l-.59.44c-2.92,2.17-7.43,7.1-7.06,11.09.47,5.07,6.38,4.62,10.46,5.57,11.83,2.76,23.33,6.79,34.29,12.02,5.5,2.8,10.81,5.94,15.93,9.4,5.68,3.6,11.86,5.6,16.73,10.51l1.51,1.52c-.07.43-.2.84-.4,1.23-.03.03-.12.12-.2.21l-11.15,11.94,15.39,5.47c13.03,4.44,25.4,10.6,36.79,18.33,1.63,1.15,10.22,6.96,9.42,8.95-.53.93-1.43,1.59-2.48,1.81-3.18.75-6.1,2.33-8.47,4.58l-4.92,4.41,13.26,7.28c4.39,2.41,9.05,5.24,14.25,8.64l3.01,1.79c5.39,3.19,19.37,19.42,22,25.53.94,2.4,1.44,4.95,1.48,7.53-4,3.33-15.29,3.24-19.16,3.2-9.81-.08-19.74-2.92-30.24-5.92l-1.69-.48c-.98-.28-1.93-.58-2.89-.89l-.6-.18c-3.12-1.1-6.38-1.77-9.68-1.98l-1.8.16c-1.45.21-2.86.66-4.17,1.32-1.41.72-2.68,1.69-3.75,2.86l-1.01,1.25-.5.83c-.52.86-.94,1.77-1.25,2.73-.14.48-.25.93-.34,1.39l-.79.16c-.73,0-1.46-.08-2.18-.21l-1.08-.15c-15.14-1.99-30.52-10.75-43.37-18.54l-17.71-10.73,1.46,20.66c.14,1.18.01,2.38-.36,3.51-.43.03-.86,0-1.28-.09l-.7-.13c-4.98-.75-11.61-3.57-16.46-5.62-12.99-5.61-25.53-12.2-37.52-19.72-5.72-3.54-11.58-7.36-17.91-11.68-3.35-2.29-16.03-13.77-19.7-12.1-.95.56-1.52,1.6-1.49,2.7.1,2.06.7,4.06,1.73,5.84,2.46,5.3,4.24,10.9,5.29,16.65.32,1.33.37,2.7.16,4.05-1.28,5.87-13.28-1.32-16.34-2.85-2.02-1.01-4.03-2.1-6.03-3.21-.76-.43-1.51-.85-2.25-1.28-1.15-.67-2.3-1.36-3.45-2.06-2.28-1.39-4.51-2.82-6.7-4.28l-.31-.21c-5.94-3.99-11.78-8.36-17.95-13.41l-.71-.58c-1.32-1.08-2.66-2.19-3.98-3.31-1.54-1.31-3.06-2.62-4.57-3.94l-1.83-1.63c-1.35-1.2-2.69-2.41-4.02-3.61l-.85-.76c-2.82-2.58-5.66-5.11-8.49-7.62-2.79-2.48-5.56-4.94-8.28-7.44-5.05-4.63-10.11-9.27-15.16-13.9-2.15-1.97-7.23-8.39-8.73-4.13-1.51,4.32,4.18,13.48,5.03,17.91,1.04,5.42,2.53,10.76,3.71,16.17l2,9.26c.84,2.47,1.1,5.11.75,7.7-1.92,7.58-17.4-1.07-21.37-3.04-7.91-4.13-15.59-8.69-23-13.66l-4.72-3.03c-3.39-2.16-6.75-4.35-10.03-6.54l-.45-.3c-11.51-7.68-22.15-15.31-29.19-20.37l-.4-.29c-4.98-3.57-10.19-7.5-16.41-12.36s-12.82-10.18-20.8-16.76l-9.23-7.63c-6.2-5.13-12.41-10.25-18.68-15.29-3.16-2.54-6.34-5.05-9.54-7.54l-66.26-51.37,98.25,127.39c19.38,28.45,35.08,52.41,46.09,79.64,2.41,5.72,4.34,11.63,5.78,17.67-3.19-2.13-6.26-4.44-9.2-6.92-42.62-35.36-87.44-76.81-119.89-110.86-11.57-12.14-22.74-24.85-33.27-37.85l-1.77-2.19c-16.51-20.38-30.97-42.27-48.09-62.31-2.06-2.42-4.16-4.82-6.25-7.23-4.94-5.66-9.59-11-13.95-16.64-14.51-18.74-28.49-37.69-45.75-54.01-1.77-1.68.8,6.62.75,6.42,1.14,3.31,2.55,6.53,4.2,9.62,3.54,7.68,7.08,15.36,10.62,23.03,3.99,8.66,7.98,17.32,11.97,25.98,2.56,5.55,4.78,11.25,6.65,17.07l.51,1.29c20.75,44.02,33.43,89.34,46.85,137.33,5.58,19.95,11.36,40.59,17.72,60.93,5.57,17.82,12.89,36.8,19.98,55.16,10.42,27.02,21.19,54.96,26.73,79.9l.18.77c-1.88-1.56-3.9-3.33-5.95-5.26-59.42-55.87-114.96-186.82-138.42-255.39-7.32-21.39-15.52-46.78-20.83-72.87l-.35-1.29-.48-1.36c-.13-.36-.26-.72-.38-1.08-3.58-11.42-5.47-23.31-5.6-35.28-.04-3.07.05-6.14.12-9.2l.44-17.07c-.04-2.02.17-4.05.63-6.02l.45-2.17.03-.71.62-8.73-8.46-2.01-42.35-11.77-4.42,4.35c-4.48,3.86-5.43,10.43-2.23,15.41,1.14,3.38,2.28,6.69,3.41,9.98l.46,1.16c.81,1.75,1.63,3.51,2.42,5.28h-.49s4.57,14.36,4.57,14.36c3.25,9.98,5.95,20.14,8.09,30.42,10.22,50.34,9.26,99.64,8.24,151.83-.38,19.27-.76,39.2-.53,59.01.22,18.52,1.1,37.72,1.94,56.28,1.43,31.48,2.92,64.03,1.3,94.64-.06,1.22-.11,2.47-.16,3.72-10.46-13.57-21.8-43.66-29.29-68.71-22.84-76.36-34.45-162.25-33.58-248.37.12-11.69.46-23.06,1.03-33.8l.11-1.96-.49-1.53c-.05-1.22-.04-2.45.04-3.67.03-.74.06-1.36.06-1.78,0-7.01.71-14,2.11-20.87.57-2.81,1.1-5.63,1.61-8.46l.08-.52c1.22-9.35,2.78-18.61,4.62-27.54,1.16-6.65,2.69-14.94,4.81-23.21l2.75-4.49-2.74-5.35c-1.62-3.01-4.22-5.37-7.36-6.69-.48-.24-21.51-8.48-27.11-8.09-3.78.06-7.31,1.94-9.47,5.04-1.97,2.89-2.46,6.53-1.34,9.84l.38,1.2.65,1.08c2.56,4.28,3.07,12.5,3.45,18.5l.12,1.91c.4,6.16.82,12.41,1.01,18.64l-2.22,29.37c-2.04,26.94-7.28,55.4-12.36,82.92-3.2,17.34-6.22,33.71-8.49,49.75-6.75,47.5-9.1,91.33-11.6,137.73-.89,16.53-1.81,33.63-2.94,50.84-.09,1.37-.18,3.01-.28,4.82-.2,3.49-.49,8.66-.9,13.25-25.84-41.43-29.49-141.03-27.41-195.49,1.12-29.13,3.6-59.37,6.98-85.16,4.12-31.41,9.07-54.69,16.04-75.49,0,0,11.98-35.76,11.95-35.73,5.38-9.77,11.88-18.89,19.37-27.16,2.52-2.88,8-6.51,5.35-10.31-1.34-1.94-6.7-3.09-8.86-4l-26.13-11c-14.11-5.94-27.6-8.73-42.33-12.78-1.25-.34-2.88-.55-3.57.54-.75,1.18.34,2.63,1.3,3.65,6.39,6.73,9.42,13.36,8.06,22.34-.42,3.28-1.04,6.53-1.87,9.73-.92,3.21-1.89,6.36-2.86,9.5l-1.24,4.06c-1.33,5.17-2.85,10.71-4.65,16.94l-.1.36c-.9,3.56-1.81,6.89-2.75,10.11l-1.38,4.01c-.15.34-.31.7-.48,1.07l-.39,1.03c-.21.66-.41,1.32-.62,1.99-.18.61-.37,1.23-.57,1.84-.49,1.46-.99,2.92-1.49,4.39l-.82,2.37c-8.22,24.07-17.62,48.16-26.71,71.46-14.03,35.94-28.53,73.11-39.3,111.64-7.45,26.68-12.22,53.36-16.83,79.16-3.02,16.89-6.14,34.35-9.96,51.47-.34,1.51-.66,3.15-.99,4.85-.25,1.28-.58,2.98-.96,4.68-21.57-26.97-22.49-95.84-19.5-133.25,5.27-66,23.78-129.22,53.52-182.84l8.73-15.72c-1.63,2.74-13.63-3.61-15.85-3.25-1.86.54-3.48,1.67-4.62,3.24-5.6,6.15-11.35,12.17-17.25,18.05-6.16,6.14-12.51,11.69-18,18.51-8.15,10.13-17.13,19.34-24.56,30.03-7.59,10.92-14.71,22.13-21.37,33.66-18.01,31.28-32.61,64.4-43.57,98.79-.72,2.24-1.73,6.02-3.02,10.81-1.67,6.23-5.18,19.31-8.36,28.75-1.51-3.79-2.76-7.68-3.71-11.65-9.18-40.48-.67-103.01,12.87-140.06,1.02-2.8,2.12-5.56,3.24-8.3,6.16-15.01,13.83-29.35,22.89-42.8l2.1-3.07.3-.55c1.73-3.04,3.8-5.87,6.19-8.43l.53-.64c4.72-6.16,9.9-12.31,15.39-18.25l1.14-1.25c.98-1.05,1.97-2.07,2.95-3.08l1.63-1.69c.76-.77,1.56-1.57,2.37-2.36l2.25-2.23c1.47-1.42,2.95-2.83,4.44-4.21l.3-.29c1.63-1.5,3.22-2.95,4.84-4.38l2.41-2.09c11.17-10.24,23.21-19.48,35.98-27.63l5.29-3.41c11.88-7.67,24.17-15.61,36.67-21.61,2.81-1.44,5.52-3.06,8.12-4.84,3.17-2.07,8.47-5.55,10.83-5.67l27.42-1.49-12.56-10.37c-2.71-2.23-6.4-3.2-9.59-4.66-3.81-1.74-7.56-3.61-11.24-5.6-3.5-1.7-6.7-3.97-9.46-6.72-1.16-1.26-2.14-2.67-3.32-3.92-2.37-2.26-5.18-4-8.27-5.11-3.17-1.31-4.64.65-7.83,1.07-2.49.04-4.97-.27-7.37-.92-2.37-.36-4.73-.71-7.07-1.2-1.97-.43-3.92-.96-5.84-1.59l-1.38-.35c-68.57-12.55-129.65-17.51-186.75-15.16-4.67.19-23.19-.52-15.23,8.89,2.37,2.8,6.08,6.22,7.55,9.6,1.4,3.24-.39,3.83-3.58,1.98-10.89-6.34-20.99-16.62-33.12-20.26-14.86-4.47-51.63-.83-89.15,3.77l-4.04.49c-13.6,1.66-27.17,3.62-40.69,5.86-5.68.95-13.94.89-19.11,3.5-4.9,2.47-2.8,8.43-.71,12.37,1.21,2.28,2.7,6.4-1.22,7.1-2.25.41-3.37-1.77-4.94-2.94-7.86-5.84-22.14-5.96-31.6-6.35-10.9-.38-21.81.37-32.55,2.25-20.58,3.48-40.42,10.35-59.7,18.17-3.05,1.24-5.68,2.6-8,3.81-.36.18-.74.38-1.13.59-.21-.76-.43-1.67-.67-2.76-2.07-9.48-1.61-19.34,1.34-28.59,2.42-7.35,5.69-14.39,9.76-20.98l1.27-2.02c2.26-3.61,5.69-6.32,9.72-7.68l1.38-.67c.27-.15.53-.31.79-.47.41-.09,1.22-.26,2.62-.45l1.06-.2c3.98-.95,8.28-1.59,12.83-2.26,3.75-.55,7.63-1.12,11.47-1.91l.36-.07c25.38-5.18,51.63-10.53,77.01-18.56l3.13-.98c10.92-3.4,22.21-6.92,31.71-15.18,10.66-9.27,19.95-20.94,27.82-31.15,5.19-6.73,9.94-13.79,14.54-20.62,8.97-13.31,17.44-25.89,28.58-35.71,5.95-5,12.22-9.62,18.76-13.82,2.17-1.46,4.34-2.92,6.48-4.41l.88-.68c7.98-6.85,17.22-14.97,25.29-23.34l1.06-1.29c6.97-9.97,10.47-20.12,10.36-30.18-.12-3.9-.71-7.78-1.76-11.54-.64-2.18-1.02-4.43-1.13-6.7.38-11.7,3.77-23.11,9.84-33.13,1.55-2.72,3.52-5.17,5.84-7.26,1.32-1.12,9.22-5.82,10.34-3.05.18.61.17,1.25-.04,1.85-1.31,4.35-2.91,8.61-4.79,12.75-4.73,12.13-5.39,26.86-4.08,39.71.6,5.9,3.43,13.39,9.05,16.39,10.45,5.57,22.05-1.87,32,5.69,1.4.83,2.34,2.26,2.56,3.87,0,1.92-1.78,3.3-3.41,4.3-6.76,4.12-14.85,7.9-22.81,8.67s-12.28,3.33-19.08,8.01c-17.02,11.67-32.19,25.8-46.81,40.3-16.5,16.36-32.54,33.36-46.08,52.3-6.77,9.47-24.14,28.06-21.06,40.97.69,2.99,2.57,5.57,5.21,7.14l2.59,1.55,3.02-.03c24.86-.25,50.24.27,74.8.78,34.62.72,70.41,1.46,105.74.06,12.34-.46,24.69-1.12,36.99-2.29,11.24-1.07,25.11-1.17,35.28-6.36,2.54-1.5,5.34-2.51,8.25-2.95,2.98-.41,5.94.92,7.6,3.43.24.38.37.83.36,1.28-.07.45-.25.88-.52,1.24-1.91,2.93-8.05,7.91-5.28,11.64,1.93,2.6,9.44,2.46,12.24,2.89,10.3,1.59,20.61,3.02,30.93,4.45,13.6,1.88,27.2,3.77,40.74,6.03,7.77,1.3,23.16,6.33,30.59,1.63,3.33-2.11,6.06-7.32,6.71-11.04.96-5.52-1.65-10.33-3.55-13.85-.29-.53-.56-1.01-.74-1.42-1.53-3.55-3.12-7.07-4.7-10.57-7.56-16.79-14.7-32.66-15.51-50.3-.03-.63-.05-1.24-.02-1.84l.06-1.28-.37-2.01c-.25-1.32-.47-2.61-.69-3.9-3.27-20.14-5.12-40.49-5.53-60.88-.09-2.87-.18-5.75-.25-8.62-.08-3.08-.15-6.12-.2-9.13-.81-42.86,2.03-186.53,72.65-236.01,2.43-1.7,4.46-3.02,6.16-4.04-1.81,6.54-4.06,13.1-6.4,19.88-2.23,6.48-4.53,13.17-6.46,19.99-17.64,62.25-18.52,124.47-16.15,165.7,1.04,18.18,1.19,39.04,6.18,56.54,4.75,16.68,8.89,32.27,8.92,49.91,0,1.39.45,3.27,1.84,3.23.99-.03,1.57-1.1,1.99-1.99,5.19-10.91,16.24-15.93,20.47-27.89,3.85-10.88,4.16-22.59,6.08-33.87.46-2.73.78-4.64.92-5.33,19.89-89.76,92.51-222.64,191.64-236.94l1.38-.23ZM1044.58,620.51c-1.57-5.88-3.65-11.6-6.22-17.11l8.36,2.32c-.01.3-.02.61-.03.9l-.43,16.95c-.03,1.15-.06,2.28-.08,3.41l-1.6-6.47Z"/>
    <path id="Caminho_75" data-name="Caminho 75" class="cls-2" d="M1627.56,690.12c-.08-.03-.16-.04-.24-.03-.33.1-.04.58.23.78,1.2,1.15,1.48,2.96.67,4.41-.38,1.02-.85,2-1.41,2.93-1.57,2.69-3.86,4.9-6.6,6.38-3.19,1.77-5.82,4.16-8.98,5.95-4.13,2.23-8.42,4.13-12.85,5.7-6.82,2.67-13.86,4.71-21.05,6.1-3.66.66-7.38,1-11.1,1.01-2.26-.07-4.52-.29-6.75-.66-10.53-5.77-21.93-9.81-33.74-11.97-11.94-2.01-24.03-2.96-36.13-2.85,3.21,2.71,6.3,5.58,9.33,8.44,3.88-.52,7.27-1.1,9.09-1.12,12.71.1,25.29,2.52,37.14,7.13,9.33,3.46,60.87,38.75,37.03,46.75-7.16,2.4-15.24,1.88-22.72,2.42-17.25,1.25-36.01-5.26-52.49-14.37-3.28-3.05-6.75-5.9-10.38-8.52-.08.08-.14.18-.23.27-3.24,3.15-7.75,5.22-12.3,3.82-1.29-.42-2.49-1.08-3.54-1.93-.38-.07-.75-.23-1.13-.34,6.57,5.91,13.65,11.31,20.14,17.48l22.38,21.29c5.73,5.09,10.92,10.75,15.5,16.9,4.46,6.45,7.43,14.28,10.37,21.52,1.12,2.66,2.11,5.37,2.95,8.13.91,2.93,1.36,5.99,1.32,9.06-.09,3.22-1.08,6.35-2.84,9.04.27-.4,1.61-.8,2.06-1.18.72-.66,1.34-1.43,1.82-2.28.99-1.59,1.6-3.38,1.81-5.24.66-4.43-.18-8.79-.39-13.19-.1-4.57-.9-9.11-2.36-13.44-2.01-5.48-4.38-10.83-7.09-16-4.97-9.12-11.14-17.54-18.35-25.02-.67-.71-1.34-1.43-2.01-2.17,3.99,1.63,8.13,2.85,12.36,3.67,2.12.68,4.25,1.35,6.34,1.99,6.21,1.9,12.33,4.06,18.37,6.46,24.02,9.61,46.51,23.68,63.7,43.21,3.92,4.58,7,9.82,9.1,15.48,1.94,5.06,5.2,9.02,4.53,14.88-.4,5.12-4.07,9.4-9.08,10.56,4.38,1.25,10.25.63,13.01-3.49,5.26-7.82,1.24-17.89-.85-26.02-.73-3.34-2.05-6.52-3.89-9.4-5.51-9.44-12.55-17.89-20.84-25,4.44,1.75,9.03,3.09,13.72,3.98,9.7,1.49,19.59,1.17,29.17-.97.75-.14,1.51-.31,2.26-.5,1.52.86,3.02,1.77,4.46,2.75,3.43,2.35,6.6,5.05,9.49,8.04,1.83,3.42,6.19,9.02,6.91,10.19.95,1.54,1.91,3.08,2.86,4.62l7.09,11.44c3.43,5.54,6.92,11.2,8.42,17.55.56,2.36.78,5.78-1.4,7.44-2.39,1.42-5.09,2.21-7.87,2.29-1.29.11-2.58.12-3.86,0-1.13-.09-2.17.18-3.3.09-1.31.05-2.61-.11-3.87-.48,3.68,1.6,7.59,2.61,11.58,3.01,1.68.3,3.38.45,5.08.44.59,0,1.17-.06,1.75-.18,1.06-.26,2.16-.48,3.19-.78,1.53-.37,2.92-1.15,4.03-2.27.91-1.2,1.49-2.63,1.68-4.12.27-1.32,0-2.27,1.45-3.02,2.03-1.05,4.25.17,6.2.79,1.69.54,3.37,1.08,5.08,1.57s3.43,1.1,5.13,1.68c.85.29,1.71.57,2.57.82.83.12,1.64.33,2.43.63-.38-.89-1.99-1.36-2.77-1.78-1.08-.57-2.17-1.16-3.24-1.77-2.14-1.2-4.19-2.56-6.12-4.08-4.5-3.92-8.41-8.46-11.6-13.5-5.66-8.23-10.81-16.66-15.72-25.3-.26-.56-.56-1.1-.9-1.62-.9-1.62-1.83-3.22-2.73-4.85-.43-.84-.93-1.64-1.49-2.4-.45-.57-1.45-1.35-.88-2.17.02-.03.05-.03.07-.06,1.84.19,3.7.1,5.51-.25,1.2.13,2.41.03,3.57-.29,9.29-2.13,18.83-2.96,28.34-2.45,6.06.56,12.06,1.72,17.89,3.46,1.45.38,2.91.75,4.36,1.08,1.57.36,3.13.79,4.71,1.18.31.08.62.17.91.27,1.04.34,2.01.78,3.05,1.24,1.54.57,3.05,1.22,4.52,1.96-6.22-4.27-12.64-8.23-19.26-11.86.03.02,1.88-.96,2.09-1.1.86-.55,1.63-1.22,2.31-1.99,1.4-1.57,2.32-3.52,2.63-5.6.38-1.85.12-3.77-.74-5.45-.87-1.73-2.01-3.3-3.37-4.67.25.75.41,1.53.46,2.32.19,1.32.16,2.66-.09,3.97-.05.3-.14.6-.25.89-2.23,6.24-8.96,9.11-15.15,8.97-7.59-.17-15.16-.75-22.71-1.45-.06-.01-.1-.05-.16-.07-1.93-.36-3.9-.53-5.86-.51-3.91-.38-7.82-.74-11.72-1.08-3.33-.77-6.69-1.82-9.87-2.78l-6.17-1.85c-.78-.23-1.55-.47-2.32-.71-.54-1.33-1.17-2.61-1.89-3.85-6.08-10.21-14.25-19.02-23.98-25.84,12.28,1.79,24.73,2.02,37.07.71,5.81-.75,12.46-2.34,15.94-7.51,1.9-2.9,2.67-6.4,2.17-9.83-.42-2.65-2.35-6.42-5.42-6.62.39,1.17,1.47,2.1,1.94,3.29.58,2.1.18,4.34-1.08,6.12-2.65,4.58-8.19,5.81-13.03,6.54-13.44,2.03-27.75-1.07-41.18-3.23-23.19-3.73-47.57-9.81-64.37-25.88,13.16-2.68,25.84-7.31,37.64-13.74,7.36-3.82,14.02-7.44,18.72-14.49,1.48-1.81,2.38-4.03,2.57-6.36-.06-2.98-3.75-6.68-6.52-7.55ZM1623.29,770.33c5.96,3.62,11.62,7.71,16.94,12.22,2.89,2.53,11.04,8.26,9.89,12.73-1.41,5.42-11.66,5.03-15.88,4.98-6.49-.12-12.91-1.35-18.98-3.64-6.98-2.85-13.68-6.31-20.04-10.35-4.4-2.6-8.78-5.25-13.19-7.84-.08-.05-.14-.08-.23-.13,4.16-.64,8.25-1.36,12.19-2.09,11.65-2.16,11.1-9.54,5.77-17.92,7.3,4.48,17.99,8.58,23.54,12.04Z"/>
    <path id="Caminho_76" data-name="Caminho 76" class="cls-2" d="M794.79,472.6c-3.55,6-5.47,13.55-3.84,23.63,2.53,15.54,13.1,20.33,21.6,24.18,3.94,1.49,7.59,3.65,10.78,6.41l10.1-10.11c-4.37-4.01-9.46-7.17-14.98-9.31-8.17-3.7-12.15-5.81-13.39-13.45-2.04-12.53,3.7-17.76,14.01-25.93,6.87-5.43,14.64-11.6,18.65-21.57,21.8-54.27,52.33-105.54,92.53-148.23,10.9-11.58,22.03-22.95,33.48-33.99,7.49-7.21,16.37-12.63,25.05-18.25,3.43-2.22,8.88-4.47,5.03-8.88-3.27-3.76-9.63-1.76-13.3.03-1.35.74-2.67,1.55-3.93,2.43-3.93,2.51-7.76,5.18-11.52,7.93-12.36,9.15-24.05,19.17-34.98,29.99-37.29,36.62-66.94,80.68-89.7,127.59-5.74,11.82-11.05,23.84-15.94,36.05-2.6,6.45-8.26,10.94-14.26,15.69-5.36,4.25-11.42,9.05-15.41,15.8Z"/>
    <path id="Caminho_77" data-name="Caminho 77" class="cls-1" d="M778.48,626.65s49.52-62.51,87.03-94.86"/>
    <path id="Caminho_78" data-name="Caminho 78" class="cls-2" d="M826.64,511.17c-3.67-1.59-7.5-4.61-11.57-4.9-1.49,2.97-.1,7.6.06,10.81.12,4.06,1.58,7.97,4.14,11.13,1.86,2.18,4.88,3.3,7.55,4.56,11.71,5.49,24.33,8.74,36.89,11.62,5.28,1.21,11.09,3.04,16.52,3.32,5.02.26,17.27-7.91,13.76-14.01-2.06-3.58-11.73-5.18-15.35-6.45-4.78-1.68-9.62-3.6-14.55-4.8-8.87-2.06-17.62-4.57-26.24-7.52-3.7-1.31-7.64-2.21-11.21-3.76Z"/>
    <path id="Caminho_79" data-name="Caminho 79" class="cls-2" d="M1085.22,572.49c-1.62,2.77-2.71,5.83-3.21,9-3.15,19.29,12.6,28.03,24.1,34.41,1.91,1.06,3.8,2.11,5.59,3.19,15.05,9.09,31.79,18.14,52.71,28.5,33.97,16.81,71.7,33.3,118.75,51.87,49.72,19.64,98.61,37.26,145.32,52.38l4.4-13.6c-46.42-15.03-95.03-32.55-144.47-52.08-46.67-18.43-84.06-34.76-117.65-51.39-20.55-10.17-36.97-19.04-51.66-27.92-1.93-1.17-3.98-2.3-6.04-3.45-12.55-6.96-18.31-11.17-16.93-19.61,2.02-12.5,24.76-14.89,38.13-15.2,83.15-1.94,166.3,34.12,229.45,65.74l6.14,3.07c32.44,16.18,65.14,33.77,92.42,57.62,5.16,4.51,7.02,1.19,11.91-2.76-25.46-31.48-62.31-49.87-97.95-67.64l-6.13-3.06c-64.63-32.36-149.88-69.25-236.18-67.25-25.59.6-41.91,6.71-48.7,18.18Z"/>
    <path id="Caminho_80" data-name="Caminho 80" class="cls-2" d="M624.73,254.41c-.85.24-1.7.49-2.54.75-1.74.67-3.58,1.07-5.44,1.2-3.41,0-6.7-2.13-10.04-1.46-2.79.76-5,2.91-5.84,5.68-1.94,5.46.11,11.33-3.6,16.38,2.28-2.26,5.76-2.8,8.62-1.31,1.83.98-12.03,18.16-13.44,19.39,8.36,1.9,16.5,4.66,24.28,8.25,6.92,3.02,13.6,6.56,19.98,10.6,3.13,2.05,3.58,2.66,5.5-.55,1.24-2.08,2.41-4.2,3.61-6.29,1.3-2.26,4.71-6.22,3.66-8.44-1.47-3.07-6.76-4.26-9.5-5.76-4.88-2.67-9.82-5.26-14.88-7.67-5.55-2.64-11.22-2.8-15.06-8.27.14-1.64,1.11-3.09,2.56-3.86,1.44-.74,3-1.2,4.61-1.38,11.66-1.88,23.34-.54,35.1-1.36,16.47-1.15,31.6-1.23,47.71,2.19,10.15,2.04,20.04,5.16,29.53,9.3,4.01,1.82,11.12,8.63,13.11,1.21.79-2.93,1.4-9.3-.03-12.07-1.78-3.43-8.56-4.91-11.98-6.13-17.26-6.14-35.19-10.22-53.4-12.17-17.84-1.91-35.21-3.01-52.51,1.78Z"/>
    <path id="Caminho_81" data-name="Caminho 81" class="cls-2" d="M682.9,200.08s-61.48,54.55-116.76,56.57"/>
  </g>
</svg>