<svg xmlns="http://www.w3.org/2000/svg" width="139.778" height="139.778" viewBox="0 0 139.778 139.778">
  <path id="Caminho_424" data-name="Caminho 424" d="M1315.155,610.938l0-2.524h3.627a1.923,1.923,0,1,0,0-3.845h-3.625l.012-17.807c0-3.433-2.4-6.021-5.579-6.021a5.525,5.525,0,0,0-1.751.282v-4.631h10.943a1.923,1.923,0,1,0,0-3.845h-11.515a25.81,25.81,0,0,1-14.887-8.473,7.421,7.421,0,0,1-9.992,4.748,6.437,6.437,0,0,0-4.851,3.725h-28.476a1.923,1.923,0,0,0-1.923,1.923v2.466h-4.579c-2.908-4.477-8.56-7.314-14.763-7.314l-2.525,0v-3.628a1.922,1.922,0,0,0-3.845,0v3.625l-17.807-.012c-3.433,0-6.021,2.4-6.021,5.58a5.524,5.524,0,0,0,.282,1.751h-4.63V565.992a1.922,1.922,0,0,0-3.845,0v11.516a6.408,6.408,0,0,0-3.2,8.562,6.428,6.428,0,0,0,.006,12.65,6.341,6.341,0,0,0,3.19,8.518v28.476a1.921,1.921,0,0,0,1.922,1.922h2.466v4.58c-4.477,2.908-7.314,8.56-7.314,14.763l0,2.524h-3.628a1.923,1.923,0,0,0,0,3.845h3.626l-.012,17.807c0,3.433,2.4,6.022,5.579,6.022a5.52,5.52,0,0,0,1.751-.282v4.63h-10.944a1.922,1.922,0,0,0,0,3.845h11.516a6.44,6.44,0,0,0,5.863,3.8,6.372,6.372,0,0,0,2.7-.6,35.635,35.635,0,0,1,15.359.6,6.322,6.322,0,0,0,5.809-3.8h28.477a1.922,1.922,0,0,0,1.922-1.922v-2.467h4.579c2.908,4.477,8.56,7.315,14.763,7.315h2.525v3.628a1.922,1.922,0,1,0,3.845,0V698.3l17.807.012c3.432,0,6.021-2.4,6.021-5.58a5.5,5.5,0,0,0-.283-1.751h4.631v10.944a1.922,1.922,0,1,0,3.845,0V690.41a6.441,6.441,0,0,0,3.8-5.863,6.368,6.368,0,0,0-.6-2.7,6.429,6.429,0,0,0-.005-12.651,6.342,6.342,0,0,0-3.19-8.518V632.2a1.922,1.922,0,0,0-1.922-1.922h-2.466V625.7C1312.318,622.793,1315.155,617.142,1315.155,610.938Zm-64.17-34.546h25.939v23.3l-3.2-6.382-.14-.168c-2.612-3.155-6.633-4.01-9.779-2.077-2.569,1.578-4.3,5.157-2.366,9.595l1.941,3.909h-12.393Zm29.766,53.889h-2.466a1.922,1.922,0,0,0-1.922,1.922v16.225l-7.317,3.633-.266.161a31.114,31.114,0,0,0-9.549,11.67H1254.5v-2.466a1.922,1.922,0,0,0-1.922-1.923h-16.225l-3.634-7.316-.16-.267a31.126,31.126,0,0,0-11.67-9.548v-4.736h2.466a1.921,1.921,0,0,0,1.922-1.922V619.489l7.317-3.633.266-.16a31.116,31.116,0,0,0,9.549-11.671h4.735v2.467a1.923,1.923,0,0,0,1.923,1.922h16.224l3.633,7.316.161.267a31.117,31.117,0,0,0,11.67,9.548Zm-95.973-37.887a2.593,2.593,0,0,1,2.59-2.589h29.73a1.922,1.922,0,0,0,0-3.845h-25.054a2.59,2.59,0,1,1,0-5.179h11.742c.055,0,.107-.012.16-.016h16.044a1.923,1.923,0,0,0,0-3.845h-16.369c-1.3,0-2.176-.7-2.176-1.735s.875-1.735,2.176-1.735l24.177.017c5.257,0,9.955,2.468,11.97,6.29.009.018.025.032.036.05a1.945,1.945,0,0,0,.246.342c.016.017.028.037.045.054a1.949,1.949,0,0,0,.356.282c.038.023.076.042.115.062a1.812,1.812,0,0,0,.314.133c.044.014.087.03.133.041a1.912,1.912,0,0,0,.41.055c.016,0,.031.007.047.007l.015,0h5.655v19.4h-6.016c-.013,0-.025,0-.038,0-.074,0-.146.013-.218.022-.055.008-.11.012-.163.024s-.122.036-.182.056-.118.036-.174.06-.107.057-.16.087-.109.058-.16.093-.1.081-.149.122-.09.073-.131.115a1.669,1.669,0,0,0-.12.146,1.771,1.771,0,0,0-.114.147c-.029.046-.053.1-.079.145a2.088,2.088,0,0,0-.1.2c-.005.012-.013.022-.017.034a26.813,26.813,0,0,1-8.587,11.052l-14.792,7.348c-2.455,1.052-4.06.242-4.743-.871-.743-1.209-.678-3.1,1.1-4.672l7.984-4.006.292-.181a3.386,3.386,0,0,0-2.033-6.093h-26.328a3.023,3.023,0,0,1-.488-.042l-.026,0a2.652,2.652,0,0,1-2.214-2.144,2.6,2.6,0,0,1,2.56-2.99h24.733a1.922,1.922,0,1,0,0-3.845h-29.409A2.593,2.593,0,0,1,1184.778,592.394Zm8.474,15.459h23.3l-6.381,3.2-.169.14c-3.155,2.611-4.009,6.633-2.076,9.778a6.809,6.809,0,0,0,5.885,3.192,9.3,9.3,0,0,0,3.71-.825l3.908-1.941v12.393h-28.176Zm25.426,87.439a2.556,2.556,0,0,1-2.083-.6,2.59,2.59,0,0,1-.907-1.96V668a1.922,1.922,0,0,0-3.845,0v29.41a2.59,2.59,0,1,1-5.179,0v-29.73a1.922,1.922,0,1,0-3.845,0v25.054a2.589,2.589,0,0,1-5.179,0V680.991c0-.055-.012-.107-.016-.161V664.787a1.922,1.922,0,1,0-3.845,0v16.368c0,1.3-.7,2.177-1.735,2.177s-1.735-.875-1.735-2.177l.017-24.176c0-5.257,2.469-9.955,6.29-11.97.027-.014.048-.034.074-.049a2.128,2.128,0,0,0,.179-.118c.048-.036.093-.074.137-.114a1.793,1.793,0,0,0,.131-.131,1.743,1.743,0,0,0,.122-.148c.035-.047.066-.095.1-.145a1.886,1.886,0,0,0,.093-.172,1.482,1.482,0,0,0,.066-.159,1.662,1.662,0,0,0,.061-.2q.019-.076.033-.156a1.977,1.977,0,0,0,.023-.231c0-.027.008-.053.008-.08v-5.674h19.4v6.016c0,.013,0,.025,0,.038a1.8,1.8,0,0,0,.022.219c.007.054.011.11.023.163s.036.12.056.18a1.806,1.806,0,0,0,.061.176c.024.054.056.1.085.156a1.785,1.785,0,0,0,.094.164c.036.051.079.1.12.145s.075.093.118.135a1.77,1.77,0,0,0,.142.117,1.909,1.909,0,0,0,.151.117c.045.029.1.052.144.078a1.806,1.806,0,0,0,.2.1c.012.005.022.012.034.017a26.814,26.814,0,0,1,11.052,8.587l7.348,14.792c1.051,2.456.242,4.059-.87,4.743-1.209.743-3.1.677-4.672-1.1l-4.006-7.983-.181-.293a3.387,3.387,0,0,0-6.094,2.034v26.328a2.915,2.915,0,0,1-.042.488l0,.026A2.649,2.649,0,0,1,1218.678,695.292Zm31.973-3.767h-25.938v-23.3l3.2,6.381.139.169c2.611,3.154,6.632,4.009,9.779,2.076,2.568-1.578,4.3-5.156,2.366-9.595l-1.941-3.909h12.393Zm66.207-16a2.593,2.593,0,0,1-2.589,2.59h-29.731a1.922,1.922,0,1,0,0,3.844h25.054a2.59,2.59,0,0,1,0,5.18H1297.85c-.055,0-.106.011-.16.016h-16.044a1.922,1.922,0,0,0,0,3.845h16.369c1.3,0,2.176.7,2.176,1.734s-.875,1.735-2.176,1.735l-24.177-.016c-5.257,0-9.956-2.469-11.969-6.29-.015-.027-.035-.049-.05-.075a1.962,1.962,0,0,0-.118-.178c-.036-.048-.073-.093-.113-.137s-.086-.089-.132-.131a1.7,1.7,0,0,0-.147-.122c-.048-.035-.1-.067-.146-.1a1.884,1.884,0,0,0-.172-.093c-.052-.025-.1-.047-.159-.067a1.857,1.857,0,0,0-.2-.061c-.051-.013-.1-.023-.155-.032a1.815,1.815,0,0,0-.233-.023c-.027,0-.052-.008-.079-.008H1254.5v-19.4h6.015c.015,0,.028,0,.043,0,.065,0,.129-.012.194-.02s.126-.013.187-.027.1-.031.154-.047a1.9,1.9,0,0,0,.2-.07c.047-.021.089-.048.134-.073a1.764,1.764,0,0,0,.185-.107c.047-.032.088-.072.132-.108s.1-.082.147-.128.075-.091.112-.137a1.66,1.66,0,0,0,.121-.156c.029-.044.051-.094.077-.141a1.838,1.838,0,0,0,.1-.2c.005-.012.012-.022.017-.034a26.83,26.83,0,0,1,8.587-11.052l14.792-7.348c2.457-1.052,4.06-.241,4.743.871.743,1.21.678,3.1-1.1,4.672l-7.983,4.006-.292.181a3.386,3.386,0,0,0,2.033,6.094h26.328a3.022,3.022,0,0,1,.488.041l.026.005a2.649,2.649,0,0,1,2.213,2.143,2.565,2.565,0,0,1-.6,2.084,2.593,2.593,0,0,1-1.961.907h-24.733a1.922,1.922,0,1,0,0,3.844h29.41A2.593,2.593,0,0,1,1316.858,675.523Zm-8.474-15.459h-23.3l6.381-3.2.169-.139c3.155-2.612,4.009-6.633,2.077-9.779-1.578-2.569-5.156-4.3-9.6-2.366l-3.908,1.941V634.126h28.176ZM1284.6,630.281v-6.016c0-.013,0-.026,0-.039a1.906,1.906,0,0,0-.021-.211c-.008-.057-.012-.115-.024-.171s-.035-.113-.053-.169a1.705,1.705,0,0,0-.065-.187c-.022-.05-.052-.1-.078-.144s-.063-.12-.1-.176-.074-.09-.112-.135a1.89,1.89,0,0,0-.126-.145c-.042-.04-.09-.075-.136-.112a1.854,1.854,0,0,0-.157-.121c-.044-.028-.092-.05-.139-.075a1.811,1.811,0,0,0-.2-.1.343.343,0,0,0-.033-.016,26.828,26.828,0,0,1-11.051-8.587l-7.348-14.792c-1.051-2.456-.242-4.06.87-4.744,1.209-.742,3.1-.676,4.672,1.1l4.007,7.984.181.292a3.386,3.386,0,0,0,6.094-2.033V575.352a3.044,3.044,0,0,1,.041-.489l0-.022a2.651,2.651,0,0,1,2.144-2.216,2.559,2.559,0,0,1,2.083.6,2.59,2.59,0,0,1,.907,1.961v24.733a1.922,1.922,0,1,0,3.845,0v-29.41a2.59,2.59,0,0,1,5.179,0v29.731a1.922,1.922,0,0,0,3.845,0V575.185a2.589,2.589,0,1,1,5.179,0v11.742c0,.056.012.109.016.164v16.04a1.923,1.923,0,0,0,3.845,0V586.762c0-1.3.7-2.177,1.735-2.177s1.735.875,1.735,2.177l-.017,24.176c0,5.258-2.469,9.956-6.29,11.97-.027.014-.048.034-.074.05a1.778,1.778,0,0,0-.178.118,1.726,1.726,0,0,0-.139.114q-.068.062-.129.129c-.044.049-.085.1-.124.151s-.065.093-.095.142a1.729,1.729,0,0,0-.095.175c-.024.051-.045.1-.065.155a2.047,2.047,0,0,0-.062.2c-.013.05-.023.1-.032.152a1.865,1.865,0,0,0-.023.236c0,.026-.008.051-.008.077v5.674Z" transform="translate(-1180.929 -564.07)" fill="#fff"/>
</svg>
