<svg xmlns="http://www.w3.org/2000/svg" width="158.832" height="156.642" viewBox="0 0 158.832 156.642">
  <g id="Grupo_43" data-name="Grupo 43" transform="translate(-319.641 -2260.291)">
    <g id="Grupo_42" data-name="Grupo 42">
      <g id="Grupo_39" data-name="Grupo 39">
        <path id="Caminho_55" data-name="Caminho 55" d="M402.463,2416.933a76.01,76.01,0,1,1,76.01-76.01A76.1,76.1,0,0,1,402.463,2416.933Zm0-144.042a68.031,68.031,0,1,0,68.031,68.032A68.11,68.11,0,0,0,402.463,2272.891Z" fill="#fff"/>
      </g>
      <g id="Grupo_40" data-name="Grupo 40">
        <path id="Caminho_56" data-name="Caminho 56" d="M402.431,2387.359a46.438,46.438,0,1,1,46.45-47.649h0a46.432,46.432,0,0,1-45.205,47.631C403.26,2387.354,402.844,2387.359,402.431,2387.359Zm.058-84.893c-.343,0-.686,0-1.031.012a38.558,38.558,0,1,0,1.031-.012Z" fill="#fff"/>
      </g>
      <g id="Grupo_41" data-name="Grupo 41">
        <path id="Caminho_57" data-name="Caminho 57" d="M402.457,2365.886a24.962,24.962,0,0,1-.646-49.916,24.953,24.953,0,0,1,25.6,24.3,24.987,24.987,0,0,1-24.3,25.6C402.9,2365.884,402.676,2365.886,402.457,2365.886Zm.016-41.948c-.153,0-.3,0-.455.005a16.985,16.985,0,0,0,.442,33.964c.148,0,.3,0,.447,0a16.987,16.987,0,0,0,16.532-17.424h0a16.983,16.983,0,0,0-16.966-16.54Z" fill="#fff"/>
      </g>
      <path id="Caminho_58" data-name="Caminho 58" d="M399.751,2333.6l-55.337-54.181.006-.235.19-7.792-11.1-11.1-.333,13.66-.075,0-13.459.614,10.683,10.684,8.414-.384.885-.04,55.041,53.862-4.7,4.7,22.831,7.92-8.335-22.417Z" fill="#fff"/>
    </g>
  </g>
</svg>
