<svg xmlns="http://www.w3.org/2000/svg" width="150.958" height="167.418" viewBox="0 0 150.958 167.418">
  <g id="Grupo_428" data-name="Grupo 428" transform="translate(-1172.318 -1090.179)">
    <g id="Grupo_415" data-name="Grupo 415">
      <path id="Caminho_404" data-name="Caminho 404" d="M1247.8,1194.364a20.476,20.476,0,1,1,20.532-20.476A20.527,20.527,0,0,1,1247.8,1194.364Zm0-34.91a14.435,14.435,0,1,0,14.491,14.434A14.478,14.478,0,0,0,1247.8,1159.454Z" fill="#fff"/>
    </g>
    <g id="Grupo_416" data-name="Grupo 416">
      <path id="Caminho_405" data-name="Caminho 405" d="M1247.8,1131.13a20.476,20.476,0,1,1,20.532-20.475A20.526,20.526,0,0,1,1247.8,1131.13Zm0-34.91a14.435,14.435,0,1,0,14.491,14.435A14.479,14.479,0,0,0,1247.8,1096.22Z" fill="#fff"/>
    </g>
    <g id="Grupo_417" data-name="Grupo 417">
      <path id="Caminho_406" data-name="Caminho 406" d="M1192.823,1162.742a20.478,20.478,0,1,1,17.814-10.229A20.438,20.438,0,0,1,1192.823,1162.742Zm.059-34.9a14.508,14.508,0,0,0-12.575,7.219,14.4,14.4,0,0,0,5.3,19.712,14.537,14.537,0,0,0,19.8-5.285,14.4,14.4,0,0,0-5.3-19.712h0A14.443,14.443,0,0,0,1192.882,1127.839Z" fill="#fff"/>
    </g>
    <g id="Grupo_418" data-name="Grupo 418">
      <path id="Caminho_407" data-name="Caminho 407" d="M1192.894,1225.975a20.556,20.556,0,0,1-17.814-10.229,20.444,20.444,0,0,1,7.516-27.975h0a20.587,20.587,0,0,1,28.041,7.493,20.481,20.481,0,0,1-17.743,30.711Zm-7.285-32.969a14.406,14.406,0,0,0-5.3,19.713,14.536,14.536,0,0,0,19.8,5.284,14.4,14.4,0,0,0,5.3-19.712,14.538,14.538,0,0,0-19.8-5.285Z" fill="#fff"/>
    </g>
    <g id="Grupo_419" data-name="Grupo 419">
      <path id="Caminho_408" data-name="Caminho 408" d="M1247.8,1257.6a20.475,20.475,0,1,1,20.532-20.475A20.526,20.526,0,0,1,1247.8,1257.6Zm0-34.91a14.435,14.435,0,1,0,14.491,14.435A14.479,14.479,0,0,0,1247.8,1222.687Z" fill="#fff"/>
    </g>
    <g id="Grupo_420" data-name="Grupo 420">
      <path id="Caminho_409" data-name="Caminho 409" d="M1302.7,1225.975a20.449,20.449,0,0,1-10.227-2.736h0a20.446,20.446,0,0,1-7.517-27.975,20.587,20.587,0,0,1,28.041-7.493,20.443,20.443,0,0,1,7.517,27.975A20.557,20.557,0,0,1,1302.7,1225.975Zm-7.214-7.972a14.536,14.536,0,0,0,19.8-5.284,14.4,14.4,0,0,0-5.3-19.713,14.536,14.536,0,0,0-19.8,5.285,14.4,14.4,0,0,0,5.3,19.712Z" fill="#fff"/>
    </g>
    <g id="Grupo_421" data-name="Grupo 421">
      <path id="Caminho_410" data-name="Caminho 410" d="M1302.772,1162.742a20.553,20.553,0,0,1-17.814-10.229,20.446,20.446,0,0,1,7.516-27.976,20.588,20.588,0,0,1,28.041,7.493,20.445,20.445,0,0,1-7.517,27.976h0A20.446,20.446,0,0,1,1302.772,1162.742Zm-.059-34.9a14.48,14.48,0,0,0-13.977,10.71,14.289,14.289,0,0,0,1.449,10.936,14.536,14.536,0,0,0,19.8,5.285h0a14.4,14.4,0,0,0,5.3-19.712A14.511,14.511,0,0,0,1302.713,1127.839Z" fill="#fff"/>
    </g>
    <g id="Grupo_422" data-name="Grupo 422">
      <path id="Caminho_411" data-name="Caminho 411" d="M1247.8,1159.454a3.021,3.021,0,0,1-3.02-3.021v-28.324a3.021,3.021,0,0,1,6.041,0v28.324A3.022,3.022,0,0,1,1247.8,1159.454Z" fill="#fff"/>
    </g>
    <g id="Grupo_423" data-name="Grupo 423">
      <path id="Caminho_412" data-name="Caminho 412" d="M1232.629,1168.182a3.007,3.007,0,0,1-1.5-.4l-24.609-14.162a3.021,3.021,0,0,1,3.013-5.236l24.609,14.162a3.021,3.021,0,0,1-1.51,5.639Z" fill="#fff"/>
    </g>
    <g id="Grupo_424" data-name="Grupo 424">
      <path id="Caminho_413" data-name="Caminho 413" d="M1208.027,1199.8a3.021,3.021,0,0,1-1.51-5.639L1231.126,1180a3.021,3.021,0,0,1,3.013,5.236L1209.53,1199.4A3.007,3.007,0,0,1,1208.027,1199.8Z" fill="#fff"/>
    </g>
    <g id="Grupo_425" data-name="Grupo 425">
      <path id="Caminho_414" data-name="Caminho 414" d="M1247.8,1222.687a3.02,3.02,0,0,1-3.02-3.02v-28.324a3.021,3.021,0,0,1,6.041,0v28.324A3.021,3.021,0,0,1,1247.8,1222.687Z" fill="#fff"/>
    </g>
    <g id="Grupo_426" data-name="Grupo 426">
      <path id="Caminho_415" data-name="Caminho 415" d="M1287.568,1199.8a3,3,0,0,1-1.5-.4l-24.609-14.161a3.02,3.02,0,0,1,3.013-5.236l24.609,14.161a3.021,3.021,0,0,1-1.51,5.639Z" fill="#fff"/>
    </g>
    <g id="Grupo_427" data-name="Grupo 427">
      <path id="Caminho_416" data-name="Caminho 416" d="M1262.966,1168.182a3.021,3.021,0,0,1-1.51-5.639l24.609-14.162a3.021,3.021,0,0,1,3.013,5.236l-24.609,14.162A3,3,0,0,1,1262.966,1168.182Z" fill="#fff"/>
    </g>
  </g>
</svg>
