<svg xmlns="http://www.w3.org/2000/svg" width="130.684" height="131.866" viewBox="0 0 130.684 131.866">
  <path id="Caminho_61" data-name="Caminho 61" d="M1551.253,2303.42a24.47,24.47,0,0,0,48.941,0h-3.881l-15.717-31.267h16.216a3.193,3.193,0,1,0,0-6.386H1472.7a3.193,3.193,0,1,0,0,6.386h16.681l-15.713,31.267h-3.883a24.47,24.47,0,0,0,48.94,0h-3.88l-15.717-31.267h32.819v100.619a55.966,55.966,0,0,0-43.307,24.677h45.585a2.364,2.364,0,0,0,1.829,0h45.584a55.963,55.963,0,0,0-43.3-24.676v-100.62h32.513l-15.713,31.267Zm-70.434,0,13.439-26.742,13.441,26.742Zm94.9-26.742,13.441,26.742h-26.88Z" transform="translate(-1469.51 -2265.767)" fill="#fff"/>
</svg>
