<svg xmlns="http://www.w3.org/2000/svg" width="201.605" height="118.042" viewBox="0 0 201.605 118.042">
  <g id="Grupo_47" data-name="Grupo 47" transform="translate(-872.573 -2279.591)">
    <g id="Grupo_46" data-name="Grupo 46">
      <g id="Grupo_440" data-name="Grupo 440">
        <g id="Grupo_44" data-name="Grupo 44">
          <path id="Caminho_59" data-name="Caminho 59" d="M973.463,2397.633h-.28c-22.5-.076-46.718-9.482-70.036-27.2a181.725,181.725,0,0,1-28.651-26.911l-1.923-2.363,1.822-2.442a191.231,191.231,0,0,1,28.813-29.521c23.382-19.374,47.628-29.61,70.124-29.61h.257c22.57.076,46.837,10.483,70.176,30.095a191.359,191.359,0,0,1,28.6,29.717l1.808,2.454-1.942,2.351a181.878,181.878,0,0,1-28.834,26.712C1020.063,2388.4,995.884,2397.633,973.463,2397.633ZM882.6,2340.948c8.994,10.04,46.5,48.72,90.6,48.87h.263c44.053,0,81.639-38.274,90.679-48.242-8.777-10.871-46.388-54.02-90.585-54.17h-.238C929.172,2287.406,891.433,2330.146,882.6,2340.948Z" fill="#fff"/>
        </g>
        <path id="Caminho_60" data-name="Caminho 60" d="M973.508,2298.583a40.029,40.029,0,1,0,39.891,40.166A40.029,40.029,0,0,0,973.508,2298.583Zm-.207,60.191a20.163,20.163,0,1,1,20.231-20.093A20.162,20.162,0,0,1,973.3,2358.774Z" fill="#fff"/>
      </g>
    </g>
  </g>
</svg>
